<?xml version="1.0" encoding="UTF-8" standalone="no"?>
<!DOCTYPE svg PUBLIC "-//W3C//DTD SVG 1.1//EN" "http://www.w3.org/Graphics/SVG/1.1/DTD/svg11.dtd">
<!-- Created with Vectornator (http://vectornator.io/) -->
<svg height="100%" stroke-miterlimit="10" style="fill-rule:nonzero;clip-rule:evenodd;stroke-linecap:round;stroke-linejoin:round;" version="1.1" viewBox="0 0 123.245 123.436" width="100%" xml:space="preserve" xmlns="http://www.w3.org/2000/svg" xmlns:vectornator="http://vectornator.io" xmlns:xlink="http://www.w3.org/1999/xlink">
<defs>
<path d="M87.4719 67.8062C87.7022 68.7807 87.7265 68.761 87.7265 69.7903C87.7265 86.5494 74.1406 100.135 57.3815 100.135C40.6224 100.135 27.0364 86.5494 27.0364 69.7903C27.0364 53.0312 40.6224 39.4452 57.3815 39.4452C61.7469 39.4452 65.613 39.6575 69.3638 41.3171" id="Fill"/>
</defs>
<g id="Layer-2" vectornator:layerName="Layer 2"/>
<g id="Layer-3" vectornator:layerName="Layer 3">
<g opacity="1">
<path d="M61.1388 61.2787C61.1388 61.2787 60.3226 62.7567 59.9106 63.6734C59.5737 64.4227 59.666 65.8302 60.545 64.882C61.4699 63.8842 61.3788 66.0231 62.6842 65.0342C63.8489 64.1519 64.1673 66.4569 64.5859 64.8331C64.9062 63.5909 63.7583 61.5214 63.7583 61.5214" fill="#b9a0ff" fill-rule="nonzero" opacity="1" stroke="#000000" stroke-linecap="butt" stroke-linejoin="miter" stroke-width="0.674752"/>
<path d="M64.5329 56.5046C64.5329 56.5046 65.3491 55.0266 65.7611 54.1099C66.098 53.3606 66.0057 51.953 65.1267 52.9013C64.2018 53.8991 64.2929 51.7602 62.9875 52.7491C61.8228 53.6314 61.5044 51.3264 61.0858 52.9502C60.7655 54.1924 61.9134 56.2619 61.9134 56.2619" fill="#b9a0ff" fill-rule="nonzero" opacity="1" stroke="#000000" stroke-linecap="butt" stroke-linejoin="miter" stroke-width="0.674752"/>
<path d="M60.6182 60.8778C59.3803 59.8334 59.2918 58.0277 60.4204 56.8446C61.549 55.6615 63.4674 55.5492 64.7053 56.5936C65.9431 57.638 66.0317 59.4438 64.903 60.6268C63.7744 61.8099 61.856 61.9223 60.6182 60.8778Z" fill="#b9a0ff" fill-rule="nonzero" opacity="1" stroke="#000000" stroke-linecap="butt" stroke-linejoin="miter" stroke-width="0.674752"/>
</g>
<g opacity="1">
<path d="M77.1243 38.6241C77.1243 38.6241 76.3081 40.1021 75.896 41.0188C75.5592 41.7681 75.6515 43.1756 76.5305 42.2273C77.4554 41.2296 77.3642 43.3684 78.6696 42.3796C79.8343 41.4973 80.1528 43.8023 80.5714 42.1785C80.8916 40.9363 79.7438 38.8667 79.7438 38.8667" fill="#b9a0ff" fill-rule="nonzero" opacity="1" stroke="#000000" stroke-linecap="butt" stroke-linejoin="miter" stroke-width="0.674752"/>
<path d="M80.5184 33.8499C80.5184 33.8499 81.3345 32.372 81.7466 31.4553C82.0834 30.706 81.9912 29.2984 81.1121 30.2467C80.1873 31.2444 80.2784 29.1056 78.973 30.0945C77.8083 30.9768 77.4899 28.6718 77.0712 30.2955C76.751 31.5378 77.8988 33.6073 77.8988 33.6073" fill="#b9a0ff" fill-rule="nonzero" opacity="1" stroke="#000000" stroke-linecap="butt" stroke-linejoin="miter" stroke-width="0.674752"/>
<path d="M76.6036 38.2232C75.3658 37.1788 75.2772 35.373 76.4059 34.19C77.5345 33.0069 79.4529 32.8945 80.6907 33.939C81.9286 34.9834 82.0171 36.7892 80.8885 37.9722C79.7599 39.1553 77.8415 39.2677 76.6036 38.2232Z" fill="#b9a0ff" fill-rule="nonzero" opacity="1" stroke="#000000" stroke-linecap="butt" stroke-linejoin="miter" stroke-width="0.674752"/>
</g>
<g opacity="1">
<path d="M74.3571 63.6765C74.3571 63.6765 73.5409 65.1544 73.1288 66.0711C72.792 66.8205 72.8843 68.228 73.7633 67.2797C74.6882 66.282 74.597 68.4208 75.9024 67.4319C77.0671 66.5497 77.3856 68.8546 77.8042 67.2309C78.1244 65.9886 76.9766 63.9191 76.9766 63.9191" fill="#b9a0ff" fill-rule="nonzero" opacity="1" stroke="#000000" stroke-linecap="butt" stroke-linejoin="miter" stroke-width="0.674752"/>
<path d="M77.7512 58.9023C77.7512 58.9023 78.5673 57.4244 78.9794 56.5076C79.3162 55.7583 79.224 54.3508 78.3449 55.2991C77.4201 56.2968 77.5112 54.158 76.2058 55.1469C75.0411 56.0291 74.7227 53.7241 74.304 55.3479C73.9838 56.5902 75.1316 58.6597 75.1316 58.6597" fill="#b9a0ff" fill-rule="nonzero" opacity="1" stroke="#000000" stroke-linecap="butt" stroke-linejoin="miter" stroke-width="0.674752"/>
<path d="M73.8364 63.2756C72.5986 62.2311 72.51 60.4254 73.6387 59.2423C74.7673 58.0593 76.6857 57.9469 77.9235 58.9913C79.1614 60.0358 79.2499 61.8415 78.1213 63.0246C76.9927 64.2076 75.0743 64.32 73.8364 63.2756Z" fill="#b9a0ff" fill-rule="nonzero" opacity="1" stroke="#000000" stroke-linecap="butt" stroke-linejoin="miter" stroke-width="0.674752"/>
</g>
<g opacity="1">
<path d="M93.2478 41.1743C93.2478 41.1743 91.5975 40.6313 90.5848 40.3825C89.7571 40.1791 88.2868 40.4741 89.3871 41.1543C90.5447 41.87 88.2835 42.1022 89.4763 43.1747C90.5404 44.1315 88.1521 44.7709 89.9095 44.9209C91.254 45.0357 93.2978 43.6567 93.2978 43.6567" fill="#b9a0ff" fill-rule="nonzero" opacity="1" stroke="#000000" stroke-linecap="butt" stroke-linejoin="miter" stroke-width="0.674752"/>
<path d="M98.6671 43.6358C98.6671 43.6358 100.317 44.1787 101.33 44.4275C102.158 44.631 103.628 44.3359 102.528 43.6557C101.37 42.94 103.631 42.7078 102.439 41.6353C101.374 40.6785 103.763 40.0392 102.005 39.8891C100.661 39.7743 98.617 41.1533 98.617 41.1533" fill="#b9a0ff" fill-rule="nonzero" opacity="1" stroke="#000000" stroke-linecap="butt" stroke-linejoin="miter" stroke-width="0.674752"/>
<path d="M93.6089 40.6286C94.5636 39.3176 96.4534 38.967 97.8298 39.8455C99.2063 40.724 99.5482 42.4989 98.5935 43.8099C97.6388 45.1209 95.749 45.4715 94.3726 44.593C92.9961 43.7145 92.6542 41.9395 93.6089 40.6286Z" fill="#b9a0ff" fill-rule="nonzero" opacity="1" stroke="#000000" stroke-linecap="butt" stroke-linejoin="miter" stroke-width="0.674752"/>
</g>
<g opacity="1">
<path d="M75.1772 72.0271C75.1772 72.0271 73.978 73.1428 73.3188 73.8611C72.78 74.4483 72.4202 75.7536 73.5093 75.137C74.6553 74.4882 73.9004 76.4072 75.3858 75.8727C76.7112 75.3959 76.2724 77.5803 77.1599 76.221C77.8389 75.1811 77.4574 72.9791 77.4574 72.9791" fill="#a0ffa1" fill-rule="nonzero" opacity="1" stroke="#000000" stroke-linecap="butt" stroke-linejoin="miter" stroke-width="0.674752"/>
<path d="M79.7326 68.6346C79.7326 68.6346 80.9318 67.5189 81.5909 66.8006C82.1297 66.2134 82.4895 64.9081 81.4004 65.5247C80.2545 66.1735 81.0094 64.2545 79.5239 64.789C78.1986 65.2658 78.6373 63.0814 77.7498 64.4407C77.0709 65.4806 77.4524 67.6826 77.4524 67.6826" fill="#a0ffa1" fill-rule="nonzero" opacity="1" stroke="#000000" stroke-linecap="butt" stroke-linejoin="miter" stroke-width="0.674752"/>
<path d="M74.8349 71.5172C74.0499 70.2221 74.5384 68.5557 75.926 67.7954C77.3135 67.035 79.0747 67.4685 79.8596 68.7637C80.6446 70.0589 80.1561 71.7252 78.7686 72.4856C77.381 73.2459 75.6199 72.8124 74.8349 71.5172Z" fill="#a0ffa1" fill-rule="nonzero" opacity="1" stroke="#000000" stroke-linecap="butt" stroke-linejoin="miter" stroke-width="0.674752"/>
</g>
<g opacity="1">
<path d="M98.6281 35.0171C98.6281 35.0171 97.1426 35.7625 96.2938 36.2733C95.6 36.6908 94.8556 37.8479 96.0826 37.5524C97.3737 37.2414 96.0642 38.8807 97.6434 38.7724C99.0524 38.6758 97.9624 40.6568 99.2259 39.5919C100.193 38.7773 100.507 36.5554 100.507 36.5554" fill="#a0ffa1" fill-rule="nonzero" opacity="1" stroke="#000000" stroke-linecap="butt" stroke-linejoin="miter" stroke-width="0.674752"/>
<path d="M104.011 32.9987C104.011 32.9987 105.496 32.2532 106.345 31.7424C107.039 31.3249 107.783 30.1678 106.556 30.4634C105.265 30.7743 106.575 29.135 104.995 29.2433C103.586 29.3399 104.677 27.359 103.413 28.4238C102.446 29.2385 102.132 31.4603 102.132 31.4603" fill="#a0ffa1" fill-rule="nonzero" opacity="1" stroke="#000000" stroke-linecap="butt" stroke-linejoin="miter" stroke-width="0.674752"/>
<path d="M98.4591 34.4333C98.11 32.9733 99.088 31.5042 100.644 31.1519C102.199 30.7996 103.743 31.6975 104.092 33.1575C104.441 34.6175 103.463 36.0866 101.908 36.4389C100.352 36.7912 98.8081 35.8932 98.4591 34.4333Z" fill="#a0ffa1" fill-rule="nonzero" opacity="1" stroke="#000000" stroke-linecap="butt" stroke-linejoin="miter" stroke-width="0.674752"/>
</g>
<g opacity="1">
<path d="M56.586 67.7918C56.586 67.7918 55.0226 67.2569 54.0623 67.0089C53.2773 66.8062 51.8747 67.0707 52.9131 67.7303C54.0057 68.4243 51.8514 68.6204 52.9729 69.6543C53.9735 70.5767 51.6932 71.1589 53.3634 71.3211C54.6412 71.4452 56.6028 70.1551 56.6028 70.1551" fill="#a0ffa1" fill-rule="nonzero" opacity="1" stroke="#000000" stroke-linecap="butt" stroke-linejoin="miter" stroke-width="0.674752"/>
<path d="M61.7115 70.1944C61.7115 70.1944 63.2749 70.7294 64.2352 70.9774C65.0202 71.1801 66.4228 70.9155 65.3844 70.256C64.2918 69.562 66.4461 69.3659 65.3246 68.332C64.324 67.4096 66.6042 66.8274 64.9341 66.6652C63.6563 66.5411 61.6947 67.8311 61.6947 67.8311" fill="#a0ffa1" fill-rule="nonzero" opacity="1" stroke="#000000" stroke-linecap="butt" stroke-linejoin="miter" stroke-width="0.674752"/>
<path d="M56.9364 67.2764C57.861 66.0392 59.6633 65.7263 60.962 66.5776C62.2607 67.429 62.5639 69.1221 61.6393 70.3594C60.7147 71.5967 58.9124 71.9095 57.6137 71.0582C56.315 70.2068 56.0118 68.5137 56.9364 67.2764Z" fill="#a0ffa1" fill-rule="nonzero" opacity="1" stroke="#000000" stroke-linecap="butt" stroke-linejoin="miter" stroke-width="0.674752"/>
</g>
<g opacity="1">
<path d="M70.2008 58.9804C70.2008 58.9804 70.4297 60.4862 70.6428 61.3724C70.8169 62.0968 71.692 63.0892 71.8137 61.9426C71.9418 60.7362 73.0966 62.3618 73.5174 60.9687C73.8927 59.7258 75.4522 61.2662 74.8395 59.8546C74.3707 58.7746 72.3192 57.8294 72.3192 57.8294" fill="#a0c3ff" fill-rule="nonzero" opacity="1" stroke="#000000" stroke-linecap="butt" stroke-linejoin="miter" stroke-width="0.674752"/>
<path d="M70.0342 53.7316C70.0342 53.7316 69.8053 52.2258 69.5922 51.3396C69.418 50.6152 68.543 49.6228 68.4213 50.7694C68.2932 51.9758 67.1383 50.3502 66.7176 51.7433C66.3423 52.9862 64.7828 51.4458 65.3955 52.8574C65.8643 53.9374 67.9158 54.8826 67.9158 54.8826" fill="#a0c3ff" fill-rule="nonzero" opacity="1" stroke="#000000" stroke-linecap="butt" stroke-linejoin="miter" stroke-width="0.674752"/>
<path d="M69.578 58.9488C68.045 58.8062 66.9449 57.5177 67.1209 56.071C67.2969 54.6243 68.6824 53.5671 70.2154 53.7098C71.7484 53.8524 72.8485 55.1408 72.6725 56.5876C72.4965 58.0343 71.111 59.0914 69.578 58.9488Z" fill="#a0c3ff" fill-rule="nonzero" opacity="1" stroke="#000000" stroke-linecap="butt" stroke-linejoin="miter" stroke-width="0.674752"/>
</g>
<g opacity="1">
<path d="M90.7862 36.5742C90.7862 36.5742 92.4008 36.444 93.3579 36.2937C94.1403 36.1708 95.2684 35.4044 94.0651 35.2254C92.7991 35.0371 94.6223 34.0434 93.1844 33.5696C91.9016 33.1468 93.6703 31.7681 92.1215 32.2643C90.9367 32.644 89.7546 34.5186 89.7546 34.5186" fill="#a0c3ff" fill-rule="nonzero" opacity="1" stroke="#000000" stroke-linecap="butt" stroke-linejoin="miter" stroke-width="0.674752"/>
<path d="M85.2138 36.435C85.2138 36.435 83.5993 36.5652 82.6422 36.7155C81.8598 36.8384 80.7317 37.6048 81.9349 37.7838C83.201 37.9721 81.3777 38.9658 82.8156 39.4397C84.0985 39.8624 82.3298 41.2411 83.8785 40.7449C85.0634 40.3653 86.2455 38.4906 86.2455 38.4906" fill="#a0c3ff" fill-rule="nonzero" opacity="1" stroke="#000000" stroke-linecap="butt" stroke-linejoin="miter" stroke-width="0.674752"/>
<path d="M90.6977 37.1577C90.4112 38.5903 88.9498 39.5515 87.4336 39.3046C85.9173 39.0576 84.9203 37.6961 85.2068 36.2635C85.4932 34.8309 86.9546 33.8697 88.4709 34.1167C89.9872 34.3636 90.9841 35.7251 90.6977 37.1577Z" fill="#a0c3ff" fill-rule="nonzero" opacity="1" stroke="#000000" stroke-linecap="butt" stroke-linejoin="miter" stroke-width="0.674752"/>
</g>
<g opacity="1">
<path d="M93.7202 50.0106C93.7202 50.0106 95.3347 49.8804 96.2919 49.7301C97.0742 49.6072 98.2024 48.8408 96.9991 48.6618C95.7331 48.4735 97.5563 47.4798 96.1184 47.0059C94.8356 46.5831 96.6042 45.2045 95.0555 45.7007C93.8707 46.0803 92.6885 47.9549 92.6885 47.9549" fill="#a0c3ff" fill-rule="nonzero" opacity="1" stroke="#000000" stroke-linecap="butt" stroke-linejoin="miter" stroke-width="0.674752"/>
<path d="M88.1478 49.8714C88.1478 49.8714 86.5333 50.0016 85.5761 50.1519C84.7938 50.2747 83.6656 51.0412 84.8689 51.2201C86.135 51.4085 84.3117 52.4021 85.7496 52.876C87.0325 53.2988 85.2638 54.6775 86.8125 54.1812C87.9974 53.8016 89.1795 51.927 89.1795 51.927" fill="#a0c3ff" fill-rule="nonzero" opacity="1" stroke="#000000" stroke-linecap="butt" stroke-linejoin="miter" stroke-width="0.674752"/>
<path d="M93.6317 50.5941C93.3452 52.0267 91.8838 52.9879 90.3676 52.7409C88.8513 52.494 87.8543 51.1325 88.1408 49.6999C88.4272 48.2673 89.8886 47.3061 91.4049 47.553C92.9212 47.7999 93.9181 49.1615 93.6317 50.5941Z" fill="#a0c3ff" fill-rule="nonzero" opacity="1" stroke="#000000" stroke-linecap="butt" stroke-linejoin="miter" stroke-width="0.674752"/>
</g>
<g opacity="1">
<path d="M76.1715 49.324C76.1715 49.324 75.0411 48.132 74.3057 47.4734C73.7047 46.935 72.3128 46.5447 72.9093 47.6138C73.5368 48.7388 71.5056 47.9475 71.9867 49.3955C72.4159 50.6873 70.0758 50.1915 71.4911 51.0915C72.5739 51.7801 74.9875 51.4869 74.9875 51.4869" fill="#fffaa0" fill-rule="nonzero" opacity="1" stroke="#000000" stroke-linecap="butt" stroke-linejoin="miter" stroke-width="0.674752"/>
<path d="M79.5485 53.8233C79.5485 53.8233 80.679 55.0152 81.4143 55.6739C82.0153 56.2123 83.4072 56.6026 82.8108 55.5334C82.1832 54.4085 84.2144 55.1998 83.7333 53.7518C83.3042 52.46 85.6443 52.9558 84.2289 52.0558C83.1461 51.3672 80.7325 51.6603 80.7325 51.6603" fill="#fffaa0" fill-rule="nonzero" opacity="1" stroke="#000000" stroke-linecap="butt" stroke-linejoin="miter" stroke-width="0.674752"/>
<path d="M76.7472 49.0117C78.2041 48.2996 79.979 48.8259 80.7116 50.1872C81.4441 51.5484 80.8569 53.2292 79.4001 53.9412C77.9432 54.6533 76.1683 54.127 75.4358 52.7657C74.7032 51.4045 75.2904 49.7237 76.7472 49.0117Z" fill="#fffaa0" fill-rule="nonzero" opacity="1" stroke="#000000" stroke-linecap="butt" stroke-linejoin="miter" stroke-width="0.674752"/>
</g>
<g opacity="1">
<path d="M99.2113 22.0283C99.2113 22.0283 97.5679 22.4994 96.6109 22.854C95.8287 23.1439 94.8393 24.1686 96.129 24.1017C97.4859 24.0313 95.8293 25.4351 97.4316 25.6229C98.8611 25.7904 97.3516 27.5793 98.8407 26.745C99.9799 26.1067 100.765 23.9296 100.765 23.9296" fill="#fffaa0" fill-rule="nonzero" opacity="1" stroke="#000000" stroke-linecap="butt" stroke-linejoin="miter" stroke-width="0.674752"/>
<path d="M105.022 21.0082C105.022 21.0082 106.665 20.537 107.622 20.1824C108.404 19.8926 109.394 18.8678 108.104 18.9348C106.747 19.0052 108.404 17.6013 106.801 17.4136C105.372 17.246 106.881 15.4571 105.392 16.2914C104.253 16.9297 103.468 19.1069 103.468 19.1069" fill="#fffaa0" fill-rule="nonzero" opacity="1" stroke="#000000" stroke-linecap="butt" stroke-linejoin="miter" stroke-width="0.674752"/>
<path d="M99.1659 21.4089C99.1259 19.8739 100.415 18.5791 102.045 18.5168C103.675 18.4545 105.029 19.6483 105.069 21.1833C105.109 22.7183 103.82 24.0132 102.19 24.0755C100.56 24.1377 99.2059 22.9439 99.1659 21.4089Z" fill="#fffaa0" fill-rule="nonzero" opacity="1" stroke="#000000" stroke-linecap="butt" stroke-linejoin="miter" stroke-width="0.674752"/>
</g>
<g opacity="1">
<path d="M69.7525 46.9753C69.7525 46.9753 68.2095 47.5264 67.3164 47.9241C66.5864 48.2492 65.7084 49.2899 66.9402 49.1471C68.2363 48.9968 66.7447 50.441 68.2938 50.5227C69.6758 50.5956 68.3518 52.3991 69.7219 51.51C70.7701 50.8298 71.3724 48.6992 71.3724 48.6992" fill="#a0fff2" fill-rule="nonzero" opacity="1" stroke="#000000" stroke-linecap="butt" stroke-linejoin="miter" stroke-width="0.674752"/>
<path d="M75.2525 45.6445C75.2525 45.6445 76.7955 45.0933 77.6886 44.6956C78.4186 44.3706 79.2965 43.3299 78.0647 43.4727C76.7687 43.6229 78.2602 42.1788 76.7112 42.0971C75.3292 42.0242 76.6531 40.2207 75.2831 41.1098C74.2349 41.79 73.6326 43.9206 73.6326 43.9206" fill="#a0fff2" fill-rule="nonzero" opacity="1" stroke="#000000" stroke-linecap="butt" stroke-linejoin="miter" stroke-width="0.674752"/>
<path d="M69.6663 46.3856C69.5222 44.9197 70.6689 43.6023 72.2275 43.4431C73.786 43.2839 75.1662 44.3432 75.3102 45.8091C75.4542 47.275 74.3076 48.5924 72.749 48.7516C71.1905 48.9108 69.8103 47.8515 69.6663 46.3856Z" fill="#a0fff2" fill-rule="nonzero" opacity="1" stroke="#000000" stroke-linecap="butt" stroke-linejoin="miter" stroke-width="0.674752"/>
</g>
<g opacity="1">
<path d="M107.384 24.3263C107.384 24.3263 105.744 24.4107 104.769 24.5349C103.972 24.6364 102.804 25.3805 104.017 25.5976C105.294 25.826 103.413 26.7801 104.854 27.3032C106.14 27.7699 104.302 29.1162 105.888 28.6586C107.101 28.3085 108.361 26.4419 108.361 26.4419" fill="#a0fff2" fill-rule="nonzero" opacity="1" stroke="#000000" stroke-linecap="butt" stroke-linejoin="miter" stroke-width="0.674752"/>
<path d="M113.026 24.632C113.026 24.632 114.667 24.5477 115.642 24.4234C116.439 24.3219 117.607 23.5778 116.394 23.3608C115.117 23.1323 116.998 22.1783 115.557 21.6552C114.271 21.1884 116.109 19.8422 114.523 20.2998C113.31 20.6499 112.049 22.5165 112.049 22.5165" fill="#a0fff2" fill-rule="nonzero" opacity="1" stroke="#000000" stroke-linecap="butt" stroke-linejoin="miter" stroke-width="0.674752"/>
<path d="M107.494 23.7371C107.831 22.2924 109.344 21.3606 110.873 21.6558C112.401 21.9511 113.366 23.3615 113.028 24.8062C112.69 26.2509 111.177 27.1827 109.649 26.8875C108.121 26.5922 107.156 25.1817 107.494 23.7371Z" fill="#a0fff2" fill-rule="nonzero" opacity="1" stroke="#000000" stroke-linecap="butt" stroke-linejoin="miter" stroke-width="0.674752"/>
</g>
<g opacity="1">
<path d="M68.6662 71.2427C68.6662 71.2427 67.1231 71.7938 66.2301 72.1915C65.5001 72.5166 64.6221 73.5573 65.8539 73.4145C67.15 73.2642 65.6584 74.7084 67.2075 74.7901C68.5895 74.863 67.2655 76.6665 68.6356 75.7774C69.6837 75.0972 70.2861 72.9666 70.2861 72.9666" fill="#a0fff2" fill-rule="nonzero" opacity="1" stroke="#000000" stroke-linecap="butt" stroke-linejoin="miter" stroke-width="0.674752"/>
<path d="M74.1662 69.9119C74.1662 69.9119 75.7092 69.3607 76.6023 68.963C77.3322 68.638 78.2102 67.5972 76.9784 67.7401C75.6824 67.8903 77.1739 66.4462 75.6249 66.3645C74.2429 66.2916 75.5668 64.4881 74.1968 65.3772C73.1486 66.0574 72.5463 68.188 72.5463 68.188" fill="#a0fff2" fill-rule="nonzero" opacity="1" stroke="#000000" stroke-linecap="butt" stroke-linejoin="miter" stroke-width="0.674752"/>
<path d="M68.58 70.653C68.4359 69.1871 69.5826 67.8697 71.1412 67.7105C72.6997 67.5512 74.0799 68.6106 74.2239 70.0765C74.3679 71.5424 73.2212 72.8598 71.6627 73.019C70.1042 73.1782 68.724 72.1189 68.58 70.653Z" fill="#a0fff2" fill-rule="nonzero" opacity="1" stroke="#000000" stroke-linecap="butt" stroke-linejoin="miter" stroke-width="0.674752"/>
</g>
<g opacity="1">
<path d="M80.5822 48.5983C80.5822 48.5983 79.1499 49.3756 78.3344 49.9029C77.6679 50.334 76.9776 51.4919 78.1719 51.1639C79.4285 50.8188 78.2003 52.4672 79.747 52.3119C81.127 52.1734 80.1262 54.15 81.3294 53.0664C82.2499 52.2374 82.4806 50.0486 82.4806 50.0486" fill="#a0fff2" fill-rule="nonzero" opacity="1" stroke="#000000" stroke-linecap="butt" stroke-linejoin="miter" stroke-width="0.674752"/>
<path d="M85.796 46.4515C85.796 46.4515 87.2283 45.6742 88.0438 45.1469C88.7104 44.7158 89.4006 43.5579 88.2063 43.8859C86.9497 44.231 88.1779 42.5826 86.6312 42.7379C85.2513 42.8764 86.2521 40.8998 85.0489 41.9834C84.1284 42.8124 83.8976 45.0012 83.8976 45.0012" fill="#a0fff2" fill-rule="nonzero" opacity="1" stroke="#000000" stroke-linecap="butt" stroke-linejoin="miter" stroke-width="0.674752"/>
<path d="M80.3958 48.031C80.0019 46.6101 80.9107 45.1389 82.4255 44.745C83.9403 44.3511 85.4876 45.1838 85.8814 46.6047C86.2752 48.0257 85.3665 49.4969 83.8517 49.8908C82.3369 50.2846 80.7896 49.452 80.3958 48.031Z" fill="#a0fff2" fill-rule="nonzero" opacity="1" stroke="#000000" stroke-linecap="butt" stroke-linejoin="miter" stroke-width="0.674752"/>
</g>
<g opacity="1">
<path d="M85.7878 29.9046C85.7878 29.9046 84.2063 30.3032 83.2826 30.6119C82.5276 30.8641 81.5498 31.8106 82.7803 31.7865C84.0751 31.7612 82.4487 33.0486 83.9681 33.277C85.3238 33.4807 83.8241 35.1398 85.2712 34.3902C86.3782 33.8167 87.201 31.7652 87.201 31.7652" fill="#ffa0a0" fill-rule="nonzero" opacity="1" stroke="#000000" stroke-linecap="butt" stroke-linejoin="miter" stroke-width="0.674752"/>
<path d="M91.3566 29.111C91.3566 29.111 92.938 28.7124 93.8618 28.4037C94.6168 28.1515 95.5946 27.205 94.364 27.2291C93.0693 27.2544 94.6957 25.967 93.1763 25.7386C91.8206 25.5349 93.3203 23.8758 91.8732 24.6254C90.7662 25.1989 89.9434 27.2504 89.9434 27.2504" fill="#ffa0a0" fill-rule="nonzero" opacity="1" stroke="#000000" stroke-linecap="butt" stroke-linejoin="miter" stroke-width="0.674752"/>
<path d="M85.766 29.3128C85.7811 27.8481 87.0537 26.6532 88.6084 26.644C90.163 26.6348 91.4111 27.8147 91.3959 29.2794C91.3808 30.7441 90.1082 31.9389 88.5535 31.9481C86.9988 31.9573 85.7508 30.7774 85.766 29.3128Z" fill="#ffa0a0" fill-rule="nonzero" opacity="1" stroke="#000000" stroke-linecap="butt" stroke-linejoin="miter" stroke-width="0.674752"/>
</g>
<g opacity="1">
<path d="M83.1659 60.9745C83.1659 60.9745 81.5845 61.3731 80.6608 61.6817C79.9057 61.9339 78.9279 62.8804 80.1585 62.8564C81.4533 62.831 79.8268 64.1185 81.3463 64.3468C82.7019 64.5505 81.2023 66.2096 82.6493 65.46C83.7564 64.8865 84.5792 62.835 84.5792 62.835" fill="#ffa0a0" fill-rule="nonzero" opacity="1" stroke="#000000" stroke-linecap="butt" stroke-linejoin="miter" stroke-width="0.674752"/>
<path d="M88.7348 60.1808C88.7348 60.1808 90.3162 59.7822 91.2399 59.4736C91.995 59.2213 92.9728 58.2748 91.7422 58.2989C90.4474 58.3242 92.0739 57.0368 90.5544 56.8085C89.1988 56.6047 90.6984 54.9457 89.2514 55.6953C88.1443 56.2687 87.3215 58.3203 87.3215 58.3203" fill="#ffa0a0" fill-rule="nonzero" opacity="1" stroke="#000000" stroke-linecap="butt" stroke-linejoin="miter" stroke-width="0.674752"/>
<path d="M83.1441 60.3826C83.1593 58.9179 84.4319 57.7231 85.9865 57.7139C87.5412 57.7046 88.7892 58.8845 88.7741 60.3492C88.7589 61.8139 87.4863 63.0087 85.9317 63.018C84.377 63.0272 83.129 61.8473 83.1441 60.3826Z" fill="#ffa0a0" fill-rule="nonzero" opacity="1" stroke="#000000" stroke-linecap="butt" stroke-linejoin="miter" stroke-width="0.674752"/>
</g>
<g opacity="1">
<path d="M69.1959 63.1106C69.1959 63.1106 70.2249 61.9034 70.7778 61.1382C71.2297 60.5128 71.4212 59.2123 70.4388 59.9252C69.4051 60.6753 69.9059 58.7391 68.5289 59.4151C67.3004 60.0181 67.4623 57.8593 66.7653 59.2685C66.232 60.3467 66.8682 62.4346 66.8682 62.4346" fill="#ffa0a0" fill-rule="nonzero" opacity="1" stroke="#000000" stroke-linecap="butt" stroke-linejoin="miter" stroke-width="0.674752"/>
<path d="M65.185 66.8787C65.185 66.8787 64.156 68.0858 63.6031 68.851C63.1512 69.4764 62.9597 70.7769 63.9421 70.0641C64.9758 69.314 64.475 71.2501 65.852 70.5742C67.0805 69.9711 66.9186 72.13 67.6156 70.7207C68.1489 69.6425 67.5127 67.5547 67.5127 67.5547" fill="#ffa0a0" fill-rule="nonzero" opacity="1" stroke="#000000" stroke-linecap="butt" stroke-linejoin="miter" stroke-width="0.674752"/>
<path d="M69.5896 63.5668C70.5078 64.7348 70.235 66.3981 68.9804 67.282C67.7257 68.1658 65.9643 67.9355 65.0461 66.7675C64.1279 65.5995 64.4007 63.9362 65.6553 63.0523C66.91 62.1685 68.6714 62.3988 69.5896 63.5668Z" fill="#ffa0a0" fill-rule="nonzero" opacity="1" stroke="#000000" stroke-linecap="butt" stroke-linejoin="miter" stroke-width="0.674752"/>
</g>
</g>
<g id="Layer-1" vectornator:layerName="Layer 1">
<g opacity="1">
<path d="M54.0386 84.4625C54.0386 84.4625 55.2305 99.4814 51.4162 106.236C47.6019 112.99 45.3904 117.174 52.3307 118.193C59.271 119.212 67.2305 116.494 74.7047 117.514C82.1789 118.533 83.829 100.673 59.8049 106.885C59.8049 106.885 63.6047 90.3775 61.906 83.5828" fill="#ef3453" fill-rule="nonzero" opacity="1" stroke="none"/>
<g opacity="1">
<path d="M66.375 105.969C64.675 106.163 62.9858 106.781 61.4062 107.406C63.0941 107.177 64.7406 107.18 66.4375 107.125C69.1594 107.036 71.8555 107.153 74.4062 108.219C76.906 109.263 79.051 111.346 78.4062 114.281C78.1893 115.269 77.6556 116.111 77.0938 116.938C78.2553 115.736 79.5082 114.087 79.4688 112.312C79.4123 109.777 76.9871 107.974 74.875 107.094C72.2775 106.012 69.1646 105.649 66.375 105.969Z" fill="#ffa6b5" stroke="none"/>
</g>
<path d="M54.0386 84.4625C54.0386 84.4625 55.2305 99.4814 51.4162 106.236C47.6019 112.99 45.3904 117.174 52.3307 118.193C59.271 119.212 67.2305 116.494 74.7047 117.514C82.1789 118.533 83.829 100.673 59.8049 106.885C59.8049 106.885 63.6047 90.3775 61.906 83.5828" fill="none" opacity="1" stroke="#000000" stroke-linecap="butt" stroke-linejoin="miter" stroke-width="1.29626"/>
<path d="M48.011 88.1129C48.011 88.1129 49.203 103.132 45.3887 109.886C41.5744 116.641 39.3629 120.824 46.3032 121.844C53.2435 122.863 61.203 120.145 68.6771 121.164C76.1513 122.183 77.8015 104.323 53.7773 110.535C53.7773 110.535 57.5771 94.0279 55.8785 87.2331" fill="#ef3453" fill-rule="nonzero" opacity="1" stroke="none" vectornator:layerName="Curve"/>
<g opacity="1">
<path d="M64.125 109.75C62.9569 109.706 61.7813 109.744 60.625 109.844C57.7913 110.087 55.094 110.818 52.5625 112.125C54.2502 111.687 55.9915 111.561 57.7188 111.375C60.5702 111.067 63.3554 110.7 66.2188 111.188C69.7523 111.79 72.0768 113.642 71.9375 117.469C71.8981 118.551 71.6325 119.588 71.3438 120.625C71.8988 119.41 72.3973 118.167 72.625 116.844C73.2368 113.289 70.8182 111.062 67.5938 110.219C66.463 109.923 65.2931 109.794 64.125 109.75Z" fill="#ffa6b5" stroke="none"/>
</g>
<g opacity="1">
<path d="M46.5625 107.281C45.9866 108.188 45.3996 109.112 44.8438 110.031C44.48 110.633 44.1273 111.231 43.8438 111.875C42.669 114.545 40.5312 119.201 44.0938 121C44.7171 121.315 45.4107 121.494 46.0938 121.625C46.9583 121.791 47.8691 121.919 48.75 121.938C50.4085 121.972 52.1279 121.693 53.7812 121.562C52.3186 121.415 50.8787 121.227 49.4375 120.938C47.7097 120.59 45.4463 120.727 44.0312 119.469C43.0095 118.56 43.3214 117.003 43.625 115.844C43.9998 114.413 44.6576 113.073 45.1562 111.688C45.6778 110.239 46.0898 108.747 46.5625 107.281Z" fill="#ffa6b5" stroke="none"/>
</g>
<path d="M48.0107 88.1177C48.0107 88.1177 49.2027 103.137 45.3884 109.891C41.5741 116.646 39.3625 120.829 46.3028 121.848C53.2432 122.868 61.2027 120.15 68.6768 121.169C76.151 122.188 77.8012 104.328 53.777 110.54C53.777 110.54 57.5768 94.0327 55.8782 87.238" fill="none" opacity="1" stroke="#000000" stroke-linecap="butt" stroke-linejoin="miter" stroke-width="1.29626" vectornator:layerName="Curve"/>
<path d="M69.0932 40.8627C69.0932 40.8627 36.2876 31.7016 28.0416 62.475C20.9726 88.8556 50.065 108.382 72.9606 96.0671C72.9606 96.0671 87.89 86.9254 87.6269 68.8391L53.4933 76.2709L69.0932 40.8627Z" fill="#ef3453" fill-rule="nonzero" opacity="1" stroke="none"/>
<g opacity="1">
<path d="M86.875 71.7188C86.4166 73.9181 85.8074 76.0753 84.875 78.125C84.4769 79.0002 83.9863 79.8118 83.5312 80.6562C82.6265 82.3355 81.7934 83.999 80.6875 85.5625C77.7077 89.7755 73.7501 93.2753 69.0938 95.5312C66.5672 96.7553 63.9466 97.4598 61.2188 98.0625C58.1383 98.7431 55.1274 99.1319 51.9688 99.1562C55.0929 99.7224 58.3265 100.1 61.5 99.7188C63.3275 99.4993 65.1427 98.9517 66.875 98.3438C73.0637 96.1719 78.5077 92.0246 82.1562 86.5625C83.2445 84.9333 84.3221 83.1588 85 81.3125C86.1126 78.2824 86.6391 74.9228 86.875 71.7188Z" fill="#ffa6b5" stroke="none"/>
</g>
<g opacity="1">
<path d="M38.9375 44.9062C35.8609 47.5811 32.9913 50.6535 31.0625 54.2812C29.8266 56.6058 28.9761 59.2013 28.3438 61.75C25.9938 71.2214 27.5838 81.9363 33.9062 89.5938C36.6552 92.9232 40.8039 95.4215 44.6875 97.1875C41.6626 95.4042 38.8979 93.2814 36.7188 90.5C34.2098 87.2977 32.0639 84.002 30.75 80.125C28.6655 73.9741 28.5979 67.1804 30.3438 60.9375C30.9153 58.8938 31.713 56.9878 32.5938 55.0625C34.2877 51.3597 36.293 48.014 38.9375 44.9062Z" fill="#ffa6b5" stroke="none"/>
</g>
<g opacity="1">
<path d="M54.7812 40.2188C54.4829 41.4808 54.1884 42.736 53.7812 43.9688C53.5178 44.7663 53.1226 45.5203 52.8438 46.3125C52.5783 47.0667 52.4292 47.8734 52.1562 48.625C51.6406 50.0451 51.0003 51.4428 50.1875 52.7188C48.7384 54.9937 46.6904 56.8408 44.25 58C43.2123 58.4929 42.1114 58.8098 41.0312 59.1875C39.148 59.8459 37.3052 60.3969 35.3438 60.7812C37.3533 60.9749 39.4637 61.1208 41.4688 60.7812C42.6839 60.5755 43.8868 60.1103 45 59.5938C49.4061 57.5491 52.3046 53.7875 53.7812 49.1875C54.0399 48.3817 54.3348 47.5857 54.4688 46.75C54.606 45.8937 54.5815 44.9912 54.625 44.125C54.6906 42.8196 54.7458 41.5253 54.7812 40.2188Z" fill="#9a0921" stroke="none"/>
</g>
<g opacity="1">
<use fill="none" opacity="1" stroke="#000000" stroke-linecap="butt" stroke-linejoin="miter" stroke-width="1.29626" xlink:href="#Fill"/>
<clipPath id="ClipPath">
<use xlink:href="#Fill"/>
</clipPath>
<g clip-path="url(#ClipPath)">
<path d="M68.7972 41.4326L72.5695 32.7416L96.9657 66.3123L53.699 76.2168L68.7972 41.4326" fill="none" opacity="1" stroke="#000000" stroke-linecap="butt" stroke-linejoin="miter" stroke-width="1.29626"/>
</g>
</g>
<path d="M17.2613 41.3366C17.2613 31.255 25.434 23.0823 35.5156 23.0823C45.5972 23.0823 53.7699 31.255 53.7699 41.3366C53.7699 51.4181 45.5972 59.5909 35.5156 59.5909C25.434 59.5909 17.2613 51.4181 17.2613 41.3366Z" fill="#ffffff" fill-rule="nonzero" opacity="1" stroke="#000000" stroke-linecap="butt" stroke-linejoin="miter" stroke-width="1.29626"/>
<path d="M36.8532 39.4415C32.2309 34.0775 31.1749 27.41 34.4947 24.5492C36.3367 22.9619 41.8877 22.6014 44.423 25.3437L45.3133 33.1799L50.9362 31.6134C53.4175 34.1828 53.4188 42.0909 51.2337 43.9739C47.914 46.8347 41.4756 44.8055 36.8532 39.4415Z" fill="#000000" fill-rule="nonzero" opacity="1" stroke="none"/>
</g>
</g>
</svg>
