<?xml version="1.0" encoding="UTF-8" standalone="no"?>
<!DOCTYPE svg PUBLIC "-//W3C//DTD SVG 1.1//EN" "http://www.w3.org/Graphics/SVG/1.1/DTD/svg11.dtd">
<!-- Created with Vectornator (http://vectornator.io/) -->
<svg height="100%" stroke-miterlimit="10" style="fill-rule:nonzero;clip-rule:evenodd;stroke-linecap:round;stroke-linejoin:round;" version="1.1" viewBox="0 0 123.245 123.436" width="100%" xml:space="preserve" xmlns="http://www.w3.org/2000/svg" xmlns:vectornator="http://vectornator.io" xmlns:xlink="http://www.w3.org/1999/xlink">
<defs/>
<g id="Mouth" vectornator:layerName="Mouth"/>
<g id="Layer-3" vectornator:layerName="Layer 3">
<path d="M16.437 55.8652C22.4203 35.0854 50.1449 28.2069 70.2787 36.0957C90.4124 43.9844 101.614 65.1185 97.2146 86.2904C91.7101 112.784 63.8578 111.06 63.8578 111.06L64.2701 72.704L15.9819 73.2176C15.9819 73.2176 11.8869 71.6674 16.437 55.8652Z" fill="#ef3453" fill-rule="nonzero" opacity="1" stroke="#000000" stroke-linecap="butt" stroke-linejoin="miter" stroke-width="3.1469" vectornator:layerName="(oval)"/>
<g opacity="1" vectornator:layerName="Curve 1">
<path d="M32.875 40.0312C33.5948 42.4121 34.5064 44.7012 35.5938 46.9375C36.0565 47.8892 36.4732 48.7092 37.1875 49.5C41.2151 53.9587 46.9236 56.7225 53 56.2188C55.2778 56.0299 57.4977 55.4019 59.5938 54.5C60.8686 53.9515 62.2134 53.3131 63.3438 52.5C64.263 51.8388 65.0596 50.9631 65.8125 50.125C67.1955 48.5855 68.367 46.903 69.4688 45.1562C67.8909 46.3945 66.2758 47.5366 64.5312 48.5312C63.6198 49.0509 62.6335 49.4889 61.7188 50C60.3547 50.7622 59.0707 51.5213 57.5938 52.0625C53.6122 53.5216 49.1945 53.4526 45.3125 51.7188C43.6028 50.9551 41.9756 49.9483 40.5625 48.7188C39.9044 48.1461 39.3331 47.456 38.6875 46.875C37.9792 46.2376 37.2034 45.7165 36.5312 45.0312C35.0706 43.5422 33.9364 41.8171 32.875 40.0312Z" fill="#732828" stroke="none"/>
</g>
<g opacity="1">
<path d="M71.5312 37.5938C70.1249 39.6452 68.9074 41.7836 67.8438 44.0312C67.3911 44.9878 67.0134 45.8229 66.8438 46.875C65.8871 52.8068 67.3041 58.9824 71.5 63.4062C73.0729 65.0646 74.9535 66.3985 76.9688 67.4688C78.1944 68.1197 79.5334 68.7836 80.875 69.1562C81.966 69.4593 83.1251 69.5311 84.25 69.5938C86.3162 69.7088 88.3856 69.5464 90.4375 69.3125C88.4842 68.8569 86.5552 68.3319 84.6875 67.5938C83.7117 67.2081 82.7836 66.706 81.8125 66.3125C80.3643 65.7257 78.9403 65.2194 77.5938 64.4062C73.9639 62.2142 71.2649 58.7066 70.1875 54.5938C69.713 52.7823 69.488 50.8717 69.5625 49C69.5972 48.1283 69.7634 47.2734 69.8125 46.4062C69.8663 45.4549 69.8237 44.5468 69.9375 43.5938C70.1847 41.5226 70.8027 39.5393 71.5312 37.5938Z" fill="#732828" stroke="none"/>
</g>
<path d="M32.495 25.2521C36.5849 14.8138 48.3624 9.66737 58.8008 13.7573C69.2391 17.8472 74.3855 29.6247 70.2956 40.0631C66.2057 50.5015 54.4282 55.6479 43.9898 51.5579C33.5515 47.468 28.4051 35.6905 32.495 25.2521Z" fill="#ffffff" fill-rule="nonzero" opacity="1" stroke="#000000" stroke-linecap="butt" stroke-linejoin="miter" stroke-width="3.1469"/>
<path d="M70.5936 40.1822C74.6835 29.7439 86.461 24.5975 96.8994 28.6874C107.338 32.7774 112.484 44.5549 108.394 54.9932C104.304 65.4316 92.5267 70.578 82.0884 66.488C71.65 62.3981 66.5036 50.6206 70.5936 40.1822Z" fill="#ffffff" fill-rule="nonzero" opacity="1" stroke="#000000" stroke-linecap="butt" stroke-linejoin="miter" stroke-width="3.1469"/>
<path d="M25.0268 60.3596C25.0268 65.4407 23.8057 71.7923 27.5252 76.5378C28.7045 78.0424 31.2795 81.5701 32.6546 82.8671C43.4851 93.0821 59.326 100.327 69.9114 99.1592C72.7129 98.8501 74.95 95.5993 78.186 93.7989C81.5326 91.9369 85.8391 91.4696 86.2754 87.7689C87.1516 80.3373 77.8856 67.7839 63.489 62.0898C62.9809 61.8888 61.0936 65.6505 60.5592 65.4336C48.2377 60.4336 30.6992 47.6147 24.2653 52.4053C22.9986 53.3485 25.2311 55.824 24.6248 58.4472C22.5977 67.2165 24.0329 63.6119 23.5035 65.4632" fill="#ef3453" fill-rule="nonzero" opacity="1" stroke="none"/>
<g opacity="1">
<path d="M75.6562 83.4062C74.8507 85.0052 74.2685 86.9066 74.5312 88.7188C75.241 93.614 79.6056 97.6704 84.6562 97.1875C86.4307 97.0178 88.0695 95.9634 89.4688 94.9375C84.7784 96.4783 79.9226 96.2895 77.1562 91.6875C76.3877 90.4089 76.0208 89.0567 75.6562 87.625C75.281 86.151 75.2871 84.8828 75.6562 83.4062Z" fill="#98352d" stroke="none"/>
</g>
<path d="M25.9831 69.1796C23.8609 86.5595 60.3693 107.015 79.3295 93.0223" fill="none" opacity="1" stroke="#000000" stroke-linecap="round" stroke-linejoin="miter" stroke-width="3.1469"/>
<path d="M88.3485 93.7364C82.3945 97.1211 75.7579 91.6286 76.7467 85.1632" fill="none" opacity="1" stroke="#000000" stroke-linecap="round" stroke-linejoin="miter" stroke-width="3.1469"/>
<path d="M33.4384 66.7663C27.7435 71.5195 22.2538 66.8081 21.8952 63.0605" fill="none" opacity="0.825" stroke="#000000" stroke-linecap="round" stroke-linejoin="miter" stroke-width="3.1469"/>
<path d="M96.2495 52.6993C99.2777 45.8912 99.463 39.4082 95.9588 37.4839C92.7331 35.7126 88.2162 39.1084 86.0228 44.1494L88.3472 50.886L81.9731 52.109C78.8597 59.3273 78.2236 62.5741 81.3035 63.9827C85.7742 66.0274 93.2214 59.5074 96.2495 52.6993Z" fill="#000000" fill-rule="nonzero" opacity="1" stroke="none"/>
<path d="M58.2433 36.1838C60.9485 29.241 60.8292 22.7564 57.2386 20.9988C53.9333 19.3809 49.5808 22.985 47.6264 28.1234L50.2646 34.7434L43.9549 36.2643C41.1839 43.6209 40.7009 46.894 43.8435 48.1564C48.4053 49.989 55.5381 43.1265 58.2433 36.1838Z" fill="#000000" fill-rule="nonzero" opacity="1" stroke="none"/>
<g opacity="1">
<path d="M29.5 70.0625C29.8191 72.2229 30.2704 74.3474 30.9062 76.4375C31.1564 77.2597 31.3987 78.0542 31.8125 78.8125C34.4322 83.613 39.1202 86.8768 44 89.0625C46.8004 90.3168 49.7536 91.4134 52.6875 92.3125C53.6666 92.6126 54.7152 92.744 55.7188 92.9375C57.5134 93.2836 59.2957 93.6098 61.0938 93.9375C59.4417 93.1574 57.8135 92.3627 56.1562 91.5938C55.2325 91.1651 54.3011 90.6946 53.3438 90.3438C48.57 88.5941 43.732 86.992 39.5312 84.0312C37.7772 82.795 36.1414 81.317 34.8125 79.625C34.1918 78.8347 33.6796 77.9699 33.0938 77.1562C31.4964 74.9375 30.3895 72.6511 29.5 70.0625Z" fill="#732828" stroke="none"/>
</g>
<g opacity="1">
<path d="M31.5 42.7812C29.8556 43.7564 28.1523 44.7602 26.6875 46C25.6762 46.856 24.7912 47.8657 23.9375 48.875C20.7991 52.5852 18.3296 57.2789 17.7188 62.1562C17.4568 64.2478 17.6266 66.4671 17.75 68.5625C17.9406 66.431 18.3754 64.4489 18.875 62.375C19.7106 58.9064 20.7934 55.6628 22.7188 52.625C24.0802 50.4769 25.7318 48.6839 27.4688 46.8438C28.7764 45.4584 30.0976 44.0735 31.5 42.7812Z" fill="#ffaab4" stroke="none"/>
</g>
<g opacity="1">
<path d="M93.625 84.5625C93.705 85.9676 93.6966 87.3622 93.4375 88.75C91.5592 98.8102 81.6196 104.743 72.5 107.25C70.3707 107.835 68.2028 108.159 66 108.25C68.2144 108.279 70.416 108.069 72.5938 107.656C74.6151 107.273 76.5764 106.643 78.4688 105.844C84.7088 103.207 91.4141 98.0415 93.2812 91.2188C93.881 89.0273 93.9269 86.8028 93.625 84.5625Z" fill="#ffaab4" stroke="none"/>
</g>
</g>
</svg>
