<?xml version="1.0" encoding="UTF-8" standalone="no"?>
<!DOCTYPE svg PUBLIC "-//W3C//DTD SVG 1.1//EN" "http://www.w3.org/Graphics/SVG/1.1/DTD/svg11.dtd">
<!-- Created with Vectornator (http://vectornator.io/) -->
<svg height="100%" stroke-miterlimit="10" style="fill-rule:nonzero;clip-rule:evenodd;stroke-linecap:round;stroke-linejoin:round;" version="1.1" viewBox="0 0 123.245 123.436" width="100%" xml:space="preserve" xmlns="http://www.w3.org/2000/svg" xmlns:vectornator="http://vectornator.io" xmlns:xlink="http://www.w3.org/1999/xlink">
<defs/>
<g id="Mouth" vectornator:layerName="Mouth"/>
<g id="Layer-3" vectornator:layerName="Layer 3">
<g opacity="1">
<path d="M107.229 55.8652C101.246 35.0854 73.5215 28.2069 53.3878 36.0957C33.254 43.9844 22.0529 65.1185 26.4518 86.2904C31.9563 112.784 59.8086 111.06 59.8086 111.06L59.3964 72.704L107.685 73.2176C107.685 73.2176 111.78 71.6674 107.229 55.8652Z" fill="#c034d3" fill-rule="nonzero" opacity="1" stroke="#000000" stroke-linecap="butt" stroke-linejoin="miter" stroke-width="3.1469" vectornator:layerName="(oval)"/>
<g opacity="1">
<path d="M55.125 44.5625C55.1164 46.6398 55.0036 48.6947 54.5 50.7188C54.2683 51.6502 53.8496 52.4977 53.5625 53.4062C53.3008 54.2344 53.183 55.1102 52.9062 55.9375C52.312 57.7139 51.43 59.4122 50.3438 60.9375C47.8774 64.4007 44.0777 66.7069 39.9062 67.4688C38.3589 67.7514 36.8435 67.7463 35.2812 67.7812C34.2337 67.8047 33.2053 67.9231 32.1562 67.9375C30.1482 67.9651 28.1754 67.7982 26.1875 67.5312C28.3724 68.6581 30.5914 69.631 32.9688 70.2812C33.6477 70.467 34.4822 70.6851 35.1875 70.75C36.9036 70.9078 38.7451 70.7235 40.4375 70.4375C47.5611 69.2338 53.1493 64.6066 55.4375 57.7188C55.8361 56.5188 56.2837 55.2063 56.375 53.9375C56.4472 52.9345 56.2804 51.8414 56.1875 50.8438C55.9893 48.7156 55.6299 46.6384 55.125 44.5625Z" fill="#8b2d98" stroke="none"/>
</g>
<path d="M91.1715 25.2521C87.0815 14.8138 75.304 9.66737 64.8657 13.7573C54.4273 17.8472 49.2809 29.6247 53.3709 40.0631C57.4608 50.5015 69.2383 55.6479 79.6767 51.5579C90.115 47.468 95.2614 35.6905 91.1715 25.2521Z" fill="#ffffff" fill-rule="nonzero" opacity="1" stroke="#000000" stroke-linecap="butt" stroke-linejoin="miter" stroke-width="3.1469"/>
<path d="M53.0729 40.1822C48.983 29.7439 37.2055 24.5975 26.7671 28.6874C16.3288 32.7774 11.1824 44.5549 15.2723 54.9932C19.3622 65.4316 31.1397 70.578 41.5781 66.488C52.0164 62.3981 57.1628 50.6206 53.0729 40.1822Z" fill="#ffffff" fill-rule="nonzero" opacity="1" stroke="#000000" stroke-linecap="butt" stroke-linejoin="miter" stroke-width="3.1469"/>
<path d="M98.6397 60.3596C98.6397 65.4407 99.8607 71.7923 96.1413 76.5378C94.962 78.0424 92.387 81.5701 91.0118 82.8671C80.1813 93.0821 64.3405 100.327 53.7551 99.1592C50.9536 98.8501 48.7164 95.5993 45.4805 93.7989C42.1339 91.9369 37.8273 91.4696 37.391 87.7689C36.5149 80.3373 45.7809 67.7839 60.1774 62.0898C60.6856 61.8888 62.5728 65.6505 63.1073 65.4336C75.4287 60.4336 92.9673 47.6147 99.4011 52.4053C100.668 53.3485 98.4353 55.824 99.0417 58.4472C101.069 67.2165 99.6335 63.6119 100.163 65.4632" fill="#c034d3" fill-rule="nonzero" opacity="1" stroke="none"/>
<g opacity="1">
<path d="M46.9062 79.7188C47.7035 80.916 48.432 82.1913 48.6875 83.625C48.9437 85.0628 49.1051 86.4911 48.8125 87.9375C48.015 91.8792 44.7085 94.4564 41.1562 95.875C39.4573 96.5535 37.8508 97.1771 36.0312 97.4688C37.8494 97.6921 39.8513 97.772 41.625 97.2188C46.1786 95.7984 50.4634 91.6115 50.4062 86.5938C50.3979 85.8605 50.3739 85.0483 50.1562 84.3438C49.6128 82.5844 48.1797 80.9899 46.9062 79.7188Z" fill="#8b2d98" stroke="none"/>
</g>
<path d="M97.6833 69.1796C99.8056 86.5595 63.2971 107.015 44.337 93.0223" fill="none" opacity="1" stroke="#000000" stroke-linecap="round" stroke-linejoin="miter" stroke-width="3.1469"/>
<path d="M35.318 93.7364C41.272 97.1211 47.9086 91.6286 46.9198 85.1632" fill="none" opacity="1" stroke="#000000" stroke-linecap="round" stroke-linejoin="miter" stroke-width="3.1469"/>
<path d="M90.228 66.7663C95.9229 71.5195 101.413 66.8081 101.771 63.0605" fill="none" opacity="0.825" stroke="#000000" stroke-linecap="round" stroke-linejoin="miter" stroke-width="3.1469"/>
<path d="M27.4169 52.6993C24.3887 45.8912 24.2035 39.4082 27.7077 37.4839C30.9333 35.7126 35.4502 39.1084 37.6437 44.1494L35.3193 50.886L41.6934 52.109C44.8067 59.3273 45.4429 62.5741 42.3629 63.9827C37.8922 66.0274 30.4451 59.5074 27.4169 52.6993Z" fill="#000000" fill-rule="nonzero" opacity="1" stroke="none"/>
<path d="M65.4231 36.1838C62.7179 29.241 62.8372 22.7564 66.4279 20.9988C69.7332 19.3809 74.0857 22.985 76.04 28.1234L73.4019 34.7434L79.7116 36.2643C82.4826 43.6209 82.9656 46.894 79.8229 48.1564C75.2611 49.989 68.1284 43.1265 65.4231 36.1838Z" fill="#000000" fill-rule="nonzero" opacity="1" stroke="none"/>
<g opacity="1">
<path d="M94.1875 70.0625C93.586 71.8135 92.9089 73.5549 91.9688 75.1562C91.4219 76.0878 90.7178 76.8818 90.125 77.7812C88.4999 80.2469 86.5848 82.3196 84.1562 84.0312C79.9555 86.992 75.0862 88.5941 70.3125 90.3438C69.3551 90.6946 68.455 91.1651 67.5312 91.5938C65.874 92.3628 64.2145 93.1574 62.5625 93.9375C64.3606 93.6098 66.1741 93.2836 67.9688 92.9375C68.9723 92.744 69.9896 92.6126 70.9688 92.3125C74.4336 91.2507 77.9402 89.9262 81.1875 88.3125C85.4719 86.1834 89.5113 83.0866 91.8438 78.8125C92.3928 77.8064 92.687 76.6896 93 75.5938C93.5186 73.7779 93.912 71.9296 94.1875 70.0625Z" fill="#8b2d98" stroke="none"/>
</g>
<g opacity="1">
<path d="M92.1875 42.7812C93.5899 44.0735 94.8798 45.4584 96.1875 46.8438C97.9245 48.6839 99.576 50.4769 100.938 52.625C102.863 55.6628 103.977 58.9064 104.812 62.375C105.312 64.4489 105.716 66.431 105.906 68.5625C106.03 66.4672 106.199 64.2478 105.938 62.1562C105.27 56.8233 102.443 51.8234 98.875 47.9062C98.3404 47.3194 97.5744 46.5126 96.9688 46C95.5039 44.7602 93.8319 43.7564 92.1875 42.7812Z" fill="#f5aaff" stroke="none"/>
</g>
<g opacity="1">
<path d="M30.0312 84.5625C29.7293 86.8028 29.7753 89.0273 30.375 91.2188C32.3203 98.3272 39.4847 103.581 46.0312 106.156C47.6701 106.801 49.3295 107.328 51.0625 107.656C53.2402 108.069 55.4418 108.279 57.6562 108.25C54.8547 108.134 52.2107 107.587 49.5312 106.75C40.9729 104.078 32.014 98.1978 30.25 88.75C29.9909 87.3622 29.9512 85.9675 30.0312 84.5625Z" fill="#f5aaff" stroke="none"/>
</g>
</g>
</g>
</svg>
