<?xml version="1.0" encoding="UTF-8" standalone="no"?>
<!DOCTYPE svg PUBLIC "-//W3C//DTD SVG 1.1//EN" "http://www.w3.org/Graphics/SVG/1.1/DTD/svg11.dtd">
<!-- Created with Vectornator (http://vectornator.io/) -->
<svg height="100%" stroke-miterlimit="10" style="fill-rule:nonzero;clip-rule:evenodd;stroke-linecap:round;stroke-linejoin:round;" version="1.1" viewBox="0 0 206.613 189.728" width="100%" xml:space="preserve" xmlns="http://www.w3.org/2000/svg" xmlns:vectornator="http://vectornator.io" xmlns:xlink="http://www.w3.org/1999/xlink">
<defs/>
<g id="Mouth" vectornator:layerName="Mouth"/>
<clipPath id="ArtboardFrame">
<rect height="189.728" width="206.613" x="0" y="0"/>
</clipPath>
<g clip-path="url(#ArtboardFrame)" id="Layer-3" vectornator:layerName="Layer 3">
<g opacity="1">
<path d="M413.034 121.83C403.116 87.3852 357.16 75.9834 323.786 89.0597C290.413 102.136 271.846 137.168 279.137 172.262C288.262 216.177 334.429 213.32 334.429 213.32L333.746 149.741L413.788 150.593C413.788 150.593 420.576 148.023 413.034 121.83Z" fill="#c034d3" fill-rule="nonzero" opacity="1" stroke="#000000" stroke-linecap="butt" stroke-linejoin="miter" stroke-width="3.1469" vectornator:layerName="(oval)"/>
<path d="M386.416 71.0856C379.637 53.7831 360.114 45.2525 342.812 52.0319C325.509 58.8113 316.979 78.3336 323.758 95.6361C330.538 112.939 350.06 121.469 367.362 114.69C384.665 107.91 393.196 88.3881 386.416 71.0856Z" fill="#ffffff" fill-rule="nonzero" opacity="1" stroke="#000000" stroke-linecap="butt" stroke-linejoin="miter" stroke-width="3.1469"/>
<path d="M323.264 95.8336C316.485 78.5311 296.963 70.0005 279.66 76.7799C262.358 83.5593 253.827 103.082 260.606 120.384C267.386 137.687 286.908 146.217 304.211 139.438C321.513 132.658 330.044 113.136 323.264 95.8336Z" fill="#ffffff" fill-rule="nonzero" opacity="1" stroke="#000000" stroke-linecap="butt" stroke-linejoin="miter" stroke-width="3.1469"/>
<path d="M380.042 80.9985C376.12 70.9892 364.827 66.0544 354.818 69.9762C344.808 73.898 339.874 85.1914 343.795 95.2007C347.717 105.21 359.011 110.145 369.02 106.223C379.029 102.301 383.964 91.0078 380.042 80.9985Z" fill="#000000" fill-rule="nonzero" opacity="1" stroke="none"/>
<path d="M312.291 108.634C308.37 98.6247 297.076 93.6898 287.067 97.6116C277.058 101.533 272.123 112.827 276.045 122.836C279.966 132.845 291.26 137.78 301.269 133.858C311.278 129.937 316.213 118.643 312.291 108.634Z" fill="#000000" fill-rule="nonzero" opacity="1" stroke="none"/>
<path d="M398.795 129.279C398.795 137.702 402.129 145.303 395.964 153.169C394.009 155.663 391.535 164.759 389.256 166.909C371.303 183.841 347.731 193.27 323.339 190.702C318.693 190.213 316.043 187.692 310.679 184.708C305.132 181.622 297.993 180.847 297.27 174.713C295.818 162.394 311.177 141.586 335.041 132.147C355.301 124.134 388.93 107.809 400.058 116.094C402.157 117.658 398.457 121.761 399.462 126.109C402.822 140.645 400.443 134.67 401.32 137.739" fill="#c034d3" fill-rule="nonzero" opacity="1" stroke="none"/>
<path d="M397.21 143.899C400.728 172.708 340.212 206.615 308.784 183.421" fill="none" opacity="1" stroke="#000000" stroke-linecap="round" stroke-linejoin="miter" stroke-width="3.1469"/>
<path d="M294.875 182.167C304.745 187.777 315.745 178.673 314.106 167.956" fill="none" opacity="1" stroke="#000000" stroke-linecap="round" stroke-linejoin="miter" stroke-width="3.1469"/>
<path d="M384.852 139.497C395.261 146.86 405.294 139.562 405.949 133.756" fill="none" opacity="0.825" stroke="#000000" stroke-linecap="round" stroke-linejoin="miter" stroke-width="3.1469"/>
</g>
<path d="M27.7107 85.163C37.6283 50.7195 83.583 39.318 116.955 52.394C150.328 65.47 168.894 100.501 161.603 135.594C152.479 179.508 106.313 176.651 106.313 176.651L106.996 113.074L26.9564 113.925C26.9564 113.925 20.1688 111.356 27.7107 85.163Z" fill="#00ccff" fill-rule="nonzero" opacity="1" stroke="#000000" stroke-linecap="butt" stroke-linejoin="miter" stroke-width="3.1469" vectornator:layerName="(oval)"/>
<path d="M54.3275 34.4204C61.1067 17.1183 80.6284 8.58787 97.9304 15.3671C115.232 22.1464 123.763 41.6682 116.983 58.9702C110.204 76.2723 90.6826 84.8027 73.3806 78.0235C56.0786 71.2442 47.5482 51.7224 54.3275 34.4204Z" fill="#ffffff" fill-rule="nonzero" opacity="1" stroke="#000000" stroke-linecap="butt" stroke-linejoin="miter" stroke-width="3.1469"/>
<path d="M117.477 59.1677C124.257 41.8657 143.778 33.3352 161.08 40.1145C178.382 46.8938 186.913 66.4155 180.133 83.7176C173.354 101.02 153.832 109.55 136.53 102.771C119.229 95.9916 110.698 76.4698 117.477 59.1677Z" fill="#ffffff" fill-rule="nonzero" opacity="1" stroke="#000000" stroke-linecap="butt" stroke-linejoin="miter" stroke-width="3.1469"/>
<path d="M60.7012 44.333C64.6229 34.324 75.916 29.3892 85.9249 33.311C95.9339 37.2327 100.869 48.5258 96.9469 58.5348C93.0252 68.5438 81.7322 73.4786 71.7232 69.5569C61.7142 65.6351 56.7795 54.342 60.7012 44.333Z" fill="#000000" fill-rule="nonzero" opacity="1" stroke="none"/>
<path d="M128.45 71.9677C132.372 61.9587 143.665 57.0239 153.674 60.9457C163.683 64.8674 168.617 76.1605 164.696 86.1695C160.774 96.1786 149.481 101.113 139.472 97.1916C129.463 93.2699 124.528 81.9768 128.45 71.9677Z" fill="#000000" fill-rule="nonzero" opacity="1" stroke="none"/>
<path d="M41.9486 92.6127C41.9486 101.035 45.1578 118.645 45.1578 118.645C45.1578 118.645 50.5913 128.44 52.8707 130.589C70.8227 147.521 93.1757 157.824 117.463 153.656C122.068 152.866 124.698 151.024 130.062 148.04C135.609 144.954 142.747 144.179 143.471 138.045C144.923 125.727 129.564 104.919 105.701 95.4805C85.4417 87.4674 51.8135 71.143 40.6865 79.428C38.5868 80.9915 42.2873 85.0947 41.2822 89.4427C37.9222 103.978 40.3013 98.0035 39.4237 101.072" fill="#00ccff" fill-rule="nonzero" opacity="1" stroke="none"/>
<path d="M43.5338 107.232C40.0161 136.04 100.53 169.946 131.958 146.753" fill="none" opacity="1" stroke="#000000" stroke-linecap="round" stroke-linejoin="miter" stroke-width="3.1469"/>
<path d="M145.866 145.498C135.997 151.109 124.996 142.005 126.635 131.288" fill="none" opacity="1" stroke="#000000" stroke-linecap="round" stroke-linejoin="miter" stroke-width="3.1469"/>
<path d="M55.8912 102.83C45.4833 110.192 35.4502 102.894 34.7948 97.0895" fill="none" opacity="0.825" stroke="#000000" stroke-linecap="round" stroke-linejoin="miter" stroke-width="3.1469"/>
</g>
</svg>
