<?xml version="1.0" encoding="UTF-8" standalone="no"?>
<!DOCTYPE svg PUBLIC "-//W3C//DTD SVG 1.1//EN" "http://www.w3.org/Graphics/SVG/1.1/DTD/svg11.dtd">
<!-- Created with Vectornator (http://vectornator.io/) -->
<svg height="100%" stroke-miterlimit="10" style="fill-rule:nonzero;clip-rule:evenodd;stroke-linecap:round;stroke-linejoin:round;" version="1.1" viewBox="0 0 206.613 189.728" width="100%" xml:space="preserve" xmlns="http://www.w3.org/2000/svg" xmlns:vectornator="http://vectornator.io" xmlns:xlink="http://www.w3.org/1999/xlink">
<defs/>
<g id="Mouth" vectornator:layerName="Mouth"/>
<clipPath id="ArtboardFrame">
<rect height="189.728" width="206.613" x="0" y="0"/>
</clipPath>
<g clip-path="url(#ArtboardFrame)" id="Layer-3" vectornator:layerName="Layer 3">
<g opacity="1">
<path d="M178.904 85.1628C168.986 50.7184 123.03 39.3166 89.6568 52.3929C56.2834 65.4693 37.7165 100.501 45.0081 135.595C54.1323 179.51 100.3 176.653 100.3 176.653L99.6167 113.075L179.659 113.926C179.659 113.926 186.446 111.356 178.904 85.1628Z" fill="#c034d3" fill-rule="nonzero" opacity="1" stroke="#000000" stroke-linecap="butt" stroke-linejoin="miter" stroke-width="3.1469" vectornator:layerName="(oval)"/>
<path d="M152.287 34.4188C145.507 17.1163 125.985 8.58564 108.683 15.3651C91.38 22.1445 82.8493 41.6668 89.6288 58.9693C96.4082 76.2718 115.931 84.8025 133.233 78.023C150.536 71.2436 159.066 51.7213 152.287 34.4188Z" fill="#ffffff" fill-rule="nonzero" opacity="1" stroke="#000000" stroke-linecap="butt" stroke-linejoin="miter" stroke-width="3.1469"/>
<path d="M89.1349 59.1668C82.3555 41.8643 62.8332 33.3337 45.5307 40.1131C28.2282 46.8925 19.6975 66.4148 26.477 83.7173C33.2564 101.02 52.7787 109.55 70.0812 102.771C87.3837 95.9916 95.9143 76.4693 89.1349 59.1668Z" fill="#ffffff" fill-rule="nonzero" opacity="1" stroke="#000000" stroke-linecap="butt" stroke-linejoin="miter" stroke-width="3.1469"/>
<path d="M145.913 44.3317C141.991 34.3224 130.698 29.3875 120.688 33.3094C110.679 37.2312 105.744 48.5246 109.666 58.5339C113.588 68.5432 124.881 73.478 134.89 69.5562C144.9 65.6344 149.835 54.341 145.913 44.3317Z" fill="#000000" fill-rule="nonzero" opacity="1" stroke="none"/>
<path d="M78.162 71.9671C74.2402 61.9578 62.9468 57.023 52.9375 60.9448C42.9282 64.8666 37.9933 76.16 41.9151 86.1693C45.837 96.1786 57.1304 101.113 67.1397 97.1916C77.1489 93.2698 82.0838 81.9764 78.162 71.9671Z" fill="#000000" fill-rule="nonzero" opacity="1" stroke="none"/>
<path d="M164.666 92.6126C164.666 101.035 168 108.636 161.834 116.502C159.879 118.997 157.406 128.092 155.126 130.242C137.174 147.174 113.601 156.603 89.21 154.035C84.5638 153.546 81.9137 151.026 76.5498 148.041C71.0025 144.955 63.864 144.18 63.1408 138.046C61.6884 125.727 77.0477 104.919 100.911 95.4805C121.172 87.4672 154.801 71.1424 165.928 79.4277C168.028 80.9911 164.327 85.0944 165.332 89.4426C168.692 103.978 166.313 98.0036 167.191 101.072" fill="#c034d3" fill-rule="nonzero" opacity="1" stroke="none"/>
<path d="M163.081 107.233C166.599 136.041 106.082 169.948 74.6543 146.754" fill="none" opacity="1" stroke="#000000" stroke-linecap="round" stroke-linejoin="miter" stroke-width="3.1469"/>
<path d="M60.7458 145.5C70.6151 151.11 81.6158 142.006 79.9768 131.289" fill="none" opacity="1" stroke="#000000" stroke-linecap="round" stroke-linejoin="miter" stroke-width="3.1469"/>
<path d="M150.723 102.83C161.131 110.193 171.165 102.895 171.82 97.0896" fill="none" opacity="0.825" stroke="#000000" stroke-linecap="round" stroke-linejoin="miter" stroke-width="3.1469"/>
</g>
<g opacity="1">
<path d="M226.776 51.9152C231.076 36.9821 251 32.0389 265.469 37.7081C279.938 43.3772 287.987 58.5649 284.826 73.7797C280.87 92.8187 260.855 91.5802 260.855 91.5802L261.151 64.0161L226.449 64.3852C226.449 64.3852 223.507 63.2712 226.776 51.9152Z" fill="#00ccff" fill-rule="nonzero" opacity="1" stroke="#000000" stroke-linecap="butt" stroke-linejoin="miter" stroke-width="3.1469" vectornator:layerName="(oval)"/>
<path d="M238.316 29.9155C241.255 22.4142 249.719 18.7158 257.221 21.655C264.722 24.5941 268.42 33.0578 265.481 40.5592C262.542 48.0606 254.078 51.759 246.577 48.8198C239.075 45.8806 235.377 37.4169 238.316 29.9155Z" fill="#ffffff" fill-rule="nonzero" opacity="1" stroke="#000000" stroke-linecap="butt" stroke-linejoin="miter" stroke-width="3.1469"/>
<path d="M265.695 40.6448C268.634 33.1435 277.098 29.4451 284.599 32.3842C292.101 35.3234 295.799 43.7871 292.86 51.2885C289.921 58.7899 281.457 62.4883 273.956 59.5491C266.454 56.6099 262.756 48.1462 265.695 40.6448Z" fill="#ffffff" fill-rule="nonzero" opacity="1" stroke="#000000" stroke-linecap="butt" stroke-linejoin="miter" stroke-width="3.1469"/>
<path d="M241.08 34.2132C242.78 29.8737 247.676 27.7343 252.016 29.4346C256.355 31.1348 258.494 36.031 256.794 40.3704C255.094 44.7099 250.198 46.8493 245.858 45.1491C241.519 43.4488 239.379 38.5526 241.08 34.2132Z" fill="#000000" fill-rule="nonzero" opacity="1" stroke="none"/>
<path d="M270.452 46.1943C272.153 41.8549 277.049 39.7154 281.388 41.4157C285.728 43.1159 287.867 48.0121 286.167 52.3515C284.467 56.691 279.571 58.8305 275.231 57.1302C270.892 55.4299 268.752 50.5338 270.452 46.1943Z" fill="#000000" fill-rule="nonzero" opacity="1" stroke="none"/>
<path d="M232.949 55.145C232.949 58.7964 233.105 62.6721 235.778 66.0823C236.626 67.1636 237.443 70.3876 238.431 71.3197C246.214 78.6605 257.598 83.8671 265.205 83.0277C267.218 82.8056 268.826 80.4695 271.151 79.1756C273.556 77.8375 276.651 77.5017 276.965 74.8422C277.594 69.5016 270.936 60.4804 260.59 56.3883C251.806 52.9142 237.226 45.8368 232.402 49.4288C231.492 50.1066 233.096 51.8855 232.66 53.7706C231.204 60.0726 232.235 57.4822 231.855 58.8126" fill="#00ccff" fill-rule="nonzero" opacity="1" stroke="none"/>
<path d="M233.637 61.4833C232.112 73.9732 258.348 88.6733 271.973 78.6176" fill="none" opacity="1" stroke="#000000" stroke-linecap="round" stroke-linejoin="miter" stroke-width="3.1469"/>
<path d="M278.003 78.0737C273.724 80.5061 268.955 76.559 269.666 71.9128" fill="none" opacity="1" stroke="#000000" stroke-linecap="round" stroke-linejoin="miter" stroke-width="3.1469"/>
<path d="M238.994 59.5747C234.482 62.7667 230.132 59.6027 229.848 57.0859" fill="none" opacity="0.825" stroke="#000000" stroke-linecap="round" stroke-linejoin="miter" stroke-width="3.1469"/>
</g>
</g>
</svg>
