<?xml version="1.0" encoding="UTF-8" standalone="no"?>
<!DOCTYPE svg PUBLIC "-//W3C//DTD SVG 1.1//EN" "http://www.w3.org/Graphics/SVG/1.1/DTD/svg11.dtd">
<!-- Created with Vectornator (http://vectornator.io/) -->
<svg height="100%" stroke-miterlimit="10" style="fill-rule:nonzero;clip-rule:evenodd;stroke-linecap:round;stroke-linejoin:round;" version="1.1" viewBox="0 0 236.264 97.0862" width="100%" xml:space="preserve" xmlns="http://www.w3.org/2000/svg" xmlns:vectornator="http://vectornator.io" xmlns:xlink="http://www.w3.org/1999/xlink">
<defs>
<path d="M208.22 47.1922C208.423 48.052 208.444 48.0346 208.444 48.9427C208.444 63.7286 196.458 75.7149 181.672 75.7149C166.886 75.7149 154.9 63.7286 154.9 48.9427C154.9 34.1568 166.886 22.1705 181.672 22.1705C185.523 22.1705 188.934 22.3577 192.244 23.8219" id="Fill"/>
</defs>
<g id="Layer-3" vectornator:layerName="Layer 3"/>
<g id="Layer-1" vectornator:layerName="Layer 1">
<g opacity="1">
<g opacity="1">
<path d="M184.987 41.4333C184.987 41.4333 184.267 42.7372 183.903 43.546C183.606 44.2071 183.688 45.4489 184.463 44.6123C185.279 43.732 185.199 45.619 186.35 44.7466C187.378 43.9682 187.659 46.0018 188.028 44.5692C188.311 43.4732 187.298 41.6473 187.298 41.6473" fill="#b9a0ff" fill-rule="nonzero" opacity="1" stroke="#000000" stroke-linecap="butt" stroke-linejoin="miter" stroke-width="0.674752"/>
<path d="M187.981 37.2212C187.981 37.2212 188.702 35.9173 189.065 35.1085C189.362 34.4474 189.281 33.2056 188.505 34.0422C187.689 34.9225 187.77 33.0355 186.618 33.9079C185.59 34.6863 185.31 32.6527 184.94 34.0853C184.658 35.1813 185.67 37.0071 185.67 37.0071" fill="#b9a0ff" fill-rule="nonzero" opacity="1" stroke="#000000" stroke-linecap="butt" stroke-linejoin="miter" stroke-width="0.674752"/>
<path d="M184.528 41.0796C183.436 40.1581 183.357 38.565 184.353 37.5212C185.349 36.4774 187.041 36.3783 188.134 37.2998C189.226 38.2212 189.304 39.8144 188.308 40.8581C187.312 41.9019 185.62 42.001 184.528 41.0796Z" fill="#b9a0ff" fill-rule="nonzero" opacity="1" stroke="#000000" stroke-linecap="butt" stroke-linejoin="miter" stroke-width="0.674752"/>
</g>
<g opacity="1">
<path d="M199.09 21.446C199.09 21.446 198.37 22.7499 198.007 23.5587C197.71 24.2198 197.791 25.4616 198.566 24.625C199.382 23.7447 199.302 25.6317 200.454 24.7593C201.481 23.9809 201.762 26.0145 202.132 24.5819C202.414 23.4859 201.401 21.6601 201.401 21.6601" fill="#b9a0ff" fill-rule="nonzero" opacity="1" stroke="#000000" stroke-linecap="butt" stroke-linejoin="miter" stroke-width="0.674752"/>
<path d="M202.085 17.2339C202.085 17.2339 202.805 15.93 203.168 15.1212C203.466 14.4601 203.384 13.2183 202.609 14.055C201.793 14.9352 201.873 13.0482 200.721 13.9207C199.694 14.6991 199.413 12.6655 199.044 14.098C198.761 15.194 199.774 17.0199 199.774 17.0199" fill="#b9a0ff" fill-rule="nonzero" opacity="1" stroke="#000000" stroke-linecap="butt" stroke-linejoin="miter" stroke-width="0.674752"/>
<path d="M198.631 21.0923C197.539 20.1709 197.461 18.5777 198.456 17.534C199.452 16.4902 201.145 16.391 202.237 17.3125C203.329 18.234 203.407 19.8271 202.411 20.8709C201.416 21.9146 199.723 22.0138 198.631 21.0923Z" fill="#b9a0ff" fill-rule="nonzero" opacity="1" stroke="#000000" stroke-linecap="butt" stroke-linejoin="miter" stroke-width="0.674752"/>
</g>
<g opacity="1">
<path d="M196.649 43.5487C196.649 43.5487 195.929 44.8526 195.565 45.6614C195.268 46.3225 195.35 47.5643 196.125 46.7277C196.941 45.8474 196.861 47.7344 198.012 46.862C199.04 46.0836 199.321 48.1172 199.69 46.6846C199.973 45.5886 198.96 43.7628 198.96 43.7628" fill="#b9a0ff" fill-rule="nonzero" opacity="1" stroke="#000000" stroke-linecap="butt" stroke-linejoin="miter" stroke-width="0.674752"/>
<path d="M199.643 39.3366C199.643 39.3366 200.363 38.0327 200.727 37.2239C201.024 36.5628 200.943 35.321 200.167 36.1577C199.351 37.0379 199.432 35.1509 198.28 36.0234C197.252 36.8018 196.971 34.7682 196.602 36.2007C196.32 37.2967 197.332 39.1226 197.332 39.1226" fill="#b9a0ff" fill-rule="nonzero" opacity="1" stroke="#000000" stroke-linecap="butt" stroke-linejoin="miter" stroke-width="0.674752"/>
<path d="M196.19 43.195C195.097 42.2735 195.019 40.6804 196.015 39.6366C197.011 38.5929 198.703 38.4937 199.795 39.4152C200.888 40.3367 200.966 41.9298 199.97 42.9736C198.974 44.0173 197.282 44.1165 196.19 43.195Z" fill="#b9a0ff" fill-rule="nonzero" opacity="1" stroke="#000000" stroke-linecap="butt" stroke-linejoin="miter" stroke-width="0.674752"/>
</g>
<g opacity="1">
<path d="M213.315 23.6959C213.315 23.6959 211.859 23.2169 210.966 22.9974C210.236 22.8179 208.939 23.0782 209.909 23.6783C210.931 24.3098 208.936 24.5146 209.988 25.4608C210.927 26.305 208.82 26.8691 210.37 27.0014C211.556 27.1027 213.36 25.886 213.36 25.886" fill="#b9a0ff" fill-rule="nonzero" opacity="1" stroke="#000000" stroke-linecap="butt" stroke-linejoin="miter" stroke-width="0.674752"/>
<path d="M218.097 25.8676C218.097 25.8676 219.553 26.3466 220.446 26.5662C221.176 26.7456 222.474 26.4853 221.503 25.8852C220.481 25.2537 222.476 25.0489 221.424 24.1027C220.485 23.2586 222.592 22.6945 221.042 22.5621C219.856 22.4608 218.052 23.6775 218.052 23.6775" fill="#b9a0ff" fill-rule="nonzero" opacity="1" stroke="#000000" stroke-linecap="butt" stroke-linejoin="miter" stroke-width="0.674752"/>
<path d="M213.634 23.2145C214.476 22.0578 216.144 21.7485 217.358 22.5236C218.572 23.2987 218.874 24.8646 218.032 26.0213C217.189 27.1779 215.522 27.4872 214.308 26.7121C213.093 25.9371 212.792 24.3711 213.634 23.2145Z" fill="#b9a0ff" fill-rule="nonzero" opacity="1" stroke="#000000" stroke-linecap="butt" stroke-linejoin="miter" stroke-width="0.674752"/>
</g>
<g opacity="1">
<path d="M197.372 50.9161C197.372 50.9161 196.314 51.9004 195.733 52.5342C195.258 53.0522 194.94 54.2039 195.901 53.6599C196.912 53.0875 196.246 54.7805 197.557 54.309C198.726 53.8883 198.339 55.8155 199.122 54.6162C199.721 53.6988 199.384 51.7561 199.384 51.7561" fill="#a0ffa1" fill-rule="nonzero" opacity="1" stroke="#000000" stroke-linecap="butt" stroke-linejoin="miter" stroke-width="0.674752"/>
<path d="M201.392 47.9231C201.392 47.9231 202.45 46.9387 203.031 46.305C203.506 45.787 203.824 44.6353 202.863 45.1793C201.852 45.7517 202.518 44.0587 201.207 44.5302C200.038 44.9509 200.425 43.0237 199.642 44.223C199.043 45.1404 199.38 47.0831 199.38 47.0831" fill="#a0ffa1" fill-rule="nonzero" opacity="1" stroke="#000000" stroke-linecap="butt" stroke-linejoin="miter" stroke-width="0.674752"/>
<path d="M197.071 50.4663C196.378 49.3236 196.809 47.8535 198.033 47.1826C199.257 46.5118 200.811 46.8943 201.504 48.0369C202.196 49.1796 201.765 50.6498 200.541 51.3206C199.317 51.9915 197.763 51.609 197.071 50.4663Z" fill="#a0ffa1" fill-rule="nonzero" opacity="1" stroke="#000000" stroke-linecap="butt" stroke-linejoin="miter" stroke-width="0.674752"/>
</g>
<g opacity="1">
<path d="M218.062 18.2637C218.062 18.2637 216.752 18.9213 216.003 19.372C215.391 19.7403 214.734 20.7612 215.817 20.5005C216.956 20.2261 215.8 21.6724 217.194 21.5769C218.437 21.4916 217.475 23.2394 218.59 22.2999C219.443 21.5811 219.72 19.6209 219.72 19.6209" fill="#a0ffa1" fill-rule="nonzero" opacity="1" stroke="#000000" stroke-linecap="butt" stroke-linejoin="miter" stroke-width="0.674752"/>
<path d="M222.811 16.4829C222.811 16.4829 224.122 15.8252 224.871 15.3746C225.483 15.0062 226.14 13.9854 225.057 14.2461C223.918 14.5205 225.073 13.0742 223.68 13.1697C222.437 13.2549 223.399 11.5072 222.284 12.4467C221.431 13.1654 221.154 15.1257 221.154 15.1257" fill="#a0ffa1" fill-rule="nonzero" opacity="1" stroke="#000000" stroke-linecap="butt" stroke-linejoin="miter" stroke-width="0.674752"/>
<path d="M217.913 17.7486C217.605 16.4605 218.468 15.1644 219.84 14.8536C221.213 14.5428 222.575 15.335 222.883 16.6231C223.191 17.9111 222.328 19.2073 220.956 19.5181C219.583 19.8289 218.221 19.0367 217.913 17.7486Z" fill="#a0ffa1" fill-rule="nonzero" opacity="1" stroke="#000000" stroke-linecap="butt" stroke-linejoin="miter" stroke-width="0.674752"/>
</g>
<g opacity="1">
<path d="M180.97 47.1795C180.97 47.1795 179.591 46.7076 178.744 46.4887C178.051 46.3099 176.814 46.5433 177.73 47.1252C178.694 47.7375 176.793 47.9105 177.783 48.8227C178.665 49.6365 176.654 50.1501 178.127 50.2932C179.254 50.4027 180.985 49.2646 180.985 49.2646" fill="#a0ffa1" fill-rule="nonzero" opacity="1" stroke="#000000" stroke-linecap="butt" stroke-linejoin="miter" stroke-width="0.674752"/>
<path d="M185.492 49.2992C185.492 49.2992 186.872 49.7712 187.719 49.99C188.411 50.1689 189.649 49.9354 188.733 49.3535C187.769 48.7412 189.669 48.5682 188.68 47.6561C187.797 46.8423 189.809 46.3286 188.335 46.1855C187.208 46.0761 185.477 47.2142 185.477 47.2142" fill="#a0ffa1" fill-rule="nonzero" opacity="1" stroke="#000000" stroke-linecap="butt" stroke-linejoin="miter" stroke-width="0.674752"/>
<path d="M181.279 46.7248C182.095 45.6332 183.685 45.3572 184.831 46.1083C185.977 46.8594 186.244 48.3532 185.429 49.4448C184.613 50.5364 183.023 50.8124 181.877 50.0613C180.731 49.3102 180.464 47.8164 181.279 46.7248Z" fill="#a0ffa1" fill-rule="nonzero" opacity="1" stroke="#000000" stroke-linecap="butt" stroke-linejoin="miter" stroke-width="0.674752"/>
</g>
<g opacity="1">
<path d="M192.982 39.4056C192.982 39.4056 193.184 40.7341 193.372 41.5159C193.526 42.155 194.298 43.0306 194.405 42.019C194.518 40.9546 195.537 42.3889 195.908 41.1598C196.239 40.0632 197.615 41.4222 197.075 40.1768C196.661 39.224 194.851 38.39 194.851 38.39" fill="#a0c3ff" fill-rule="nonzero" opacity="1" stroke="#000000" stroke-linecap="butt" stroke-linejoin="miter" stroke-width="0.674752"/>
<path d="M192.835 34.7747C192.835 34.7747 192.633 33.4462 192.445 32.6644C192.291 32.0253 191.519 31.1497 191.412 32.1613C191.299 33.2256 190.28 31.7914 189.909 33.0205C189.578 34.1171 188.202 32.7581 188.743 34.0035C189.156 34.9563 190.966 35.7902 190.966 35.7902" fill="#a0c3ff" fill-rule="nonzero" opacity="1" stroke="#000000" stroke-linecap="butt" stroke-linejoin="miter" stroke-width="0.674752"/>
<path d="M192.433 39.3777C191.08 39.2518 190.109 38.1151 190.265 36.8387C190.42 35.5623 191.642 34.6296 192.995 34.7555C194.347 34.8813 195.318 36.0181 195.163 37.2944C195.007 38.5708 193.785 39.5035 192.433 39.3777Z" fill="#a0c3ff" fill-rule="nonzero" opacity="1" stroke="#000000" stroke-linecap="butt" stroke-linejoin="miter" stroke-width="0.674752"/>
</g>
<g opacity="1">
<path d="M211.144 19.6375C211.144 19.6375 212.568 19.5226 213.413 19.39C214.103 19.2816 215.098 18.6054 214.037 18.4475C212.92 18.2814 214.528 17.4047 213.26 16.9866C212.128 16.6136 213.688 15.3972 212.322 15.835C211.276 16.17 210.234 17.8239 210.234 17.8239" fill="#a0c3ff" fill-rule="nonzero" opacity="1" stroke="#000000" stroke-linecap="butt" stroke-linejoin="miter" stroke-width="0.674752"/>
<path d="M206.227 19.5147C206.227 19.5147 204.803 19.6295 203.959 19.7622C203.268 19.8705 202.273 20.5467 203.335 20.7046C204.452 20.8708 202.843 21.7475 204.112 22.1655C205.243 22.5385 203.683 23.7549 205.049 23.3171C206.095 22.9822 207.138 21.3283 207.138 21.3283" fill="#a0c3ff" fill-rule="nonzero" opacity="1" stroke="#000000" stroke-linecap="butt" stroke-linejoin="miter" stroke-width="0.674752"/>
<path d="M211.066 20.1523C210.813 21.4162 209.524 22.2642 208.186 22.0464C206.848 21.8285 205.968 20.6273 206.221 19.3634C206.474 18.0994 207.763 17.2514 209.101 17.4693C210.439 17.6871 211.318 18.8884 211.066 20.1523Z" fill="#a0c3ff" fill-rule="nonzero" opacity="1" stroke="#000000" stroke-linecap="butt" stroke-linejoin="miter" stroke-width="0.674752"/>
</g>
<g opacity="1">
<path d="M213.732 31.4918C213.732 31.4918 215.157 31.377 216.001 31.2443C216.691 31.1359 217.687 30.4598 216.625 30.3019C215.508 30.1357 217.117 29.259 215.848 28.8409C214.716 28.4679 216.277 27.2516 214.91 27.6894C213.865 28.0243 212.822 29.6782 212.822 29.6782" fill="#a0c3ff" fill-rule="nonzero" opacity="1" stroke="#000000" stroke-linecap="butt" stroke-linejoin="miter" stroke-width="0.674752"/>
<path d="M208.816 31.369C208.816 31.369 207.392 31.4839 206.547 31.6165C205.857 31.7249 204.862 32.4011 205.923 32.559C207.04 32.7251 205.432 33.6018 206.7 34.0199C207.832 34.3929 206.271 35.6093 207.638 35.1714C208.683 34.8365 209.726 33.1826 209.726 33.1826" fill="#a0c3ff" fill-rule="nonzero" opacity="1" stroke="#000000" stroke-linecap="butt" stroke-linejoin="miter" stroke-width="0.674752"/>
<path d="M213.654 32.0066C213.401 33.2706 212.112 34.1186 210.774 33.9007C209.437 33.6829 208.557 32.4816 208.81 31.2177C209.062 29.9538 210.352 29.1058 211.69 29.3236C213.027 29.5415 213.907 30.7427 213.654 32.0066Z" fill="#a0c3ff" fill-rule="nonzero" opacity="1" stroke="#000000" stroke-linecap="butt" stroke-linejoin="miter" stroke-width="0.674752"/>
</g>
<g opacity="1">
<path d="M198.25 30.8861C198.25 30.8861 197.252 29.8345 196.604 29.2534C196.073 28.7783 194.845 28.434 195.372 29.3773C195.925 30.3698 194.133 29.6717 194.558 30.9491C194.936 32.0889 192.872 31.6514 194.12 32.4455C195.076 33.053 197.205 32.7944 197.205 32.7944" fill="#fffaa0" fill-rule="nonzero" opacity="1" stroke="#000000" stroke-linecap="butt" stroke-linejoin="miter" stroke-width="0.674752"/>
<path d="M201.229 34.8556C201.229 34.8556 202.226 35.9072 202.875 36.4884C203.406 36.9634 204.634 37.3077 204.107 36.3644C203.554 35.3719 205.346 36.07 204.921 34.7926C204.543 33.6528 206.607 34.0903 205.358 33.2962C204.403 32.6887 202.274 32.9473 202.274 32.9473" fill="#fffaa0" fill-rule="nonzero" opacity="1" stroke="#000000" stroke-linecap="butt" stroke-linejoin="miter" stroke-width="0.674752"/>
<path d="M198.758 30.6105C200.043 29.9823 201.609 30.4467 202.255 31.6476C202.902 32.8486 202.384 34.3315 201.098 34.9597C199.813 35.5879 198.247 35.1236 197.601 33.9226C196.954 32.7216 197.472 31.2388 198.758 30.6105Z" fill="#fffaa0" fill-rule="nonzero" opacity="1" stroke="#000000" stroke-linecap="butt" stroke-linejoin="miter" stroke-width="0.674752"/>
</g>
<g opacity="1">
<path d="M218.577 6.80416C218.577 6.80416 217.127 7.21984 216.283 7.5327C215.592 7.78842 214.72 8.69249 215.857 8.63346C217.055 8.57135 215.593 9.80991 217.007 9.97556C218.268 10.1233 216.936 11.7016 218.25 10.9656C219.255 10.4024 219.947 8.48162 219.947 8.48162" fill="#fffaa0" fill-rule="nonzero" opacity="1" stroke="#000000" stroke-linecap="butt" stroke-linejoin="miter" stroke-width="0.674752"/>
<path d="M223.703 5.9042C223.703 5.9042 225.153 5.48852 225.997 5.17566C226.687 4.91993 227.56 4.01586 226.422 4.0749C225.225 4.13701 226.687 2.89844 225.273 2.7328C224.012 2.58501 225.344 1.00671 224.03 1.7428C223.025 2.30594 222.333 4.22673 222.333 4.22673" fill="#fffaa0" fill-rule="nonzero" opacity="1" stroke="#000000" stroke-linecap="butt" stroke-linejoin="miter" stroke-width="0.674752"/>
<path d="M218.537 6.25774C218.501 4.90349 219.639 3.76109 221.077 3.70613C222.515 3.65117 223.71 4.70445 223.745 6.05871C223.78 7.41296 222.643 8.55536 221.205 8.61032C219.767 8.66528 218.572 7.612 218.537 6.25774Z" fill="#fffaa0" fill-rule="nonzero" opacity="1" stroke="#000000" stroke-linecap="butt" stroke-linejoin="miter" stroke-width="0.674752"/>
</g>
<g opacity="1">
<path d="M192.587 28.8139C192.587 28.8139 191.225 29.3002 190.437 29.651C189.793 29.9378 189.019 30.856 190.105 30.73C191.249 30.5974 189.933 31.8716 191.3 31.9436C192.519 32.0079 191.351 33.5991 192.56 32.8147C193.484 32.2146 194.016 30.3349 194.016 30.3349" fill="#a0fff2" fill-rule="nonzero" opacity="1" stroke="#000000" stroke-linecap="butt" stroke-linejoin="miter" stroke-width="0.674752"/>
<path d="M197.439 27.6398C197.439 27.6398 198.8 27.1536 199.588 26.8027C200.232 26.5159 201.007 25.5977 199.92 25.7237C198.777 25.8563 200.093 24.5822 198.726 24.5101C197.507 24.4458 198.675 22.8546 197.466 23.639C196.541 24.2391 196.01 26.1189 196.01 26.1189" fill="#a0fff2" fill-rule="nonzero" opacity="1" stroke="#000000" stroke-linecap="butt" stroke-linejoin="miter" stroke-width="0.674752"/>
<path d="M192.51 28.2937C192.383 27.0004 193.395 25.838 194.77 25.6976C196.145 25.5571 197.363 26.4917 197.49 27.785C197.617 29.0783 196.605 30.2407 195.23 30.3811C193.855 30.5216 192.637 29.587 192.51 28.2937Z" fill="#a0fff2" fill-rule="nonzero" opacity="1" stroke="#000000" stroke-linecap="butt" stroke-linejoin="miter" stroke-width="0.674752"/>
</g>
<g opacity="1">
<path d="M225.788 8.83166C225.788 8.83166 224.34 8.90611 223.48 9.0157C222.777 9.10527 221.746 9.76174 222.817 9.95327C223.943 10.1548 222.284 10.9965 223.555 11.4581C224.69 11.8698 223.068 13.0575 224.467 12.6538C225.538 12.3449 226.65 10.6981 226.65 10.6981" fill="#a0fff2" fill-rule="nonzero" opacity="1" stroke="#000000" stroke-linecap="butt" stroke-linejoin="miter" stroke-width="0.674752"/>
<path d="M230.765 9.10138C230.765 9.10138 232.213 9.02693 233.073 8.91734C233.776 8.82777 234.807 8.1713 233.736 7.97977C232.61 7.77826 234.269 6.93651 232.998 6.47499C231.863 6.06322 233.485 4.8755 232.086 5.27923C231.015 5.58811 229.903 7.23492 229.903 7.23492" fill="#a0fff2" fill-rule="nonzero" opacity="1" stroke="#000000" stroke-linecap="butt" stroke-linejoin="miter" stroke-width="0.674752"/>
<path d="M225.884 8.31177C226.182 7.03719 227.517 6.2151 228.865 6.47557C230.213 6.73605 231.065 7.98047 230.767 9.25505C230.468 10.5296 229.134 11.3517 227.785 11.0912C226.437 10.8308 225.586 9.58636 225.884 8.31177Z" fill="#a0fff2" fill-rule="nonzero" opacity="1" stroke="#000000" stroke-linecap="butt" stroke-linejoin="miter" stroke-width="0.674752"/>
</g>
<g opacity="1">
<path d="M191.628 50.2241C191.628 50.2241 190.267 50.7103 189.479 51.0612C188.835 51.348 188.06 52.2661 189.147 52.1401C190.29 52.0076 188.974 53.2817 190.341 53.3538C191.56 53.4181 190.392 55.0093 191.601 54.2248C192.526 53.6247 193.057 51.745 193.057 51.745" fill="#a0fff2" fill-rule="nonzero" opacity="1" stroke="#000000" stroke-linecap="butt" stroke-linejoin="miter" stroke-width="0.674752"/>
<path d="M196.481 49.0499C196.481 49.0499 197.842 48.5637 198.63 48.2128C199.274 47.926 200.048 47.0078 198.962 47.1338C197.818 47.2664 199.134 45.9923 197.767 45.9202C196.548 45.8559 197.716 44.2647 196.508 45.0492C195.583 45.6493 195.051 47.529 195.051 47.529" fill="#a0fff2" fill-rule="nonzero" opacity="1" stroke="#000000" stroke-linecap="butt" stroke-linejoin="miter" stroke-width="0.674752"/>
<path d="M191.552 49.7038C191.425 48.4105 192.437 47.2482 193.812 47.1077C195.187 46.9673 196.404 47.9018 196.531 49.1952C196.659 50.4885 195.647 51.6508 194.272 51.7913C192.897 51.9317 191.679 50.9971 191.552 49.7038Z" fill="#a0fff2" fill-rule="nonzero" opacity="1" stroke="#000000" stroke-linecap="butt" stroke-linejoin="miter" stroke-width="0.674752"/>
</g>
<g opacity="1">
<path d="M202.141 30.2459C202.141 30.2459 200.877 30.9316 200.158 31.3969C199.57 31.7771 198.961 32.7988 200.015 32.5094C201.123 32.2049 200.04 33.6592 201.404 33.5222C202.622 33.4 201.739 35.1439 202.8 34.1879C203.612 33.4565 203.816 31.5254 203.816 31.5254" fill="#a0fff2" fill-rule="nonzero" opacity="1" stroke="#000000" stroke-linecap="butt" stroke-linejoin="miter" stroke-width="0.674752"/>
<path d="M206.741 28.3518C206.741 28.3518 208.005 27.666 208.724 27.2008C209.312 26.8205 209.921 25.7989 208.868 26.0883C207.759 26.3928 208.843 24.9384 207.478 25.0754C206.26 25.1977 207.143 23.4538 206.082 24.4098C205.27 25.1412 205.066 27.0722 205.066 27.0722" fill="#a0fff2" fill-rule="nonzero" opacity="1" stroke="#000000" stroke-linecap="butt" stroke-linejoin="miter" stroke-width="0.674752"/>
<path d="M201.977 29.7454C201.629 28.4917 202.431 27.1937 203.767 26.8462C205.104 26.4987 206.469 27.2333 206.816 28.487C207.164 29.7407 206.362 31.0386 205.026 31.3861C203.689 31.7336 202.324 30.999 201.977 29.7454Z" fill="#a0fff2" fill-rule="nonzero" opacity="1" stroke="#000000" stroke-linecap="butt" stroke-linejoin="miter" stroke-width="0.674752"/>
</g>
<g opacity="1">
<path d="M206.734 13.7532C206.734 13.7532 205.339 14.1048 204.524 14.3771C203.857 14.5997 202.995 15.4348 204.08 15.4135C205.223 15.3911 203.788 16.527 205.128 16.7284C206.324 16.9082 205.001 18.3719 206.278 17.7106C207.255 17.2046 207.981 15.3946 207.981 15.3946" fill="#ffa0a0" fill-rule="nonzero" opacity="1" stroke="#000000" stroke-linecap="butt" stroke-linejoin="miter" stroke-width="0.674752"/>
<path d="M211.647 13.053C211.647 13.053 213.042 12.7013 213.857 12.429C214.523 12.2064 215.386 11.3714 214.3 11.3926C213.158 11.415 214.593 10.2791 213.252 10.0777C212.056 9.89796 213.379 8.43421 212.103 9.09555C211.126 9.60151 210.4 11.4115 210.4 11.4115" fill="#ffa0a0" fill-rule="nonzero" opacity="1" stroke="#000000" stroke-linecap="butt" stroke-linejoin="miter" stroke-width="0.674752"/>
<path d="M206.715 13.231C206.728 11.9387 207.851 10.8846 209.222 10.8765C210.594 10.8684 211.695 11.9093 211.682 13.2016C211.668 14.4938 210.545 15.5479 209.174 15.5561C207.802 15.5642 206.701 14.5232 206.715 13.231Z" fill="#ffa0a0" fill-rule="nonzero" opacity="1" stroke="#000000" stroke-linecap="butt" stroke-linejoin="miter" stroke-width="0.674752"/>
</g>
<g opacity="1">
<path d="M204.421 41.1648C204.421 41.1648 203.025 41.5165 202.21 41.7888C201.544 42.0113 200.682 42.8464 201.767 42.8252C202.91 42.8028 201.475 43.9386 202.815 44.1401C204.011 44.3198 202.688 45.7836 203.965 45.1222C204.942 44.6163 205.667 42.8063 205.667 42.8063" fill="#ffa0a0" fill-rule="nonzero" opacity="1" stroke="#000000" stroke-linecap="butt" stroke-linejoin="miter" stroke-width="0.674752"/>
<path d="M209.334 40.4646C209.334 40.4646 210.729 40.1129 211.544 39.8406C212.21 39.6181 213.073 38.783 211.987 38.8043C210.845 38.8266 212.28 37.6908 210.939 37.4893C209.743 37.3096 211.066 35.8459 209.79 36.5072C208.813 37.0132 208.087 38.8231 208.087 38.8231" fill="#ffa0a0" fill-rule="nonzero" opacity="1" stroke="#000000" stroke-linecap="butt" stroke-linejoin="miter" stroke-width="0.674752"/>
<path d="M204.401 40.6426C204.415 39.3504 205.538 38.2962 206.909 38.2881C208.281 38.28 209.382 39.321 209.368 40.6132C209.355 41.9054 208.232 42.9596 206.861 42.9677C205.489 42.9758 204.388 41.9349 204.401 40.6426Z" fill="#ffa0a0" fill-rule="nonzero" opacity="1" stroke="#000000" stroke-linecap="butt" stroke-linejoin="miter" stroke-width="0.674752"/>
</g>
<g opacity="1">
<path d="M192.095 43.0494C192.095 43.0494 193.003 41.9844 193.491 41.3093C193.89 40.7576 194.059 39.6101 193.192 40.2391C192.28 40.9008 192.722 39.1927 191.507 39.789C190.423 40.3211 190.566 38.4164 189.951 39.6598C189.481 40.611 190.042 42.453 190.042 42.453" fill="#ffa0a0" fill-rule="nonzero" opacity="1" stroke="#000000" stroke-linecap="butt" stroke-linejoin="miter" stroke-width="0.674752"/>
<path d="M188.557 46.3739C188.557 46.3739 187.649 47.4389 187.161 48.114C186.762 48.6657 186.593 49.8132 187.46 49.1842C188.372 48.5224 187.93 50.2306 189.145 49.6343C190.229 49.1022 190.086 51.0069 190.701 49.7635C191.172 48.8123 190.61 46.9703 190.61 46.9703" fill="#ffa0a0" fill-rule="nonzero" opacity="1" stroke="#000000" stroke-linecap="butt" stroke-linejoin="miter" stroke-width="0.674752"/>
<path d="M192.443 43.4519C193.253 44.4824 193.012 45.9499 191.905 46.7297C190.798 47.5095 189.244 47.3063 188.434 46.2758C187.624 45.2453 187.865 43.7778 188.972 42.998C190.079 42.2182 191.633 42.4215 192.443 43.4519Z" fill="#ffa0a0" fill-rule="nonzero" opacity="1" stroke="#000000" stroke-linecap="butt" stroke-linejoin="miter" stroke-width="0.674752"/>
</g>
<g opacity="1">
<path d="M178.723 61.8874C178.723 61.8874 179.774 75.138 176.409 81.0972C173.044 87.0564 171.093 90.7474 177.216 91.6466C183.339 92.5458 190.361 90.1479 196.956 91.0471C203.55 91.9463 205.006 76.1888 183.81 81.6697C183.81 81.6697 187.163 67.1059 185.664 61.1113" fill="#ef3453" fill-rule="nonzero" opacity="1" stroke="none"/>
<g opacity="1">
<path d="M192.875 80.75C191.548 80.6252 190.207 80.671 188.969 80.9062C187.672 81.1525 186.437 81.6697 185.219 82.1562C186.515 82.0188 187.792 81.9552 189.094 81.9375C191.823 81.9004 194.532 81.8674 197.062 83.0625C199.048 83.9999 200.662 85.849 200.188 88.1875C200.01 89.0606 199.549 89.7979 199.062 90.5312C200.101 89.4812 201.241 88.0401 201.219 86.4688C201.184 84.0366 198.702 82.3315 196.688 81.5938C195.507 81.1613 194.202 80.8748 192.875 80.75Z" fill="#ffa6b5" stroke="none"/>
</g>
<path d="M178.723 61.8874C178.723 61.8874 179.774 75.138 176.409 81.0972C173.044 87.0564 171.093 90.7474 177.216 91.6466C183.339 92.5458 190.361 90.1479 196.956 91.0471C203.55 91.9463 205.006 76.1888 183.81 81.6697C183.81 81.6697 187.163 67.1059 185.664 61.1113" fill="none" opacity="1" stroke="#000000" stroke-linecap="butt" stroke-linejoin="miter" stroke-width="1.29626"/>
<path d="M173.405 65.108C173.405 65.108 174.457 78.3585 171.091 84.3178C167.726 90.277 165.775 93.9679 171.898 94.8671C178.021 95.7663 185.044 93.3685 191.638 94.2677C198.232 95.1669 199.688 79.4094 178.492 84.8902C178.492 84.8902 181.845 70.3265 180.346 64.3318" fill="#ef3453" fill-rule="nonzero" opacity="1" stroke="none" vectornator:layerName="Curve"/>
<g opacity="1">
<path d="M184.531 84.2188C182.015 84.4366 179.667 85.0889 177.438 86.2812C178.934 85.9161 180.442 85.8392 181.969 85.6875C184.642 85.4218 187.265 85.0565 189.938 85.625C192.845 86.2434 194.537 87.9318 194.469 91C194.447 91.9547 194.214 92.8642 193.969 93.7812C194.471 92.7111 194.939 91.637 195.156 90.4688C195.791 87.0601 193.256 85.0563 190.188 84.4062C188.337 84.0142 186.406 84.0564 184.531 84.2188Z" fill="#ffa6b5" stroke="none"/>
</g>
<g opacity="1">
<path d="M172.125 82.0312C171.602 82.8247 171.067 83.6008 170.562 84.4062C170.232 84.9339 169.908 85.4609 169.656 86.0312C168.597 88.4274 166.747 92.5772 169.938 94.1875C170.493 94.4679 171.078 94.6344 171.688 94.75C172.451 94.895 173.284 95.021 174.062 95.0312C175.525 95.0505 177.043 94.757 178.5 94.625C177.208 94.4788 175.957 94.2787 174.688 94C173.179 93.6688 171.178 93.8218 169.938 92.7188C169.06 91.9385 169.335 90.5868 169.594 89.5938C169.922 88.3336 170.509 87.1603 170.938 85.9375C171.387 84.654 171.729 83.3322 172.125 82.0312Z" fill="#ffa6b5" stroke="none"/>
</g>
<path d="M173.405 65.1122C173.405 65.1122 174.456 78.3628 171.091 84.322C167.726 90.2813 165.775 93.9722 171.898 94.8714C178.021 95.7706 185.043 93.3727 191.637 94.2719C198.232 95.1711 199.688 79.4136 178.492 84.8945C178.492 84.8945 181.844 70.3308 180.346 64.3361" fill="none" opacity="1" stroke="#000000" stroke-linecap="butt" stroke-linejoin="miter" stroke-width="1.29626" vectornator:layerName="Curve"/>
<path d="M192.005 23.421C192.005 23.421 163.062 15.3385 155.787 42.4887C149.55 65.7633 175.217 82.9903 195.417 72.1257C195.417 72.1257 208.588 64.0603 208.356 48.1035L178.242 54.6603L192.005 23.421Z" fill="#ef3453" fill-rule="nonzero" opacity="1" stroke="none"/>
<g opacity="1">
<path d="M207.688 50.6562C207.266 52.5925 206.721 54.4836 205.875 56.2812C205.514 57.0486 205.065 57.7595 204.656 58.5C203.983 59.7204 203.401 60.9614 202.625 62.125C200.116 65.8863 196.753 69.0327 192.75 71.1562C190.298 72.4569 187.751 73.1679 185.062 73.7812C182.349 74.4003 179.662 74.7877 176.875 74.8438C179.628 75.3779 182.537 75.757 185.344 75.4375C186.961 75.2534 188.562 74.7869 190.094 74.25C195.574 72.3289 200.401 68.6564 203.625 63.8125C204.583 62.3728 205.541 60.7921 206.125 59.1562C207.083 56.4742 207.504 53.484 207.688 50.6562Z" fill="#ffa6b5" stroke="none"/>
</g>
<g opacity="1">
<path d="M165.406 27C162.668 29.3336 160.091 32.0212 158.375 35.2188C157.274 37.2698 156.498 39.5601 155.938 41.8125C153.854 50.1906 155.289 59.7043 160.906 66.4688C163.329 69.3862 167.049 71.5676 170.469 73.0938C167.435 71.2765 164.976 69.1264 162.875 66.2812C160.923 63.6389 159.343 61.1695 158.281 58.0312C156.452 52.6258 156.374 46.6432 157.906 41.1562C158.409 39.3577 159.139 37.6969 159.906 36C161.387 32.7275 163.1 29.7663 165.406 27Z" fill="#ffa6b5" stroke="none"/>
</g>
<g opacity="1">
<path d="M179.375 22.8438C179.096 23.9548 178.817 25.0739 178.438 26.1562C178.192 26.8566 177.849 27.5219 177.594 28.2188C177.352 28.8787 177.21 29.5589 176.969 30.2188C176.514 31.462 175.931 32.6945 175.219 33.8125C173.952 35.8011 172.165 37.4225 170.031 38.4375C169.121 38.8704 168.193 39.1575 167.25 39.5C165.594 40.1015 163.945 40.6274 162.219 41C163.993 41.2049 165.878 41.3759 167.656 41.0938C168.734 40.9226 169.796 40.4879 170.781 40.0312C175.185 37.9904 177.621 34.3508 178.906 29.7188C179.496 27.5921 179.345 25.0543 179.375 22.8438Z" fill="#9a0921" stroke="none"/>
</g>
<g opacity="1">
<use fill="none" opacity="1" stroke="#000000" stroke-linecap="butt" stroke-linejoin="miter" stroke-width="1.29626" xlink:href="#Fill"/>
<clipPath id="ClipPath">
<use xlink:href="#Fill"/>
</clipPath>
<g clip-path="url(#ClipPath)">
<path d="M191.744 23.9238L195.072 16.2561L216.596 45.8742L178.423 54.6125L191.744 23.9238" fill="none" opacity="1" stroke="#000000" stroke-linecap="butt" stroke-linejoin="miter" stroke-width="1.29626"/>
</g>
</g>
<path d="M146.276 23.8391C146.276 14.9445 153.486 7.73408 162.381 7.73408C171.275 7.73408 178.486 14.9445 178.486 23.8391C178.486 32.7337 171.275 39.9441 162.381 39.9441C153.486 39.9441 146.276 32.7337 146.276 23.8391Z" fill="#ffffff" fill-rule="nonzero" opacity="1" stroke="#000000" stroke-linecap="butt" stroke-linejoin="miter" stroke-width="1.29626"/>
<path d="M163.561 22.1672C159.483 17.4347 158.551 11.5523 161.48 9.02832C163.105 7.62787 168.002 7.3098 170.239 9.72923L171.025 16.6428L175.986 15.2607C178.175 17.5277 178.176 24.5047 176.248 26.1659C173.319 28.6899 167.639 26.8996 163.561 22.1672Z" fill="#000000" fill-rule="nonzero" opacity="1" stroke="none"/>
</g>
</g>
</g>
<g id="Layer-4" vectornator:layerName="Layer 4"/>
<g id="Layer-4-copy" vectornator:layerName="Layer 4 copy"/>
<g id="Layer-2" vectornator:layerName="Layer 2"/>
<g id="Layer-2-copy" vectornator:layerName="Layer 2 copy">
<g opacity="1">
<path d="M21.3221 74.3601L21.4712 88.1406C21.4712 88.1406 13.9482 86.8302 15.4797 93.7442C15.7035 94.7543 23.0006 95.4003 26.8164 94.3936C27.9103 94.105 29.8371 88.0773 25.8219 88.6697C25.8219 88.6697 25.101 75.5626 25.1755 75.274C25.2501 74.9854 22.59 73.1576 21.3221 74.3601Z" fill="#fffa26" fill-rule="nonzero" opacity="1" stroke="#000000" stroke-linecap="round" stroke-linejoin="round" stroke-width="1.3"/>
<path d="M39.8984 74.5384L39.7493 88.3189C39.7493 88.3189 47.2723 87.0085 45.7408 93.9225C45.517 94.9326 38.2199 95.5786 34.4041 94.5719C33.3102 94.2833 31.3834 88.2556 35.3986 88.848C35.3986 88.848 36.1195 75.7409 36.045 75.4523C35.9704 75.1637 38.6305 73.3359 39.8984 74.5384Z" fill="#fffa26" fill-rule="nonzero" opacity="1" stroke="#000000" stroke-linecap="round" stroke-linejoin="round" stroke-width="1.3"/>
<path d="M16.165 89.3474C18.3762 86.8981 24.1493 88.1196 25.1073 91.8263" fill="none" opacity="1" stroke="#000000" stroke-linecap="round" stroke-linejoin="round" stroke-width="1.3"/>
<path d="M45.0555 89.5258C42.8443 87.0765 37.0712 88.298 36.1132 92.0047" fill="none" opacity="1" stroke="#000000" stroke-linecap="round" stroke-linejoin="round" stroke-width="1.3"/>
<path d="M6.76296 52.8591C6.76296 40.032 17.5121 29.6336 30.7719 29.6336C44.0316 29.6336 54.7808 40.032 54.7808 52.8591C54.7808 65.6861 44.0316 76.0845 30.7719 76.0845C17.5121 76.0845 6.76296 65.6861 6.76296 52.8591Z" fill="#fffa26" fill-rule="nonzero" opacity="1" stroke="#000000" stroke-linecap="butt" stroke-linejoin="miter" stroke-width="1.3"/>
<g opacity="1">
<path d="M9.6875 49.8438C9.14044 50.4876 8.8432 51.232 8.59375 52.0312C7.68567 54.9409 8.32903 57.9337 9.40625 60.7188C9.68384 61.4364 9.95021 62.1649 10.3125 62.8438C10.8404 63.8329 11.5234 64.7815 12.0938 65.75C11.7183 64.6832 11.4271 63.5981 11.0625 62.5312C10.299 60.2972 9.31106 58.1958 9.0625 55.8125C8.9547 54.7789 9.09791 53.8347 9.1875 52.8125C9.27751 51.7854 9.24335 50.7964 9.6875 49.8438Z" fill="#feffb2" stroke="none"/>
</g>
<path d="M6.16986 31.4474C6.16986 24.7972 11.7428 19.4061 18.6173 19.4061C25.4918 19.4061 31.0647 24.7972 31.0647 31.4474C31.0647 38.0976 25.4918 43.4886 18.6173 43.4886C11.7428 43.4886 6.16986 38.0976 6.16986 31.4474Z" fill="#ffffff" fill-rule="nonzero" opacity="1" stroke="#000000" stroke-linecap="butt" stroke-linejoin="miter" stroke-width="1.3"/>
<path d="M31.7528 31.4513C31.7528 24.8011 37.3257 19.4101 44.2002 19.4101C51.0747 19.4101 56.6477 24.8011 56.6477 31.4513C56.6477 38.1015 51.0747 43.4926 44.2002 43.4926C37.3257 43.4926 31.7528 38.1015 31.7528 31.4513Z" fill="#ffffff" fill-rule="nonzero" opacity="1" stroke="#000000" stroke-linecap="butt" stroke-linejoin="miter" stroke-width="1.3"/>
<path d="M12.7227 55.107C14.4258 52.6358 18.3337 54.2917 19.9159 55.8223" fill="none" opacity="1" stroke="#000000" stroke-linecap="round" stroke-linejoin="miter" stroke-width="1.3"/>
<path d="M15.0156 54.5075C17.0277 68.7742 45.4639 65.8835 47.02 54.2452" fill="none" opacity="1" stroke="#000000" stroke-linecap="round" stroke-linejoin="miter" stroke-width="1.3"/>
<path d="M24.048 67.5186C27.185 69.3795 32.8966 70.3528 37.6316 67.032" fill="none" opacity="1" stroke="#000000" stroke-linecap="round" stroke-linejoin="miter" stroke-width="1.3"/>
<path d="M42.9187 54.9163C44.558 53.3305 48.3984 52.4875 50.1962 54.2267" fill="none" opacity="1" stroke="#000000" stroke-linecap="round" stroke-linejoin="miter" stroke-width="1.3"/>
<path d="M13.9332 31.1342C13.9891 26.7796 15.5235 23.2918 17.9327 23.1254C20.1504 22.9723 21.7729 25.8783 21.7048 29.0907L18.7287 32.1005L21.9191 34.306C21.8064 38.8992 21.3362 40.7786 19.2901 40.7747C16.3199 40.7691 13.8774 35.4887 13.9332 31.1342Z" fill="#000000" fill-rule="nonzero" opacity="1" stroke="none"/>
<path d="M39.881 31.1293C39.9368 26.7748 41.4713 23.2869 43.8804 23.1206C46.0982 22.9675 47.7207 25.8734 47.6525 29.0858L44.6765 32.0956L47.8668 34.3012C47.7542 38.8944 47.284 40.7738 45.2378 40.7699C42.2677 40.7643 39.8251 35.4839 39.881 31.1293Z" fill="#000000" fill-rule="nonzero" opacity="1" stroke="none"/>
<g opacity="1">
<path d="M52.7812 50.125C52.6307 51.0081 52.4123 52.3784 52.2188 53.25C52.0426 54.0432 51.7803 54.8275 51.625 55.625C50.9716 58.9803 50.2905 62.3093 48.1562 65.0938C46.9908 66.6143 45.4392 67.6074 44.0312 68.875C42.8202 69.9653 41.754 70.9875 40.2812 71.7188C42.3113 71.3225 44.1292 70.3938 45.7812 69.1562C47.0579 68.2 48.2836 67.1911 49.2812 65.9375C51.5152 63.1305 52.6505 59.3316 52.9062 55.7812C52.9656 54.957 52.874 54.1383 52.8438 53.3125C52.8082 52.3426 52.8032 51.0976 52.7812 50.125Z" fill="#feffb2" stroke="none"/>
</g>
<g opacity="1">
<path d="M42.0312 89.3438C41.9529 89.3457 41.0644 89.5271 41.0938 89.5938C41.3725 90.2258 40.7813 89.7188 40.7812 89.7188C40.7812 89.7188 42.6956 91.8237 42.2188 91.3125C41.7798 90.842 41.4202 90.2905 41.125 89.7188C41.0779 89.6274 41.3051 89.7629 41.4062 89.7812C41.5037 89.7989 41.6225 89.8205 41.7188 89.8438C41.898 89.8871 42.0681 89.9069 42.25 89.9375C42.8879 90.045 43.607 90.3378 43.9688 90.9062C44.2059 91.2789 44.164 91.7101 44.0625 92.125C44.0588 92.14 43.8979 92.689 43.8438 92.6562C43.8688 92.6721 43.8811 92.7031 43.9062 92.7188C43.9568 92.7501 44.5181 92.1648 44.5625 92.0938C44.8937 91.5635 44.716 90.8212 44.3438 90.375C43.8228 89.7506 42.8522 89.3237 42.0312 89.3438ZM43.8438 92.6562C43.244 92.276 42.6926 91.8406 42.2188 91.3125C41.7574 90.7984 43.625 92.9375 43.625 92.9375C43.625 92.9375 43.2456 92.2943 43.8438 92.6562Z" fill="#feffb2" stroke="none"/>
</g>
<g opacity="1">
<path d="M26.3438 92.6875C26.3438 92.6875 20.9288 92.8778 22.0938 92.875C23.2532 92.8722 24.4366 92.9271 25.5938 93C25.3056 92.8209 26.3438 92.6875 26.3438 92.6875ZM25.5938 93C25.6109 93.0107 25.6598 93.0203 25.6875 93.0312C25.7332 93.0207 25.9376 93.0044 25.875 93C25.7822 92.9935 25.6866 93.0059 25.5938 93ZM25.6875 93.0312C25.5663 93.0593 25.3535 93.081 25.1875 93.0938C24.9263 93.1138 24.6682 93.0891 24.4062 93.0938C23.263 93.1138 22.1105 93.061 20.9688 93C20.1703 93.0645 19.3784 93.1263 18.5938 93.2812C18.367 93.326 19.0544 93.3931 19.2812 93.4375C19.7697 93.533 20.1602 93.5582 20.6562 93.5938C21.8363 93.6784 23.2817 93.9234 24.4688 93.6875C24.7411 93.6334 25.0212 93.5662 25.2812 93.4688C25.5155 93.3809 26.1835 93.1706 25.9375 93.125C25.7713 93.0942 25.7624 93.0608 25.6875 93.0312ZM20.9688 93C21.3466 92.9695 21.7153 92.8826 22.0938 92.875C22.6807 92.8632 21.2402 92.9205 20.1562 92.9688C20.3281 92.9795 20.492 92.9894 20.6875 93C20.7809 93.005 20.8754 92.995 20.9688 93ZM20.1562 92.9688C19.8836 92.9517 19.6226 92.9244 19.3125 92.9375C19.082 92.9473 18.3944 93.0053 18.625 93C19.7896 92.9734 17.875 93.0937 17.875 93.0938C17.875 93.0938 18.8795 93.0256 20.1562 92.9688Z" fill="#feffb2" stroke="none"/>
</g>
<g opacity="1">
<path d="M38.3438 75.9688C37.8182 79.2705 37.7747 82.7139 38.1875 86.0312C38.6469 82.7224 38.8229 79.281 38.3438 75.9688Z" fill="#feffb2" stroke="none"/>
</g>
</g>
</g>
<g id="Layer-5" vectornator:layerName="Layer 5">
<g opacity="1">
<path d="M80.7289 66.1397C80.7289 53.2109 91.2097 42.7301 104.138 42.7301C117.067 42.7301 127.548 53.2109 127.548 66.1397C127.548 79.0685 117.067 89.5493 104.138 89.5493C91.2097 89.5493 80.7289 79.0685 80.7289 66.1397Z" fill="#00ccff" fill-rule="nonzero" opacity="1" stroke="#a9eeff" stroke-linecap="butt" stroke-linejoin="miter" stroke-width="1.29626"/>
<g opacity="1">
<path d="M108.938 43.875C112.086 45.0367 114.643 46.7616 117.094 49.0312C118.622 50.4466 120.044 51.8929 121.219 53.625C125.43 59.8348 126.827 68.3589 123.219 75.1562C122.599 76.3236 122.035 77.5146 121.219 78.5625C119.822 80.355 118.036 81.6698 116.094 82.8125C119.206 81.5783 122.302 79.7372 124.406 77.0625C126.296 74.6603 127.251 71.0349 127.469 68.0312C127.924 61.7587 125.617 55.4263 121.625 50.625C120.673 49.4796 119.601 48.3664 118.406 47.4688C115.665 45.4092 112.292 44.3308 108.938 43.875Z" fill="#a9eeff" stroke="none"/>
</g>
<g opacity="1">
<path d="M83.2188 58.125C82.141 59.7506 81.0282 61.5197 80.6562 63.4688C80.4382 64.6113 80.4373 65.8732 80.4688 67.0312C80.5785 71.0723 81.8498 74.988 84.25 78.25C84.491 78.5775 84.6901 78.9226 84.9688 79.2188C86.3011 80.6349 88.4673 81.6906 90.1875 82.5625C89.3005 81.7284 88.4384 80.8882 87.75 79.875C87.3214 79.2442 87.016 78.5726 86.5938 77.9375C85.3815 76.1143 84.2863 74.3169 83.5938 72.2188C82.925 70.1926 82.5661 68.042 82.5938 65.9062C82.603 65.1882 82.7044 64.4666 82.75 63.75C82.8716 61.8388 82.8659 60.0188 83.2188 58.125Z" fill="#a9eeff" stroke="none"/>
</g>
<path d="M80.7289 66.1397C80.7289 53.2109 91.2097 42.7301 104.138 42.7301C117.067 42.7301 127.548 53.2109 127.548 66.1397C127.548 79.0685 117.067 89.5493 104.138 89.5493C91.2097 89.5493 80.7289 79.0685 80.7289 66.1397Z" fill="none" opacity="1" stroke="#000000" stroke-linecap="round" stroke-linejoin="miter" stroke-width="1.29626"/>
<path d="M78.5471 44.4499C78.5471 37.3968 84.2647 31.6792 91.3177 31.6792C98.3708 31.6792 104.088 37.3968 104.088 44.4499C104.088 51.5029 98.3708 57.2205 91.3177 57.2205C84.2647 57.2205 78.5471 51.5029 78.5471 44.4499Z" fill="#ffffff" fill-rule="nonzero" opacity="1" stroke="#000000" stroke-linecap="butt" stroke-linejoin="miter" stroke-width="1.29626"/>
<path d="M104.746 44.4492C104.746 37.3961 110.463 31.6785 117.516 31.6785C124.569 31.6785 130.287 37.3961 130.287 44.4492C130.287 51.5022 124.569 57.2199 117.516 57.2199C110.463 57.2199 104.746 51.5022 104.746 44.4492Z" fill="#ffffff" fill-rule="nonzero" opacity="1" stroke="#000000" stroke-linecap="butt" stroke-linejoin="miter" stroke-width="1.29626"/>
<path d="M92.3918 67.3135C89.4652 67.3135 88.9779 70.5917 89.091 72.8532" fill="none" opacity="1" stroke="#000000" stroke-linecap="round" stroke-linejoin="miter" stroke-width="1.29626"/>
<path d="M89.6609 69.4606C101.776 78.8255 110.128 76.4343 118.547 69.4328" fill="none" opacity="1" stroke="#000000" stroke-linecap="round" stroke-linejoin="miter" stroke-width="1.29626"/>
<path d="M115.293 68.2318C117.776 68.2318 119.766 69.5583 120.276 71.938" fill="none" opacity="1" stroke="#000000" stroke-linecap="round" stroke-linejoin="miter" stroke-width="1.29626"/>
<path d="M91.3947 81.6294C88.459 80.3862 87.6265 78.7837 84.447 78.748C79.6424 78.6941 79.2672 85.9056 80.9816 89.1438C83.7427 94.3592 92.0911 95.6955 97.3738 94.8355C101.293 94.1976 104.649 88.593 102.018 84.8636C100.175 82.2504 97.4439 84.191 91.3947 81.6294Z" fill="#00ccff" fill-rule="nonzero" opacity="1" stroke="none"/>
<path d="M116.633 81.6296C119.569 80.3864 120.401 78.7839 123.581 78.7482C128.385 78.6943 128.76 85.9058 127.046 89.144C124.285 94.3594 115.936 95.6957 110.654 94.8357C106.735 94.1978 103.379 88.5932 106.009 84.8638C107.853 82.2506 110.584 84.1912 116.633 81.6296Z" fill="#00ccff" fill-rule="nonzero" opacity="1" stroke="none"/>
<path d="M84.2525 89.9893C80.2143 89.8442 80.8965 81.7089 83.5561 80.7771C84.703 80.3752 88.1445 81.1051 87.2174 83.1654C86.014 85.8397 84.591 85.4634 84.329 89.2878" fill="#03809f" fill-rule="nonzero" opacity="1" stroke="none"/>
<path d="M123.775 89.9895C127.813 89.8444 127.131 81.7091 124.472 80.7773C123.325 80.3754 119.883 81.1053 120.81 83.1656C122.014 85.8399 123.437 85.4636 123.699 89.288" fill="#03809f" fill-rule="nonzero" opacity="1" stroke="none"/>
<path d="M85.1524 81.0558C87.2332 80.6953 89.3476 83.1515 91.2303 83.8019C94.9392 85.0829 104.008 83.839 99.7545 90.6474C99.1315 91.6447 96.6275 93.6578 95.3372 92.6085C93.4865 91.1036 97.2431 89.3164 96.0017 87.5308C94.3991 85.2258 88.7711 84.5496 86.2722 83.3156C83.3196 81.8574 86.528 80.3578 86.7019 81.5063" fill="#03809f" fill-rule="nonzero" opacity="1" stroke="none"/>
<path d="M122.875 81.056C120.794 80.6955 118.68 83.1517 116.797 83.802C113.088 85.0831 104.02 83.8392 108.273 90.6476C108.896 91.6449 111.4 93.658 112.69 92.6087C114.541 91.1038 110.784 89.3166 112.026 87.531C113.628 85.226 119.257 84.5498 121.755 83.3158C124.708 81.8576 121.5 80.358 121.326 81.5065" fill="#03809f" fill-rule="nonzero" opacity="1" stroke="none"/>
<g opacity="1">
<path d="M120.5 80.7188C119.397 81.8604 117.987 82.614 116.438 82.9688C115.065 83.2829 113.631 83.2874 112.25 83.5312C111.44 83.6743 110.674 84.0211 109.938 84.375C112.772 83.8649 116.301 84.3314 118.781 82.7188C119.517 82.2407 120.031 81.4407 120.5 80.7188Z" fill="#aaeeff" stroke="none"/>
</g>
<g opacity="1">
<path d="M85.0938 79.9062C87.4079 80.3063 89.1763 81.9837 91.25 82.9688C93.4257 84.0023 95.6839 83.9221 98.0312 83.75C95.8871 83.5468 93.4867 83.3369 91.5 82.4062C90.117 81.7584 88.9112 80.6923 87.4688 80.1875C86.6853 79.9134 85.914 79.8612 85.0938 79.9062Z" fill="#aaeeff" stroke="none"/>
</g>
<g opacity="1">
<path d="M100.688 85.25C100.732 85.1123 101.091 85.4048 101.125 85.4375C101.243 85.5523 101.379 85.9325 101.438 86.1562C101.743 87.3325 101.892 88.5526 101.594 89.75C101.263 91.0769 100.352 91.8631 99.4375 92.8125C99.1973 93.0618 98.9201 93.2784 98.5938 93.4062C98.5231 93.4339 98.3958 93.5368 98.375 93.5C98.6334 92.1091 98.9899 90.7363 99.375 89.375C99.7686 87.9834 98.0625 93.5312 98.0625 93.5312C98.0625 93.5313 98.6182 92.1147 98.3438 93.5C98.3401 93.5199 98.3474 93.5426 98.3438 93.5625C98.3401 93.5826 98.6305 93.5967 98.9062 93.5312C99.3881 93.4168 99.8436 93.126 100.219 92.8125C101.15 92.0344 101.918 91.0964 102.219 89.9062C102.484 88.8567 102.518 87.4738 101.969 86.5C101.741 86.0969 101.545 85.7348 101.25 85.375C101.189 85.3012 100.737 85.0953 100.688 85.25Z" fill="#aaeeff" stroke="none"/>
</g>
<g opacity="1">
<path d="M106.281 84.4062C105.754 85.0748 105.304 85.7932 105.188 86.6562C104.878 88.9569 106.197 91.7222 108.062 93.0625C108.732 93.5439 109.589 93.8476 110.375 94.0625C106.909 92.383 104.699 88.0817 106.281 84.4062Z" fill="#aaeeff" stroke="none"/>
</g>
<path d="M91.3947 81.6294C88.459 80.3862 87.6265 78.7837 84.447 78.748C79.6424 78.6941 79.2672 85.9056 80.9816 89.1438C83.7427 94.3592 92.0911 95.6955 97.3738 94.8355C101.293 94.1976 104.649 88.593 102.018 84.8636C100.175 82.2504 97.4439 84.191 91.3947 81.6294Z" fill="none" opacity="1" stroke="#000000" stroke-linecap="round" stroke-linejoin="miter" stroke-width="1.29626"/>
<path d="M116.633 81.6296C119.569 80.3864 120.401 78.7839 123.581 78.7482C128.385 78.6943 128.76 85.9058 127.046 89.144C124.285 94.3594 115.936 95.6957 110.654 94.8357C106.735 94.1978 103.379 88.5932 106.009 84.8638C107.853 82.2506 110.584 84.1912 116.633 81.6296Z" fill="none" opacity="1" stroke="#000000" stroke-linecap="round" stroke-linejoin="miter" stroke-width="1.29626"/>
<path d="M112.835 49.8316C112.896 44.9075 114.575 40.9634 117.21 40.7753C119.636 40.6021 121.411 43.8882 121.336 47.5208L118.081 50.9242L121.571 53.4183C121.448 58.6123 120.933 60.7375 118.695 60.7331C115.446 60.7267 112.774 54.7556 112.835 49.8316Z" fill="#000000" fill-rule="nonzero" opacity="1" stroke="none"/>
<path d="M87.3565 49.8288C87.4176 44.9048 89.0961 40.9607 91.7315 40.7726C94.1574 40.5994 95.9323 43.8855 95.8577 47.518L92.6023 50.9215L96.0922 53.4156C95.969 58.6095 95.4546 60.7348 93.2163 60.7303C89.9673 60.7239 87.2954 54.7529 87.3565 49.8288Z" fill="#000000" fill-rule="nonzero" opacity="1" stroke="none"/>
<path d="M86.8351 79.3647C86.8351 79.3647 85.6656 74.8915 85.2696 73.1377C84.2701 68.7114 83.9424 64.2797 82.6756 59.9514C82.3858 58.9612 80.9729 55.1922 81.5885 54.1663C81.9389 53.5822 93.5696 54.1689 97.6993 54.1689C104.585 54.1689 126.288 54.385 126.288 54.385L121.502 79.3925C121.502 79.3925 110.729 79.5017 109.394 79.5017C101.912 79.5017 86.8351 79.3647 86.8351 79.3647Z" fill="#858585" fill-rule="nonzero" opacity="1" stroke="none"/>
<path d="M86.5519 79.0916L81.7034 54.2094C87.8175 53.836 104.313 54.3361 104.313 54.3361" fill="none" opacity="1" stroke="#000000" stroke-linecap="round" stroke-linejoin="round" stroke-width="1.3"/>
<path d="M86.6486 79.5421L121.406 79.3953L126.042 54.256C119.928 53.8826 103.883 54.3378 103.883 54.3378" fill="none" opacity="1" stroke="#000000" stroke-linecap="round" stroke-linejoin="round" stroke-width="1.3"/>
<path d="M99.758 63.0951C99.5551 63.3016 99.3845 63.5478 99.2462 63.8336C99.1079 64.1195 99.0351 64.3915 99.0277 64.6496C99.024 64.7455 99.0489 64.823 99.1024 64.882C99.1559 64.941 99.2269 64.9705 99.3154 64.9705C99.485 64.9705 99.5883 64.8838 99.6252 64.7105C99.6658 64.4745 99.7285 64.2587 99.8133 64.0632C99.8981 63.8677 100.022 63.687 100.184 63.5211C100.368 63.344 100.556 63.2177 100.745 63.1421C100.935 63.0665 101.154 63.0029 101.401 62.9512C101.567 62.9107 101.65 62.8148 101.65 62.6635C101.65 62.575 101.621 62.5031 101.564 62.4478C101.507 62.3925 101.432 62.3648 101.34 62.3648C101.1 62.3685 100.832 62.4358 100.535 62.5667C100.238 62.6977 99.9793 62.8738 99.758 63.0951ZM105.346 62.3039L102.491 62.3039C102.41 62.3039 102.339 62.3344 102.278 62.3952C102.217 62.4561 102.187 62.5271 102.187 62.6082C102.187 62.6931 102.217 62.7659 102.278 62.8268C102.339 62.8876 102.41 62.918 102.491 62.918L105.346 62.918C105.427 62.918 105.498 62.8876 105.559 62.8268C105.619 62.7659 105.65 62.6931 105.65 62.6082C105.65 62.5271 105.619 62.4561 105.559 62.3952C105.498 62.3344 105.427 62.3039 105.346 62.3039ZM108.073 63.0951C107.855 62.8738 107.598 62.6977 107.301 62.5667C107.004 62.4358 106.736 62.3685 106.496 62.3648C106.404 62.3648 106.329 62.3925 106.272 62.4478C106.215 62.5031 106.187 62.575 106.187 62.6635C106.187 62.8148 106.268 62.9107 106.43 62.9512C106.673 63.0029 106.891 63.0665 107.083 63.1421C107.275 63.2177 107.464 63.344 107.653 63.5211C107.815 63.687 107.937 63.8677 108.02 64.0632C108.103 64.2587 108.167 64.4745 108.211 64.7105C108.245 64.8838 108.348 64.9705 108.521 64.9705C108.61 64.9705 108.681 64.941 108.734 64.882C108.788 64.823 108.813 64.7455 108.809 64.6496C108.801 64.3915 108.729 64.1195 108.59 63.8336C108.452 63.5478 108.28 63.3016 108.073 63.0951ZM108.875 68.6938L108.875 65.8336C108.875 65.7524 108.845 65.6814 108.784 65.6206C108.723 65.5597 108.65 65.5293 108.565 65.5293C108.484 65.5293 108.413 65.5597 108.352 65.6206C108.292 65.6814 108.261 65.7524 108.261 65.8336L108.261 68.6938C108.261 68.7749 108.292 68.8459 108.352 68.9068C108.413 68.9676 108.484 68.998 108.565 68.998C108.65 68.998 108.723 68.9676 108.784 68.9068C108.845 68.8459 108.875 68.7749 108.875 68.6938ZM108.073 71.4157C108.28 71.2091 108.452 70.9629 108.59 70.6771C108.729 70.3913 108.801 70.1193 108.809 69.8611C108.813 69.7652 108.788 69.6877 108.734 69.6287C108.681 69.5697 108.61 69.5402 108.521 69.5402C108.348 69.5402 108.245 69.6269 108.211 69.8002C108.167 70.0363 108.103 70.252 108.02 70.4475C107.937 70.643 107.815 70.8237 107.653 70.9897C107.468 71.1667 107.281 71.293 107.091 71.3686C106.901 71.4442 106.681 71.5079 106.43 71.5595C106.268 71.6001 106.187 71.696 106.187 71.8472C106.187 71.9357 106.215 72.0076 106.272 72.0629C106.329 72.1183 106.404 72.1459 106.496 72.1459C106.736 72.1422 107.004 72.0749 107.301 71.944C107.598 71.8131 107.855 71.637 108.073 71.4157ZM102.491 72.2068L105.346 72.2068C105.427 72.2068 105.498 72.1764 105.559 72.1155C105.619 72.0546 105.65 71.9836 105.65 71.9025C105.65 71.8177 105.619 71.7448 105.559 71.684C105.498 71.6231 105.427 71.5927 105.346 71.5927L102.491 71.5927C102.41 71.5927 102.339 71.6231 102.278 71.684C102.217 71.7448 102.187 71.8177 102.187 71.9025C102.187 71.9836 102.217 72.0546 102.278 72.1155C102.339 72.1764 102.41 72.2068 102.491 72.2068ZM99.758 71.4157C99.9793 71.637 100.238 71.8131 100.535 71.944C100.832 72.0749 101.1 72.1422 101.34 72.1459C101.432 72.1459 101.507 72.1183 101.564 72.0629C101.621 72.0076 101.65 71.9357 101.65 71.8472C101.65 71.696 101.567 71.6001 101.401 71.5595C101.161 71.5079 100.946 71.4442 100.754 71.3686C100.562 71.293 100.372 71.1667 100.184 70.9897C100.022 70.8237 99.8981 70.643 99.8133 70.4475C99.7285 70.252 99.6658 70.0363 99.6252 69.8002C99.5883 69.6269 99.485 69.5402 99.3154 69.5402C99.2269 69.5402 99.1559 69.5697 99.1024 69.6287C99.0489 69.6877 99.024 69.7652 99.0277 69.8611C99.0351 70.1193 99.1079 70.3913 99.2462 70.6771C99.3845 70.9629 99.5551 71.2091 99.758 71.4157ZM98.9613 65.8336L98.9613 68.6938C98.9613 68.7749 98.9917 68.8459 99.0526 68.9068C99.1134 68.9676 99.1863 68.998 99.2711 68.998C99.3523 68.998 99.4233 68.9676 99.4841 68.9068C99.545 68.8459 99.5754 68.7749 99.5754 68.6938L99.5754 65.8336C99.5754 65.7524 99.545 65.6814 99.4841 65.6206C99.4233 65.5597 99.3523 65.5293 99.2711 65.5293C99.1863 65.5293 99.1134 65.5597 99.0526 65.6206C98.9917 65.6814 98.9613 65.7524 98.9613 65.8336ZM107.216 63.9636C107.005 63.7534 106.754 63.6188 106.46 63.5598C106.167 63.5008 105.842 63.4713 105.484 63.4713L102.33 63.4713C101.98 63.4713 101.659 63.5008 101.368 63.5598C101.076 63.6188 100.826 63.7534 100.615 63.9636C100.405 64.1739 100.272 64.4237 100.214 64.7133C100.157 65.0028 100.129 65.3227 100.129 65.6731L100.129 68.8265C100.129 69.1843 100.157 69.5089 100.214 69.8002C100.272 70.0916 100.405 70.3424 100.615 70.5526C100.826 70.7628 101.076 70.8965 101.368 70.9537C101.659 71.0109 101.984 71.0395 102.342 71.0395L105.484 71.0395C105.842 71.0395 106.167 71.0109 106.46 70.9537C106.754 70.8965 107.005 70.7628 107.216 70.5526C107.426 70.3424 107.559 70.0916 107.614 69.8002C107.669 69.5089 107.697 69.1843 107.697 68.8265L107.697 65.6842C107.697 65.3264 107.669 65.0019 107.614 64.7105C107.559 64.4191 107.426 64.1702 107.216 63.9636Z" fill="#d3d3d3" opacity="1" stroke="none"/>
<path d="M86.7019 79.8576C86.7019 79.8576 85.9544 81.7341 86.8061 83.3895L121.063 83.3895C121.063 83.3895 122.398 80.4849 121.373 79.8576L86.7019 79.8576Z" fill="#545454" fill-rule="nonzero" opacity="1" stroke="#000000" stroke-linecap="round" stroke-linejoin="round" stroke-width="1.3"/>
<g opacity="1">
<path d="M83.8438 56.7188C84.9165 59.7056 85.6553 62.8568 86.25 65.9688C86.6466 68.044 86.9529 70.1517 87.5312 72.1875C87.8236 73.2166 88.2123 74.2289 88.5312 75.25C87.8596 71.5984 87.3544 67.9112 86.5625 64.2812C86.2237 62.7283 85.8783 61.1357 85.2812 59.6562C84.8732 58.6452 84.3736 57.6697 83.8438 56.7188Z" fill="#a3a3a3" stroke="none"/>
</g>
<g opacity="1">
<path d="M93.625 56.4062C95.3282 56.7159 97.0256 57.0202 98.75 57.1875C101.602 57.4642 104.514 57.4067 107.375 57.3438C112.632 57.2281 117.871 56.8133 123.125 56.6875C121.08 56.5831 119.017 56.4427 116.969 56.4375C113.362 56.4283 109.762 56.6845 106.156 56.75C101.982 56.8258 97.788 56.7136 93.625 56.4062Z" fill="#a3a3a3" stroke="none"/>
</g>
<g opacity="1">
<path d="M123.969 58.1875C123.379 59.6672 122.767 61.1585 122.312 62.6875C120.927 67.3467 120.107 72.218 119.812 77.0625C121.234 70.78 122.309 64.417 123.969 58.1875Z" fill="#a3a3a3" stroke="none"/>
</g>
</g>
</g>
</svg>
