<?xml version="1.0" encoding="UTF-8" standalone="no"?>
<!DOCTYPE svg PUBLIC "-//W3C//DTD SVG 1.1//EN" "http://www.w3.org/Graphics/SVG/1.1/DTD/svg11.dtd">
<!-- Created with Vectornator (http://vectornator.io/) -->
<svg height="100%" stroke-miterlimit="10" style="fill-rule:nonzero;clip-rule:evenodd;stroke-linecap:round;stroke-linejoin:round;" version="1.1" viewBox="0 0 147.069 135.863" width="100%" xml:space="preserve" xmlns="http://www.w3.org/2000/svg" xmlns:vectornator="http://vectornator.io" xmlns:xlink="http://www.w3.org/1999/xlink">
<defs/>
<g id="Layer-3" vectornator:layerName="Layer 3"/>
<g id="Layer-4" vectornator:layerName="Layer 4"/>
<g id="Layer-3-copy" vectornator:layerName="Layer 3 copy"/>
<g id="Layer-9" vectornator:layerName="Layer 9"/>
<g id="Layer-9-copy" vectornator:layerName="Layer 9 copy"/>
<g id="Layer-7" vectornator:layerName="Layer 7"/>
<g id="Layer-5" vectornator:layerName="Layer 5"/>
<g id="Layer-6" vectornator:layerName="Layer 6"/>
<g id="Layer-8" vectornator:layerName="Layer 8"/>
<g id="Layer-8-copy" vectornator:layerName="Layer 8 copy"/>
<g id="Layer-1" vectornator:layerName="Layer 1"/>
<g id="Layer-2" vectornator:layerName="Layer 2"/>
<g id="Layer-2-copy" vectornator:layerName="Layer 2 copy">
<g opacity="1" vectornator:layerName="Group 1">
<path d="M14.3357 69.022C14.3357 44.5029 34.2123 24.6263 58.7314 24.6263C83.2505 24.6263 103.127 44.5029 103.127 69.022C103.127 93.541 83.2505 113.418 58.7314 113.418C34.2123 113.418 14.3357 93.541 14.3357 69.022Z" fill="#f89c1f" fill-rule="nonzero" opacity="1" stroke="none" vectornator:layerName="Oval 1"/>
<g opacity="1" vectornator:layerName="Curve 1">
<path d="M92.6875 45.3438C93.9204 47.9368 94.985 50.5808 95.7812 53.3438C96.3754 55.4055 96.7667 57.4871 97.1562 59.5938C97.807 63.1121 98.1444 66.6054 97.9375 70.1875C97.4242 79.0743 93.9939 87.6006 88.625 94.6562C87.4152 96.2461 86.0539 97.6726 84.6875 99.125C83.2992 100.601 81.9878 102.121 80.4688 103.469C78.1423 105.533 75.5841 107.274 72.9062 108.844C76.2495 107.341 79.4235 105.559 82.4375 103.469C83.718 102.581 85.0098 101.685 86.1562 100.625C87.6701 99.2253 89.0598 97.6094 90.3438 96C97.176 87.4359 100.776 76.5187 100.125 65.5625C99.9981 63.4256 99.7335 61.2445 99.25 59.1562C98.0948 54.1669 95.5393 49.5414 92.6875 45.3438Z" fill="#ffe0a1" stroke="none"/>
</g>
<g opacity="1" vectornator:layerName="Curve 2">
<path d="M16.9375 57.375C15.2768 60.6336 13.7207 64.2218 13.375 67.9062C13.1314 70.5029 13.5819 73.3052 14.0938 75.8438C15.4597 82.6182 18.6573 88.9898 22.875 94.4375C23.8675 95.7194 24.9015 96.9984 25.9688 98.2188C26.3443 98.6482 26.7005 99.0876 27.125 99.4688C28.0212 100.273 29.0605 100.881 30.0312 101.594C32.1014 103.114 34.1521 104.643 36.25 106.125C34.5975 104.194 32.9751 102.243 31.5625 100.125C30.9153 99.1548 30.4114 98.0856 29.75 97.125C28.8577 95.829 27.744 94.6816 26.8125 93.4062C24.9238 90.8203 23.1546 88.1135 21.6562 85.2812C19.8021 81.7765 18.3086 78.0288 17.5625 74.125C17.1691 72.0665 17.1431 70.0141 16.9688 67.9375C16.8775 66.8505 16.7221 65.7794 16.6562 64.6875C16.5083 62.2344 16.6403 59.81 16.9375 57.375Z" fill="#ffe0a1" stroke="none"/>
</g>
<path d="M34.6853 63.2413C58.7239 48.1904 69.6685 94.8358 38.4298 92.5905" fill="none" opacity="1" stroke="#000000" stroke-linecap="round" stroke-linejoin="miter" stroke-width="3.1" vectornator:layerName="Curve 1"/>
<path d="M57.5464 75.6087C61.9172 76.2694 81.4208 82.7405 87.8959 65.8715" fill="none" opacity="1" stroke="#000000" stroke-linecap="round" stroke-linejoin="miter" stroke-width="3.1" vectornator:layerName="Curve 2"/>
<path d="M14.3357 69.022C14.3357 44.5029 34.2123 24.6263 58.7314 24.6263C83.2505 24.6263 103.127 44.5029 103.127 69.022C103.127 93.541 83.2505 113.418 58.7314 113.418C34.2123 113.418 14.3357 93.541 14.3357 69.022Z" fill="none" opacity="1" stroke="#000000" stroke-linecap="butt" stroke-linejoin="miter" stroke-width="3.1" vectornator:layerName="Oval 1"/>
<path d="M44.2523 121.024C39.9313 112.245 35.7269 101.858 42.5835 92.9738C44.0097 91.1259 46.4591 88.5404 48.9271 87.631C55.7071 85.1328 65.2941 83.6878 67.4832 91.6772C69.3048 98.3257 67.541 104.892 68.7927 111.744C69.6303 116.33 74.6893 120.391 71.6306 125.382C67.8 131.633 60.7802 134.705 51.9353 130.701C47.7573 128.81 44.9801 122.259 43.6686 119.828" fill="#f89c1f" fill-rule="nonzero" opacity="1" stroke="none" vectornator:layerName="Curve 3"/>
<path d="M107.635 113.114C111.137 103.977 114.376 93.2503 106.737 85.0287C105.148 83.3186 102.473 80.9675 99.9325 80.2871C92.9528 78.4179 83.274 77.8538 81.8231 86.0096C80.6157 92.7965 82.9713 99.1745 82.3501 106.112C81.9344 110.755 77.2671 115.261 80.7685 119.952C85.1535 125.828 92.4243 128.246 100.867 123.452C104.855 121.187 107.023 114.41 108.107 111.87" fill="#f89c1f" fill-rule="nonzero" opacity="1" stroke="none" vectornator:layerName="Curve 2"/>
<g opacity="1" vectornator:layerName="Curve 4">
<path d="M40.875 101.906C40.5901 103.171 40.825 104.399 40.9375 105.688C41.0145 106.57 41.0548 107.468 41.1875 108.344C41.3845 109.644 41.7863 110.92 42.125 112.188C42.808 114.744 43.434 117.421 44.5938 119.812C45.7367 122.169 47.3839 124.266 49.25 126.094C49.6397 126.475 50.0091 126.881 50.4375 127.219C51.2459 127.856 52.3396 128.38 53.25 128.844C54.5439 129.503 55.8682 130.037 57.2812 130.375C56.0461 129.748 54.8467 128.968 53.875 127.969C53.1662 127.24 52.5616 126.438 51.875 125.688C50.0495 123.693 48.2607 121.749 46.9688 119.344C46.4771 118.429 46.1311 117.51 45.7812 116.531C44.9056 114.081 44.2672 111.595 43.5625 109.094C43.0832 107.392 42.3074 105.769 41.5938 104.156C41.415 103.752 41.2322 103.345 41.0625 102.938C40.9257 102.609 40.9139 102.255 40.875 101.906Z" fill="#ffe0a1" stroke="none"/>
</g>
<g opacity="1" vectornator:layerName="Curve 5">
<path d="M103.281 115.719C102.777 117.137 102.004 118.42 100.812 119.375C100.487 119.636 100.113 119.84 99.7812 120.094C99.2974 120.464 98.8856 120.875 98.375 121.219C97.0756 122.093 95.5466 122.741 94 123C93.0171 123.165 92.0796 123.072 91.0938 123.062C90.4352 123.056 89.7415 123.187 89.0938 123C88.5696 122.849 88.0711 122.326 87.7188 122.062C87.3458 121.783 86.9476 121.522 86.5938 121.219C86.2375 120.914 85.9558 120.548 85.5938 120.25C84.4647 119.32 83.1744 118.502 82 117.625C81.9599 117.595 81.9372 117.571 81.9062 117.531C81.6878 117.254 81.6863 116.767 81.5938 116.438C81.5474 116.84 81.3558 117.314 81.4688 117.719C81.6306 118.299 82.0579 118.769 82.375 119.281C82.6419 119.712 82.9012 120.144 83.1875 120.562C84.0986 121.894 85.1409 122.801 86.4062 123.781C87.0571 124.285 87.6251 124.859 88.4062 125.125C89.2736 125.42 90.1643 125.32 91.0625 125.344C91.7015 125.361 92.3274 125.429 92.9688 125.406C95.3904 125.319 97.6943 124.441 99.625 123C100.18 122.586 100.848 122.11 101.281 121.562C101.714 121.016 101.998 120.288 102.281 119.656C102.849 118.391 103.189 117.1 103.281 115.719Z" fill="#ffe0a1" stroke="none"/>
</g>
<g opacity="1" vectornator:layerName="Curve 6">
<path d="M83.4688 84.7812C83.6133 85.1333 83.8367 85.4971 83.9062 85.875C84.038 86.5904 83.9376 87.4925 83.9375 88.2188C83.9374 89.296 83.9567 90.3629 84.0312 91.4375C84.1797 93.5768 84.2498 95.7 84.2812 97.8438C84.2982 99.0016 84.2656 100.112 84.0312 101.25C83.6538 103.083 82.8436 104.636 82 106.281C81.1195 107.999 80.2638 109.756 79.4375 111.5C80.5077 109.879 81.8031 108.424 82.875 106.812C84.0436 105.055 84.9186 102.96 85.25 100.875C85.4677 99.5055 85.4068 98.131 85.375 96.75C85.3417 95.3055 85.2605 93.8785 85.1562 92.4375C85.0249 90.6215 84.7848 88.8814 84.4375 87.0938C84.3525 86.6564 84.3211 86.1952 84.1562 85.7812C84.0076 85.4078 83.6897 85.1119 83.4688 84.7812Z" fill="#ffe0a1" stroke="none"/>
</g>
<g opacity="1" vectornator:layerName="Curve 7">
<path d="M91.375 80.0625C90.4732 82.3721 90.1164 85.002 90.2812 87.4688C90.4166 89.4945 90.8762 91.5076 91.0625 93.5312C91.2211 95.2535 91.2632 96.9617 91.375 98.6875C91.5779 101.819 91.8839 104.935 92.4062 108.031C92.5256 108.738 92.6912 109.451 92.9375 110.125C93.1588 110.73 93.4221 111.319 93.6875 111.906C94.2543 113.16 95.2979 115.443 97.0625 114.812C95.0705 115.138 94.6133 112.084 94.4688 110.75C94.4346 110.435 94.4314 110.128 94.4062 109.812C94.3796 109.479 94.354 109.145 94.3125 108.812C94.223 108.096 94.0912 107.372 94 106.656C93.3879 101.85 93.4029 96.9845 92.75 92.1875C92.5272 90.5504 92.331 88.8794 92.0625 87.25C91.661 84.8135 91.0942 82.5422 91.375 80.0625Z" fill="#993d1c" stroke="none"/>
</g>
<path d="M44.2523 121.024C39.9313 112.245 35.7269 101.858 42.5835 92.9738C44.0097 91.1259 46.4591 88.5404 48.9271 87.631C55.7071 85.1328 65.2941 83.6878 67.4832 91.6772C69.3048 98.3257 67.541 104.892 68.7927 111.744C69.6303 116.33 74.6893 120.391 71.6306 125.382C67.8 131.633 60.7802 134.705 51.9353 130.701C47.7573 128.81 44.9801 122.259 43.6686 119.828" fill="none" opacity="1" stroke="#000000" stroke-linecap="round" stroke-linejoin="miter" stroke-width="3.70643" vectornator:layerName="Curve 3"/>
<path d="M107.635 113.114C111.137 103.977 114.376 93.2503 106.737 85.0287C105.148 83.3186 102.473 80.9675 99.9325 80.2871C92.9528 78.4179 83.274 77.8538 81.8231 86.0096C80.6157 92.7965 82.9713 99.1745 82.3501 106.112C81.9344 110.755 77.2671 115.261 80.7685 119.952C85.1535 125.828 92.4243 128.246 100.867 123.452C104.855 121.187 107.023 114.41 108.107 111.87" fill="none" opacity="1" stroke="#000000" stroke-linecap="round" stroke-linejoin="miter" stroke-width="3.70643" vectornator:layerName="Curve 2"/>
<path d="M91.872 63.8361C91.3456 62.7831 90.9763 61.6582 90.5648 60.5552C90.2304 59.6587 92.2664 58.7204 93.0383 58.902C93.693 59.056 93.8382 59.7302 94.1661 60.222C94.2964 60.4176 94.285 60.9709 94.4865 60.85C94.5259 60.8263 94.5756 60.5203 94.589 60.4783C94.8581 59.6326 94.9347 58.2612 96.0244 58.2612C96.2 58.2612 96.3575 58.3043 96.4601 58.4663C96.5693 58.6387 96.6075 59.5335 96.6908 59.5941C96.8715 59.7255 97.6391 59.3185 97.8186 59.2737C98.9653 58.987 100.385 58.8931 101.497 59.3377C101.647 59.3979 102.351 59.5835 102.407 59.7863C102.439 59.9062 101.435 61.6251 101.317 61.6958C100.845 61.9794 99.8505 61.7991 99.7666 62.5545C99.6796 63.3371 101.947 64.3466 101.369 65.6816C100.962 66.6187 99.4818 66.9581 98.6901 66.4761C98.5038 66.3628 98.4414 64.4266 98.1005 64.8357C97.3832 65.6965 99.2073 68.0336 96.5242 68.3088C95.9959 68.363 94.7425 68.4231 94.5505 67.6936C94.4019 67.1286 94.6834 66.4477 94.7684 65.8866C94.8057 65.6403 94.8453 65.1433 94.8453 65.1433C94.8453 65.1433 94.7468 65.6653 94.6915 65.9251C94.5818 66.4408 94.3376 66.9404 94.0379 67.3733C93.6995 67.8621 92.25 67.9467 91.7439 67.6936C91.3601 67.5017 91.221 66.7325 91.4363 66.3736C91.4642 66.3271 91.884 66.1516 91.7567 66.0789C91.0654 65.6838 89.5663 65.9343 89.1935 65.0023C88.5769 63.4607 91.2008 63.9987 91.7439 64.4512" fill="#ffeb82" fill-rule="nonzero" opacity="1" stroke="#c6a24a" stroke-linecap="round" stroke-linejoin="round" stroke-width="0.8" vectornator:layerName="Curve 2"/>
<path d="M105.669 56.312C105.949 57.4555 106.059 58.6344 106.216 59.8012C106.343 60.7495 104.149 61.2126 103.437 60.8641C102.833 60.5686 102.841 59.879 102.63 59.3267C102.547 59.1071 102.681 58.5701 102.457 58.6433C102.414 58.6576 102.297 58.9449 102.275 58.9829C101.825 59.7478 101.446 61.068 100.383 60.8261C100.212 60.7871 100.068 60.7101 100.004 60.5295C99.9356 60.3371 100.097 59.4562 100.029 59.3786C99.8822 59.2103 99.0435 59.4368 98.8585 59.4407C97.6768 59.4657 96.2715 59.2421 95.2863 58.5618C95.1529 58.4697 94.5076 58.1325 94.4986 57.9224C94.4934 57.7983 95.8541 56.3451 95.9847 56.3023C96.5084 56.1307 97.4378 56.5272 97.6873 55.8093C97.9458 55.0655 95.959 53.5779 96.8194 52.4046C97.4233 51.581 98.9424 51.5788 99.6074 52.2244C99.7639 52.3763 99.3949 54.278 99.8181 53.9548C100.709 53.2747 99.4488 50.591 102.126 50.9182C102.653 50.9827 103.889 51.2022 103.914 51.9561C103.933 52.5401 103.508 53.1415 103.3 53.6697C103.209 53.9016 103.06 54.3774 103.06 54.3774C103.06 54.3774 103.272 53.8903 103.384 53.6493C103.605 53.1707 103.954 52.7379 104.343 52.3823C104.781 51.9808 106.213 52.22 106.651 52.5791C106.982 52.8514 106.947 53.6324 106.657 53.9345C106.62 53.9737 106.172 54.0516 106.28 54.1508C106.866 54.6894 108.383 54.7779 108.54 55.7694C108.799 57.4095 106.36 56.3024 105.931 55.7406" fill="#ffeb82" fill-rule="nonzero" opacity="1" stroke="#c6a24a" stroke-linecap="round" stroke-linejoin="round" stroke-width="0.8" vectornator:layerName="Curve 1"/>
<path d="M102.73 63.0471C102.204 61.9941 101.834 60.8692 101.423 59.7662C101.089 58.8697 103.125 57.9314 103.896 58.113C104.551 58.267 104.696 58.9412 105.024 59.433C105.155 59.6286 105.143 60.1819 105.345 60.061C105.384 60.0373 105.434 59.7313 105.447 59.6893C105.716 58.8436 105.793 57.4722 106.883 57.4722C107.058 57.4722 107.216 57.5153 107.318 57.6773C107.427 57.8496 107.466 58.7445 107.549 58.805C107.73 58.9365 108.497 58.5295 108.677 58.4847C109.823 58.198 111.243 58.1041 112.355 58.5487C112.505 58.6089 113.21 58.7945 113.265 58.9973C113.298 59.1171 112.293 60.8361 112.176 60.9068C111.703 61.1904 110.709 61.0101 110.625 61.7655C110.538 62.5481 112.805 63.5576 112.227 64.8926C111.821 65.8297 110.34 66.1691 109.548 65.6871C109.362 65.5737 109.3 63.6376 108.959 64.0467C108.241 64.9075 110.065 67.2446 107.382 67.5198C106.854 67.574 105.601 67.6341 105.409 66.9046C105.26 66.3396 105.542 65.6587 105.627 65.0976C105.664 64.8513 105.704 64.3543 105.704 64.3543C105.704 64.3543 105.605 64.8763 105.55 65.1361C105.44 65.6518 105.196 66.1514 104.896 66.5842C104.558 67.0731 103.108 67.1577 102.602 66.9046C102.218 66.7127 102.079 65.9435 102.295 65.5846C102.322 65.5381 102.742 65.3626 102.615 65.2898C101.924 64.8948 100.425 65.1453 100.052 64.2133C99.4351 62.6717 102.059 63.2097 102.602 63.6622" fill="#ffeb82" fill-rule="nonzero" opacity="1" stroke="#c6a24a" stroke-linecap="round" stroke-linejoin="round" stroke-width="0.8" vectornator:layerName="Curve 3"/>
<path d="M96.8691 60.5298C96.3426 59.4768 95.9733 58.3519 95.5619 57.2489C95.2275 56.3524 97.2634 55.4141 98.0353 55.5957C98.69 55.7497 98.8352 56.4239 99.1631 56.9157C99.2935 57.1112 99.282 57.6646 99.4835 57.5437C99.5229 57.52 99.5727 57.214 99.586 57.172C99.8551 56.3263 99.9317 54.9549 101.021 54.9549C101.197 54.9549 101.355 54.998 101.457 55.16C101.566 55.3323 101.605 56.2272 101.688 56.2877C101.869 56.4192 102.636 56.0122 102.816 55.9673C103.962 55.6807 105.382 55.5868 106.494 56.0314C106.644 56.0916 107.348 56.2772 107.404 56.48C107.436 56.5998 106.432 58.3188 106.314 58.3895C105.842 58.6731 104.848 58.4928 104.764 59.2482C104.677 60.0308 106.944 61.0403 106.366 62.3753C105.959 63.3124 104.479 63.6518 103.687 63.1698C103.501 63.0564 103.438 61.1203 103.098 61.5294C102.38 62.3902 104.204 64.7273 101.521 65.0025C100.993 65.0567 99.7396 65.1168 99.5476 64.3873C99.3989 63.8223 99.6804 63.1414 99.7654 62.5803C99.8028 62.334 99.8423 61.837 99.8423 61.837C99.8423 61.837 99.7438 62.359 99.6886 62.6188C99.5788 63.1345 99.3346 63.6341 99.0349 64.0669C98.6965 64.5558 97.2471 64.6404 96.7409 64.3873C96.3571 64.1954 96.218 63.4262 96.4333 63.0673C96.4613 63.0208 96.881 62.8453 96.7537 62.7725C96.0624 62.3775 94.5634 62.628 94.1906 61.696C93.5739 60.1544 96.1979 60.6924 96.7409 61.1449" fill="#ffeb82" fill-rule="nonzero" opacity="1" stroke="#c6a24a" stroke-linecap="round" stroke-linejoin="round" stroke-width="0.8" vectornator:layerName="Curve 4"/>
<path d="M104.346 56.9605C103.819 55.9075 103.45 54.7826 103.039 53.6796C102.704 52.7831 104.74 51.8448 105.512 52.0264C106.167 52.1804 106.312 52.8546 106.64 53.3464C106.77 53.5419 106.759 54.0953 106.96 53.9744C107 53.9507 107.049 53.6447 107.063 53.6027C107.332 52.757 107.408 51.3856 108.498 51.3856C108.674 51.3856 108.831 51.4287 108.934 51.5906C109.043 51.763 109.081 52.6579 109.165 52.7184C109.345 52.8499 110.113 52.4429 110.292 52.398C111.439 52.1114 112.859 52.0175 113.971 52.4621C114.121 52.5223 114.825 52.7079 114.88 52.9107C114.913 53.0305 113.909 54.7495 113.791 54.8202C113.318 55.1038 112.324 54.9235 112.24 55.6789C112.153 56.4615 114.421 57.4709 113.842 58.8059C113.436 59.7431 111.956 60.0825 111.164 59.6005C110.978 59.4871 110.915 57.551 110.574 57.9601C109.857 58.8209 111.681 61.158 108.998 61.4332C108.47 61.4874 107.216 61.5475 107.024 60.818C106.876 60.253 107.157 59.5721 107.242 59.011C107.28 58.7647 107.319 58.2677 107.319 58.2677C107.319 58.2677 107.221 58.7897 107.165 59.0494C107.056 59.5652 106.811 60.0648 106.512 60.4976C106.173 60.9865 104.724 61.0711 104.218 60.818C103.834 60.6261 103.695 59.8569 103.91 59.498C103.938 59.4515 104.358 59.276 104.23 59.2032C103.539 58.8082 102.04 59.0587 101.667 58.1267C101.051 56.585 103.675 57.1231 104.218 57.5756" fill="#ffeb82" fill-rule="nonzero" opacity="1" stroke="#c6a24a" stroke-linecap="round" stroke-linejoin="round" stroke-width="0.8" vectornator:layerName="Curve 5"/>
<path d="M110.357 63.8737C109.831 62.8207 109.462 61.6958 109.05 60.5928C108.716 59.6963 110.752 58.7579 111.524 58.9396C112.178 59.0936 112.323 59.7678 112.651 60.2596C112.782 60.4551 112.77 61.0085 112.972 60.8876C113.011 60.8639 113.061 60.5579 113.074 60.5159C113.343 59.6701 113.42 58.2988 114.51 58.2988C114.685 58.2988 114.843 58.3419 114.945 58.5038C115.055 58.6762 115.093 59.571 115.176 59.6316C115.357 59.7631 116.124 59.3561 116.304 59.3112C117.451 59.0246 118.87 58.9306 119.982 59.3753C120.132 59.4355 120.837 59.6211 120.892 59.8239C120.925 59.9437 119.92 61.6627 119.803 61.7334C119.33 62.017 118.336 61.8367 118.252 62.5921C118.165 63.3747 120.432 64.3841 119.854 65.7191C119.448 66.6563 117.967 66.9957 117.175 66.5137C116.989 66.4003 116.927 64.4642 116.586 64.8733C115.868 65.734 117.693 68.0712 115.009 68.3464C114.481 68.4006 113.228 68.4607 113.036 67.7312C112.887 67.1662 113.169 66.4853 113.254 65.9242C113.291 65.6779 113.331 65.1809 113.331 65.1809C113.331 65.1809 113.232 65.7029 113.177 65.9626C113.067 66.4784 112.823 66.978 112.523 67.4108C112.185 67.8997 110.735 67.9843 110.229 67.7312C109.845 67.5393 109.706 66.77 109.922 66.4112C109.949 66.3646 110.369 66.1892 110.242 66.1164C109.551 65.7214 108.052 65.9719 107.679 65.0399C107.062 63.4982 109.686 64.0363 110.229 64.4888" fill="#ffeb82" fill-rule="nonzero" opacity="1" stroke="#c6a24a" stroke-linecap="round" stroke-linejoin="round" stroke-width="0.8" vectornator:layerName="Curve 6"/>
<path d="M114.19 56.735C113.663 55.6821 113.294 54.5572 112.882 53.4542C112.548 52.5577 114.584 51.6193 115.356 51.801C116.011 51.955 116.156 52.6292 116.484 53.121C116.614 53.3165 116.603 53.8699 116.804 53.749C116.843 53.7253 116.893 53.4193 116.907 53.3773C117.176 52.5315 117.252 51.1602 118.342 51.1602C118.518 51.1602 118.675 51.2033 118.778 51.3652C118.887 51.5376 118.925 52.4324 119.008 52.493C119.189 52.6244 119.957 52.2175 120.136 52.1726C121.283 51.8859 122.703 51.792 123.814 52.2367C123.965 52.2969 124.669 52.4825 124.724 52.6852C124.757 52.8051 123.753 54.5241 123.635 54.5948C123.162 54.8784 122.168 54.698 122.084 55.4535C121.997 56.2361 124.265 57.2455 123.686 58.5805C123.28 59.5177 121.799 59.857 121.008 59.3751C120.821 59.2617 120.759 57.3256 120.418 57.7347C119.701 58.5954 121.525 60.9326 118.842 61.2078C118.314 61.2619 117.06 61.3221 116.868 60.5926C116.719 60.0276 117.001 59.3467 117.086 58.7856C117.123 58.5393 117.163 58.0423 117.163 58.0423C117.163 58.0423 117.064 58.5642 117.009 58.824C116.899 59.3398 116.655 59.8393 116.355 60.2722C116.017 60.7611 114.568 60.8457 114.061 60.5926C113.678 60.4007 113.539 59.6314 113.754 59.2726C113.782 59.226 114.202 59.0506 114.074 58.9778C113.383 58.5828 111.884 58.8332 111.511 57.9013C110.894 56.3596 113.518 56.8976 114.061 57.3502" fill="#ffeb82" fill-rule="nonzero" opacity="1" stroke="#c6a24a" stroke-linecap="round" stroke-linejoin="round" stroke-width="0.8" vectornator:layerName="Curve 7"/>
<path d="M121.929 62.1454C121.403 61.0924 121.034 59.9675 120.622 58.8645C120.288 57.968 122.324 57.0297 123.096 57.2113C123.75 57.3653 123.896 58.0395 124.223 58.5313C124.354 58.7268 124.342 59.2802 124.544 59.1593C124.583 59.1356 124.633 58.8296 124.646 58.7876C124.915 57.9418 124.992 56.5705 126.082 56.5705C126.257 56.5705 126.415 56.6136 126.517 56.7755C126.627 56.9479 126.665 57.8427 126.748 57.9033C126.929 58.0348 127.696 57.6278 127.876 57.5829C129.023 57.2963 130.442 57.2023 131.554 57.647C131.705 57.7072 132.409 57.8928 132.464 58.0956C132.497 58.2154 131.492 59.9344 131.375 60.0051C130.902 60.2887 129.908 60.1084 129.824 60.8638C129.737 61.6464 132.004 62.6558 131.426 63.9908C131.02 64.928 129.539 65.2674 128.747 64.7854C128.561 64.672 128.499 62.7359 128.158 63.145C127.441 64.0057 129.265 66.3429 126.582 66.6181C126.053 66.6723 124.8 66.7324 124.608 66.0029C124.459 65.4379 124.741 64.757 124.826 64.1959C124.863 63.9496 124.903 63.4526 124.903 63.4526C124.903 63.4526 124.804 63.9746 124.749 64.2343C124.639 64.7501 124.395 65.2497 124.095 65.6825C123.757 66.1714 122.307 66.256 121.801 66.0029C121.417 65.811 121.278 65.0418 121.494 64.6829C121.522 64.6363 121.941 64.4609 121.814 64.3881C121.123 63.9931 119.624 64.2436 119.251 63.3116C118.634 61.7699 121.258 62.308 121.801 62.7605" fill="#ffeb82" fill-rule="nonzero" opacity="1" stroke="#c6a24a" stroke-linecap="round" stroke-linejoin="round" stroke-width="0.8" vectornator:layerName="Curve 8"/>
<path d="M125.709 65.5264C124.584 65.8745 123.414 66.0558 122.259 66.2822C121.32 66.4663 120.725 64.3047 121.03 63.5727C121.289 62.9518 121.977 62.9182 122.516 62.6748C122.73 62.578 123.274 62.6793 123.188 62.4608C123.171 62.4181 122.877 62.3192 122.838 62.2992C122.047 61.896 120.706 61.5973 120.884 60.5221C120.912 60.3488 120.981 60.2004 121.157 60.1256C121.345 60.0459 122.234 60.1538 122.307 60.0815C122.466 59.9246 122.19 59.101 122.175 58.9166C122.079 57.7386 122.217 56.3224 122.837 55.2979C122.921 55.1593 123.218 54.4947 123.427 54.4731C123.551 54.4604 125.084 55.731 125.134 55.8587C125.337 56.3712 124.997 57.3228 125.729 57.5285C126.487 57.7417 127.852 55.6688 129.075 56.4568C129.934 57.01 130.027 58.5262 129.423 59.229C129.281 59.3943 127.36 59.1407 127.709 59.5436C128.441 60.3915 131.044 58.9721 130.879 61.6642C130.846 62.1942 130.702 63.4407 129.951 63.5114C129.369 63.5662 128.743 63.1776 128.203 63.0024C127.966 62.9255 127.482 62.8055 127.482 62.8055C127.482 62.8055 127.981 62.9877 128.229 63.0845C128.72 63.2767 129.173 63.5989 129.551 63.9651C129.978 64.3786 129.826 65.8225 129.494 66.2807C129.242 66.6281 128.46 66.6402 128.141 66.3693C128.1 66.3342 127.995 65.8914 127.903 66.0052C127.4 66.623 127.404 68.1429 126.423 68.359C124.802 68.7165 125.76 66.2151 126.295 65.753" fill="#ffeb82" fill-rule="nonzero" opacity="1" stroke="#c6a24a" stroke-linecap="round" stroke-linejoin="round" stroke-width="0.8" vectornator:layerName="Curve 9"/>
<path d="M113.047 63.723C111.922 64.071 110.752 64.2523 109.597 64.4788C108.658 64.6628 108.064 62.5013 108.368 61.7692C108.627 61.1484 109.316 61.1148 109.854 60.8713C110.069 60.7745 110.613 60.8759 110.526 60.6574C110.509 60.6146 110.215 60.5158 110.176 60.4958C109.385 60.0926 108.045 59.7938 108.222 58.7187C108.251 58.5454 108.319 58.397 108.495 58.3221C108.683 58.2425 109.572 58.3504 109.646 58.2781C109.805 58.1211 109.528 57.2976 109.513 57.1132C109.417 55.9351 109.555 54.519 110.175 53.4945C110.259 53.3558 110.557 52.6913 110.766 52.6697C110.889 52.657 112.422 53.9275 112.472 54.0553C112.675 54.5678 112.336 55.5193 113.067 55.7251C113.825 55.9383 115.19 53.8653 116.413 54.6534C117.272 55.2066 117.366 56.7227 116.761 57.4255C116.619 57.5909 114.699 57.3373 115.047 57.7402C115.779 58.588 118.382 57.1687 118.217 59.8608C118.185 60.3908 118.04 61.6373 117.289 61.708C116.707 61.7627 116.081 61.3741 115.542 61.1989C115.305 61.122 114.821 61.0021 114.821 61.0021C114.821 61.0021 115.32 61.1842 115.567 61.2811C116.058 61.4733 116.511 61.7955 116.889 62.1616C117.317 62.5751 117.164 64.019 116.832 64.4772C116.58 64.8247 115.799 64.8367 115.48 64.5659C115.438 64.5307 115.334 64.088 115.241 64.2018C114.739 64.8196 114.742 66.3394 113.762 66.5556C112.14 66.9131 113.098 64.4117 113.633 63.9495" fill="#ffeb82" fill-rule="nonzero" opacity="1" stroke="#c6a24a" stroke-linecap="round" stroke-linejoin="round" stroke-width="0.8" vectornator:layerName="Curve 10"/>
<path d="M117.054 60.1443C117.333 61.2878 117.444 62.4667 117.6 63.6335C117.727 64.5818 115.534 65.0449 114.821 64.6964C114.217 64.4009 114.225 63.7113 114.015 63.159C113.931 62.9394 114.065 62.4024 113.842 62.4756C113.798 62.4899 113.681 62.7772 113.659 62.8152C113.209 63.5802 112.83 64.9003 111.767 64.6584C111.596 64.6194 111.452 64.5424 111.388 64.3618C111.32 64.1695 111.481 63.2885 111.413 63.2109C111.266 63.0426 110.428 63.2691 110.243 63.273C109.061 63.298 107.656 63.0744 106.671 62.3941C106.537 62.302 105.892 61.9648 105.883 61.7548C105.878 61.6306 107.238 60.1774 107.369 60.1346C107.893 59.963 108.822 60.3595 109.072 59.6416C109.33 58.8978 107.343 57.4103 108.204 56.237C108.808 55.4133 110.327 55.4111 110.992 56.0567C111.148 56.2086 110.779 58.1103 111.202 57.7871C112.093 57.107 110.833 54.4233 113.51 54.7505C114.037 54.815 115.273 55.0345 115.298 55.7884C115.318 56.3724 114.892 56.9738 114.685 57.502C114.594 57.7339 114.445 58.2097 114.445 58.2097C114.445 58.2097 114.657 57.7226 114.768 57.4816C114.99 57.0031 115.339 56.5702 115.727 56.2146C116.165 55.8131 117.597 56.0523 118.035 56.4114C118.366 56.6837 118.331 57.4647 118.042 57.7668C118.004 57.806 117.556 57.8839 117.664 57.9831C118.25 58.5217 119.768 58.6102 119.924 59.6017C120.183 61.2418 117.744 60.1347 117.315 59.5729" fill="#ffeb82" fill-rule="nonzero" opacity="1" stroke="#c6a24a" stroke-linecap="round" stroke-linejoin="round" stroke-width="0.8" vectornator:layerName="Curve 11"/>
<path d="M132.796 56.1241C133.076 57.2677 133.186 58.4465 133.342 59.6133C133.47 60.5616 131.276 61.0247 130.564 60.6763C129.96 60.3808 129.968 59.6912 129.757 59.1388C129.673 58.9193 129.807 58.3823 129.584 58.4554C129.54 58.4697 129.424 58.7571 129.402 58.795C128.952 59.56 128.572 60.8801 127.51 60.6383C127.339 60.5993 127.195 60.5223 127.131 60.3416C127.062 60.1493 127.224 59.2683 127.156 59.1908C127.009 59.0225 126.17 59.2489 125.985 59.2528C124.804 59.2778 123.398 59.0542 122.413 58.3739C122.28 58.2818 121.634 57.9446 121.625 57.7346C121.62 57.6105 122.981 56.1572 123.111 56.1145C123.635 55.9429 124.565 56.3394 124.814 55.6214C125.073 54.8776 123.086 53.3901 123.946 52.2168C124.55 51.3932 126.069 51.3909 126.734 52.0366C126.891 52.1885 126.522 54.0901 126.945 53.7669C127.835 53.0869 126.576 50.4031 129.253 50.7304C129.78 50.7948 131.015 51.0144 131.041 51.7683C131.06 52.3522 130.635 52.9536 130.427 53.4819C130.336 53.7137 130.187 54.1896 130.187 54.1896C130.187 54.1896 130.399 53.7025 130.511 53.4614C130.732 52.9829 131.081 52.55 131.469 52.1945C131.908 51.7929 133.34 52.0321 133.777 52.3912C134.109 52.6636 134.074 53.4445 133.784 53.7466C133.747 53.7858 133.298 53.8637 133.406 53.9629C133.993 54.5016 135.51 54.5901 135.667 55.5815C135.926 57.2216 133.487 56.1146 133.058 55.5528" fill="#ffeb82" fill-rule="nonzero" opacity="1" stroke="#c6a24a" stroke-linecap="round" stroke-linejoin="round" stroke-width="0.8" vectornator:layerName="Curve 15"/>
<path d="M136.334 61.2197C136.613 62.3633 136.724 63.5421 136.88 64.7089C137.007 65.6573 134.814 66.1203 134.101 65.7719C133.497 65.4764 133.505 64.7868 133.295 64.2345C133.211 64.0149 133.345 63.4779 133.122 63.551C133.078 63.5653 132.962 63.8527 132.939 63.8907C132.489 64.6556 132.11 65.9758 131.048 65.7339C130.876 65.6949 130.732 65.6179 130.668 65.4372C130.6 65.2449 130.761 64.3639 130.694 64.2864C130.547 64.1181 129.708 64.3445 129.523 64.3484C128.341 64.3734 126.936 64.1499 125.951 63.4695C125.817 63.3774 125.172 63.0402 125.163 62.8302C125.158 62.7061 126.519 61.2529 126.649 61.2101C127.173 61.0385 128.102 61.435 128.352 60.717C128.61 59.9732 126.623 58.4857 127.484 57.3124C128.088 56.4888 129.607 56.4865 130.272 57.1322C130.428 57.2841 130.059 59.1858 130.483 58.8625C131.373 58.1825 130.113 55.4988 132.791 55.826C133.318 55.8904 134.553 56.11 134.578 56.8639C134.598 57.4478 134.172 58.0493 133.965 58.5775C133.874 58.8093 133.725 59.2852 133.725 59.2852C133.725 59.2852 133.937 58.7981 134.048 58.557C134.27 58.0785 134.619 57.6456 135.007 57.2901C135.446 56.8885 136.878 57.1278 137.315 57.4869C137.647 57.7592 137.612 58.5401 137.322 58.8422C137.284 58.8814 136.836 58.9593 136.944 59.0585C137.531 59.5972 139.048 59.6857 139.204 60.6771C139.463 62.3172 137.024 61.2102 136.595 60.6484" fill="#ffeb82" fill-rule="nonzero" opacity="1" stroke="#c6a24a" stroke-linecap="round" stroke-linejoin="round" stroke-width="0.8" vectornator:layerName="Curve 16"/>
<path d="M130.321 60.6471C129.633 59.6917 129.089 58.6402 128.507 57.617C128.033 56.7854 129.893 55.534 130.684 55.5901C131.355 55.6377 131.606 56.28 132.008 56.7132C132.168 56.8854 132.245 57.4335 132.425 57.2819C132.46 57.2523 132.46 56.9423 132.467 56.8987C132.597 56.0208 132.454 54.6548 133.53 54.4808C133.703 54.4528 133.866 54.4702 133.993 54.6137C134.128 54.7665 134.309 55.6437 134.4 55.6902C134.6 55.7911 135.293 55.2668 135.463 55.1939C136.549 54.7278 137.935 54.4085 139.104 54.67C139.262 54.7054 139.987 54.7762 140.074 54.9675C140.125 55.0806 139.408 56.9379 139.303 57.0265C138.882 57.3819 137.872 57.3626 137.909 58.1217C137.949 58.9082 140.348 59.5427 139.99 60.9529C139.739 61.9429 138.331 62.5143 137.473 62.1649C137.271 62.0827 136.9 60.1813 136.629 60.6396C136.058 61.6038 138.232 63.6198 135.627 64.3198C135.114 64.4576 133.887 64.7171 133.581 64.0276C133.344 63.4936 133.513 62.7764 133.507 62.209C133.505 61.9599 133.465 61.4629 133.465 61.4629C133.465 61.4629 133.451 61.9939 133.438 62.2592C133.412 62.7859 133.25 63.318 133.023 63.7931C132.767 64.3297 131.35 64.6447 130.81 64.4756C130.4 64.3475 130.14 63.6103 130.296 63.2216C130.316 63.1712 130.702 62.931 130.565 62.8795C129.819 62.5999 128.38 63.0865 127.863 62.226C127.008 60.8025 129.684 60.9148 130.292 61.2748" fill="#ffeb82" fill-rule="nonzero" opacity="1" stroke="#c6a24a" stroke-linecap="round" stroke-linejoin="round" stroke-width="0.8" vectornator:layerName="Curve 12"/>
<path d="M117.652 53.8983C117.931 55.0418 118.042 56.2207 118.198 57.3875C118.325 58.3358 116.132 58.7989 115.419 58.4504C114.815 58.1549 114.823 57.4653 114.613 56.913C114.529 56.6934 114.663 56.1564 114.44 56.2296C114.396 56.2439 114.28 56.5312 114.257 56.5692C113.807 57.3342 113.428 58.6543 112.366 58.4124C112.194 58.3734 112.05 58.2964 111.986 58.1158C111.918 57.9235 112.079 57.0425 112.012 56.9649C111.865 56.7966 111.026 57.0231 110.841 57.027C109.659 57.052 108.254 56.8284 107.269 56.1481C107.135 56.056 106.49 55.7188 106.481 55.5088C106.476 55.3846 107.836 53.9314 107.967 53.8886C108.491 53.717 109.42 54.1135 109.67 53.3956C109.928 52.6518 107.941 51.1643 108.802 49.991C109.406 49.1673 110.925 49.1651 111.59 49.8107C111.746 49.9626 111.377 51.8643 111.801 51.5411C112.691 50.861 111.431 48.1773 114.108 48.5045C114.636 48.569 115.871 48.7885 115.896 49.5424C115.916 50.1264 115.49 50.7278 115.283 51.256C115.192 51.4879 115.043 51.9637 115.043 51.9637C115.043 51.9637 115.255 51.4766 115.366 51.2356C115.588 50.7571 115.937 50.3242 116.325 49.9686C116.764 49.5671 118.196 49.8063 118.633 50.1654C118.965 50.4377 118.929 51.2187 118.64 51.5208C118.602 51.56 118.154 51.6379 118.262 51.7371C118.848 52.2757 120.366 52.3642 120.522 53.3557C120.781 54.9958 118.342 53.8887 117.913 53.3269" fill="#ffeb82" fill-rule="nonzero" opacity="1" stroke="#c6a24a" stroke-linecap="round" stroke-linejoin="round" stroke-width="0.8" vectornator:layerName="Curve 13"/>
<path d="M102.476 65.5546C102.755 66.6982 102.866 67.877 103.022 69.0438C103.149 69.9921 100.956 70.4552 100.243 70.1068C99.6393 69.8113 99.6473 69.1217 99.4368 68.5693C99.3531 68.3497 99.4871 67.8127 99.2637 67.8859C99.22 67.9002 99.1036 68.1876 99.0813 68.2255C98.6312 68.9905 98.2521 70.3106 97.1896 70.0688C97.0183 70.0298 96.8743 69.9528 96.8102 69.7721C96.742 69.5798 96.9034 68.6988 96.8356 68.6212C96.6886 68.453 95.8499 68.6794 95.6649 68.6833C94.4832 68.7083 93.0779 68.4847 92.0927 67.8044C91.9594 67.7123 91.314 67.3751 91.305 67.1651C91.2998 67.0409 92.6605 65.5877 92.7911 65.545C93.3148 65.3734 94.2442 65.7699 94.4937 65.0519C94.7522 64.3081 92.7654 62.8206 93.6258 61.6473C94.2298 60.8237 95.7488 60.8214 96.4138 61.4671C96.5703 61.619 96.2013 63.5206 96.6245 63.1974C97.515 62.5174 96.2552 59.8336 98.9325 60.1609C99.4596 60.2253 100.695 60.4449 100.72 61.1988C100.74 61.7827 100.314 62.3841 100.107 62.9124C100.016 63.1442 99.8668 63.6201 99.8668 63.6201C99.8668 63.6201 100.079 63.133 100.19 62.8919C100.412 62.4134 100.761 61.9805 101.149 61.6249C101.588 61.2234 103.02 61.4626 103.457 61.8217C103.789 62.0941 103.753 62.875 103.464 63.1771C103.426 63.2163 102.978 63.2942 103.086 63.3934C103.672 63.9321 105.19 64.0205 105.346 65.012C105.605 66.6521 103.166 65.5451 102.737 64.9833" fill="#ffeb82" fill-rule="nonzero" opacity="1" stroke="#c6a24a" stroke-linecap="round" stroke-linejoin="round" stroke-width="0.8" vectornator:layerName="Curve 14"/>
<path d="M94.2809 110.294C94.2809 100.994 94.7248 92.0011 92.774 82.8974C91.8499 78.5852 91.107 74.0838 90.7933 69.6928C90.7496 69.0814 89.8847 66.7923 90.387 66.29C92.115 64.562 95.4133 68.2902 96.0752 69.5404C96.2569 69.8836 96.8652 71.3471 97.4972 70.8609C98.7031 69.9332 98.3057 67.6589 100.189 67.3058C101.461 67.0673 102.06 69.8795 103.693 68.8294C104.97 68.0086 104.684 65.2743 106.588 65.0204C108.668 64.743 107.918 68.6033 109.077 67.966C111.478 66.6454 112.259 62.8666 115.882 63.4968C117.885 63.8451 120.017 68.0103 120.656 67.8137C122.61 67.2124 122.66 61.8039 126.497 62.3794C128.831 62.7296 128.109 66.8269 129.747 67.7629C132.227 69.1802 136.147 58.3983 138.736 65.2235C138.983 65.8748 139.152 66.7177 139.244 67.4074C139.977 72.9011 138.288 78.1787 137.263 83.5069C135.951 90.3314 133.789 96.7025 133.148 103.625C132.935 105.925 131.416 117.42 131.416 117.42C131.416 117.42 123.796 118.55 121.773 118.55C119.539 118.55 117.304 118.55 115.07 118.55C108.72 118.55 103.328 119.353 97.6179 115.746C95.3635 114.322 94.5515 114.062 94.5515 111.44" fill="#e92021" fill-rule="nonzero" opacity="1" stroke="none" vectornator:layerName="Curve 1"/>
<path d="M109.61 69.0734C110.003 73.7474 108.991 118.981 109.637 119.304C110.196 119.583 116.054 119.301 116.666 119.023C117.164 118.796 118.73 72.7965 119.13 69.4332C119.215 68.7218 120.468 68.1841 119.924 67.7178C119.66 67.4912 118.339 67.2282 117.913 66.9916C117.067 66.5214 115.662 65.0919 114.741 64.7672C111.674 63.6845 109.764 64.6488 109.764 67.6459" fill="#ffffff" fill-rule="nonzero" opacity="1" stroke="none" vectornator:layerName="Curve 2"/>
<path d="M130.661 68.6691C130.093 76.8673 126.498 118.681 126.498 118.681C126.498 118.681 128.634 118.962 129.195 118.494C131.042 116.955 131.622 114.028 132.007 111.795C133.272 104.457 134.915 96.9378 135.775 89.5442C136.119 86.5877 136.237 83.6237 136.792 80.6917C137.283 78.0955 138.146 75.574 138.646 72.9757C139.203 70.0786 139.672 66.6672 137.809 64.1831C135.046 60.4992 130.843 66.0337 130.661 68.6691Z" fill="#ffffff" fill-rule="nonzero" opacity="1" stroke="none" vectornator:layerName="Curve 3"/>
<path d="M102.928 118.593C102.928 110.857 103.187 69.5193 102.521 68.253C101.263 65.8629 98.5583 67.2253 97.8937 69.2191C96.772 72.5843 97.6446 114.331 98.8598 116.762" fill="#ffffff" fill-rule="nonzero" opacity="1" stroke="none" vectornator:layerName="Curve 4"/>
<path d="M104.504 65.7907C106.224 71.8244 104.762 115.236 104.423 118.436" fill="none" opacity="1" stroke="#aa2021" stroke-linecap="butt" stroke-linejoin="miter" stroke-width="1.69313" vectornator:layerName="Curve 5"/>
<g opacity="1" vectornator:layerName="Curve 6">
<path d="M128.719 70.5312C128.532 72.1673 128.298 73.8252 128.188 75.4688C127.968 78.7423 127.989 82.0394 127.719 85.3125C127.567 87.1544 127.257 88.9458 127.062 90.7812C126.868 92.625 126.796 94.4934 126.688 96.3438C127.222 93.2888 127.982 90.3043 128.344 87.2188C128.992 81.6902 128.963 76.0795 128.719 70.5312Z" fill="#aa2021" stroke="none"/>
</g>
<g opacity="1" vectornator:layerName="Curve 7">
<path d="M119.219 100.688C119.118 101.508 118.983 102.331 118.938 103.156C118.87 104.376 118.994 105.626 119.062 106.844C119.155 108.474 119.242 110.128 119.438 111.75C119.585 112.974 119.857 114.192 120.062 115.406C120.093 114.583 120.161 113.761 120.188 112.938C120.24 111.303 120.054 109.659 119.938 108.031C119.762 105.571 119.597 103.127 119.219 100.688Z" fill="#aa2021" stroke="none"/>
</g>
<g opacity="1" vectornator:layerName="Curve 8">
<path d="M93.875 74.6562C93.7522 76.9706 93.5915 79.3061 93.625 81.625C93.6794 85.3878 93.9093 89.1499 94.125 92.9062C94.2872 95.731 94.4123 98.5875 94.6562 101.406C94.8583 103.741 95.1162 106.07 95.3125 108.406C95.3162 106.063 95.4277 103.686 95.375 101.344C95.3007 98.0416 95.0639 94.7347 94.875 91.4375C94.6868 88.1534 94.5517 84.8778 94.375 81.5938C94.2506 79.2819 94.0322 76.9664 93.875 74.6562Z" fill="#aa2021" stroke="none"/>
</g>
<g opacity="1" vectornator:layerName="Curve 9">
<path d="M137.719 68.4062C135.072 80.8243 132.942 93.3629 130.969 105.906C130.416 109.418 130.054 112.947 129.562 116.469C130.261 112.982 131.082 109.529 131.719 106.031C133.994 93.5392 136.12 81.0022 137.719 68.4062Z" fill="#f9ecff" stroke="none"/>
</g>
<g opacity="1" vectornator:layerName="Curve 10">
<path d="M111.469 74.0312C111.345 76.6385 111.175 79.2324 111.219 81.8438C111.289 86.0162 111.558 90.2105 111.812 94.375C112.004 97.4971 112.155 100.635 112.438 103.75C112.674 106.349 113.009 108.932 113.25 111.531C113.209 108.921 113.244 106.295 113.156 103.688C113.033 100.04 112.749 96.393 112.531 92.75C112.313 89.1071 112.18 85.488 112 81.8438C111.871 79.2394 111.629 76.6341 111.469 74.0312Z" fill="#f9ecff" stroke="none"/>
</g>
<g opacity="1" vectornator:layerName="Curve 11">
<path d="M100.219 75.2188C100.12 77.4782 100 79.7382 99.9688 82C99.9135 85.9517 100.146 89.9275 100.312 93.875C100.503 98.3914 100.638 102.926 100.906 107.438C101.074 110.261 101.271 113.08 101.406 115.906C101.471 113.079 101.645 110.234 101.625 107.406C101.593 102.884 101.332 98.3609 101.125 93.8438C100.97 90.4576 100.87 87.0734 100.719 83.6875C100.593 80.8674 100.379 78.0373 100.219 75.2188Z" fill="#f9ecff" stroke="none"/>
</g>
<path d="M94.7152 114.081C94.7152 114.081 92.3399 77.6737 90.4407 70.3408C88.5415 63.0079 96.2224 68.4781 96.3977 70.6083C96.573 72.7385 98.0918 62.9316 102.42 69.0781C102.42 69.0781 105.718 61.1961 108.823 68.8143C108.823 68.8143 110.119 64.2875 113.39 63.7625C116.134 63.3221 117.246 65.8792 119.427 68.4063C119.427 68.4063 123.114 63.7195 124.95 62.8151C126.785 61.9106 129.779 66.691 130.531 68.6239C130.531 68.6239 134.184 62.8823 135.907 62.5168C135.907 62.5168 138.966 62.7592 139.574 68.1251C139.574 68.1251 133.445 98.9865 131.611 117.399C131.611 117.399 117.444 120.136 103.525 118.45L94.7152 114.081Z" fill="none" opacity="1" stroke="#000000" stroke-linecap="round" stroke-linejoin="round" stroke-width="1.77898" vectornator:layerName="Curve 1"/>
<path d="M140.4 82.2751C134.63 78.5336 122.143 72.7327 114.573 75.3668C109.138 77.2584 107.152 89.5583 109.498 94.0795C111.443 97.8288 115.279 99.9418 118.942 101.524C124.51 103.93 132.497 104.759 137.958 101.591C144.543 97.7721 146.718 86.372 140.4 82.2751Z" fill="#f89c1f" fill-rule="nonzero" opacity="1" stroke="none" vectornator:layerName="Curve 1"/>
<g opacity="1" vectornator:layerName="Curve 2">
<path d="M141 84.8125C141.269 86.6997 141.454 88.6045 141.125 90.5C140.972 91.3822 140.651 92.1867 140.375 93.0312C140.145 93.7374 139.951 94.4039 139.594 95.0625C136.747 100.307 129.168 100.837 123.969 99.9375C122.846 99.7433 121.794 99.415 120.688 99.1562C118.046 98.5384 115.546 97.9344 113.188 96.5312C114.996 98.6004 117.362 100.452 119.938 101.469C121.363 102.032 122.959 102.307 124.469 102.531C127.509 102.984 130.66 103.036 133.656 102.281C137.42 101.333 140.688 99.0357 142.156 95.3438C142.329 94.9088 142.646 94.024 142.719 93.5625C142.875 92.5678 142.735 91.4866 142.594 90.5C142.312 88.5293 141.708 86.6658 141 84.8125Z" fill="#ffe0a1" stroke="none"/>
</g>
<path d="M140.4 82.2751C134.63 78.5336 122.143 72.7327 114.573 75.3668C109.138 77.2584 107.152 89.5583 109.498 94.0795C111.443 97.8288 115.279 99.9418 118.942 101.524C124.51 103.93 132.497 104.759 137.958 101.591C144.543 97.7721 146.718 86.372 140.4 82.2751Z" fill="none" opacity="1" stroke="#000000" stroke-linecap="round" stroke-linejoin="miter" stroke-width="3" vectornator:layerName="Curve 1"/>
<path d="M13.6934 27.0436C13.6934 13.9647 24.296 3.36216 37.3749 3.36216C50.4538 3.36216 61.0564 13.9647 61.0564 27.0436C61.0564 40.1226 50.4538 50.7251 37.3749 50.7251C24.296 50.7251 13.6934 40.1226 13.6934 27.0436Z" fill="#ffffff" fill-rule="nonzero" opacity="1" stroke="#000000" stroke-linecap="butt" stroke-linejoin="miter" stroke-width="3.1" vectornator:layerName="Oval 2"/>
<path d="M63.0293 27.2016C63.0293 14.3486 73.4487 3.92918 86.3017 3.92918C99.1546 3.92918 109.574 14.3486 109.574 27.2016C109.574 40.0545 99.1546 50.4739 86.3017 50.4739C73.4487 50.4739 63.0293 40.0545 63.0293 27.2016Z" fill="#ffffff" fill-rule="nonzero" opacity="1" stroke="#000000" stroke-linecap="butt" stroke-linejoin="miter" stroke-width="3.1" vectornator:layerName="Oval 1"/>
<path d="M36.1517 27.6486C37.6292 19.3024 42.1487 13.2416 46.2878 13.8573C49.8702 14.3902 51.9411 21.6218 50.7649 25.9339L44.3398 28.1598L49.7741 32.59C49.4023 36.47 46.304 45.7226 40.9373 44.0815C36.9357 42.8578 34.6742 35.9948 36.1517 27.6486Z" fill="#000000" fill-rule="nonzero" opacity="1" stroke="none" vectornator:layerName="Oval 6"/>
<path d="M80.7247 27.7186C82.2022 19.3724 86.7217 13.3116 90.8608 13.9272C94.4432 14.4601 96.5141 21.6918 95.3379 26.0039L88.9128 28.2297L94.3471 32.66C93.9753 36.54 90.877 45.7926 85.5103 44.1515C81.5087 42.9278 79.2472 36.0648 80.7247 27.7186Z" fill="#000000" fill-rule="nonzero" opacity="1" stroke="none" vectornator:layerName="Oval 5"/>
<path d="M18.0377 17.7021L64.1465 17.7021L64.1465 44.3758L18.0377 44.3758L18.0377 17.7021Z" fill="#ffffff" fill-rule="nonzero" opacity="1" stroke="none" vectornator:layerName="Rectangle 3"/>
<path d="M73.0073 17.7081L119.116 17.7081L119.116 44.3818L73.0073 44.3818L73.0073 17.7081Z" fill="#ffffff" fill-rule="nonzero" opacity="1" stroke="none" vectornator:layerName="Rectangle 2"/>
<path d="M24.4672 23.0493C24.4672 22.4441 25.0293 21.9534 25.7227 21.9534L58.5165 21.9534C59.2099 21.9534 59.772 22.4441 59.772 23.0493L59.772 39.3021C59.772 39.9073 59.2099 40.398 58.5165 40.398L25.7227 40.398C25.0293 40.398 24.4672 39.9073 24.4672 39.3021L24.4672 23.0493Z" fill="#ef3453" fill-rule="nonzero" opacity="1" stroke="none" vectornator:layerName="Rectangle 6"/>
<path d="M78.5328 23.0511C78.5328 22.4459 79.0949 21.9552 79.7883 21.9552L112.582 21.9552C113.275 21.9552 113.838 22.4459 113.838 23.0511L113.838 39.3039C113.838 39.9091 113.275 40.3998 112.582 40.3998L79.7883 40.3998C79.0949 40.3998 78.5328 39.9091 78.5328 39.3039L78.5328 23.0511Z" fill="#00ccff" fill-rule="nonzero" opacity="1" stroke="none" vectornator:layerName="Rectangle 5"/>
<g opacity="0.641473" vectornator:layerName="Curve 1">
<path d="M46.4375 24.2188C44.7743 24.5831 43.0923 24.8153 41.4688 25.3438C39.2274 26.0733 37.0297 27.074 34.9062 28.0938C33.6903 28.6777 32.3628 29.2147 31.2812 30.0312C30.3389 30.7427 29.4987 31.6192 28.7188 32.5C29.7806 32.0177 30.8819 31.6954 31.9688 31.2812C33.2133 30.807 34.3754 30.0737 35.5938 29.5312C37.7278 28.5811 39.923 27.7862 42.0312 26.7812C43.5684 26.0485 44.9687 25.0735 46.4375 24.2188Z" fill="#ffd8de" stroke="none"/>
</g>
<g opacity="0.641473" vectornator:layerName="Curve 4">
<path d="M57.875 26.4688C56.775 26.7761 55.6726 27.1058 54.5625 27.375C53.9988 27.5117 52.832 27.7216 52.2812 27.9062C51.5446 28.1533 50.8434 28.5165 50.125 28.8125C48.3221 29.5553 46.5442 30.3543 44.7812 31.1875C43.054 32.0038 41.3573 32.8808 39.6562 33.75C38.9946 34.0881 38.3175 34.3873 37.6875 34.7812C36.1932 35.7156 34.851 36.9371 33.5 38.0625C35.1485 37.4516 36.8546 36.9752 38.4688 36.2812C39.4785 35.8471 40.4493 35.263 41.4375 34.7812C42.805 34.1146 44.1827 33.4844 45.5625 32.8438C47.3177 32.0288 49.0916 31.2279 50.8438 30.4062C51.5433 30.0782 52.2874 29.8333 52.9688 29.4688C53.6542 29.102 54.2484 28.6018 54.9062 28.1875C55.8723 27.579 56.8808 27.0292 57.875 26.4688Z" fill="#ffd8de" stroke="none"/>
</g>
<g opacity="1" vectornator:layerName="Curve 2">
<path d="M112.062 26.75C110.963 27.0573 109.86 27.3871 108.75 27.6562C108.186 27.7929 107.019 28.0028 106.469 28.1875C105.732 28.4345 105.031 28.7978 104.312 29.0938C102.51 29.8365 100.732 30.6356 98.9688 31.4688C97.2415 32.2851 95.5448 33.162 93.8438 34.0312C93.1821 34.3694 92.505 34.6686 91.875 35.0625C90.3807 35.9968 89.0072 37.2184 87.6562 38.3438C89.3048 37.7329 91.0421 37.2564 92.6562 36.5625C93.666 36.1284 94.6368 35.5755 95.625 35.0938C96.9925 34.4271 98.3702 33.7657 99.75 33.125C101.505 32.31 103.279 31.5404 105.031 30.7188C105.731 30.3907 106.444 30.1145 107.125 29.75C107.81 29.3832 108.436 28.8831 109.094 28.4688C110.06 27.8603 111.068 27.3105 112.062 26.75Z" fill="#d1eeff" stroke="none"/>
</g>
<g opacity="1" vectornator:layerName="Curve 3">
<path d="M97.5312 26.0312C96.1691 26.3678 94.7903 26.5471 93.4688 27.0312C91.3341 27.8133 89.2814 28.957 87.25 29.9688C86.527 30.3289 85.5028 30.8039 84.8438 31.2812C84.072 31.8402 83.3957 32.5186 82.6875 33.1562C83.6222 32.9814 84.5867 32.8897 85.5 32.625C86.7997 32.2483 88.025 31.5314 89.25 30.9688C90.8979 30.2118 92.6258 29.489 94.1875 28.5625C95.4005 27.8429 96.4135 26.8835 97.5312 26.0312Z" fill="#d1eeff" stroke="none"/>
</g>
<path d="M64.278 31.2568C64.278 29.9108 65.2981 28.8197 66.5564 28.8197L70.7533 28.8197C72.0116 28.8197 73.0316 29.9108 73.0316 31.2568L73.0316 31.2568C73.0316 32.6028 72.0116 33.6939 70.7533 33.6939L66.5564 33.6939C65.2981 33.6939 64.278 32.6028 64.278 31.2568L64.278 31.2568Z" fill="#ffffff" fill-rule="nonzero" opacity="1" stroke="none" vectornator:layerName="Rectangle 7"/>
<path d="M18.8897 26.319C15.7733 24.6742 11.4261 20.9625 6.59109 21.6569C2.68719 22.2176 2.67789 30.5125 4.75823 31.3799C7.93019 32.7025 9.8685 25.852 9.8685 25.852L18.9197 31.1245C18.9197 31.1245 18.8719 27.274 17.9162 26.7696" fill="#ffffff" fill-rule="nonzero" opacity="1" stroke="none" vectornator:layerName="Curve 5"/>
<path d="M18.0377 17.7021L64.1465 17.7021L64.1465 44.3758L18.0377 44.3758L18.0377 17.7021Z" fill="none" opacity="1" stroke="#000000" stroke-linecap="round" stroke-linejoin="round" stroke-width="1.86708" vectornator:layerName="Rectangle 3"/>
<path d="M73.0073 17.7081L119.116 17.7081L119.116 44.3818L73.0073 44.3818L73.0073 17.7081Z" fill="none" opacity="1" stroke="#000000" stroke-linecap="round" stroke-linejoin="round" stroke-width="1.86708" vectornator:layerName="Rectangle 2"/>
<path d="M24.4672 23.0493C24.4672 22.4441 25.0293 21.9534 25.7227 21.9534L58.5165 21.9534C59.2099 21.9534 59.772 22.4441 59.772 23.0493L59.772 39.3021C59.772 39.9073 59.2099 40.398 58.5165 40.398L25.7227 40.398C25.0293 40.398 24.4672 39.9073 24.4672 39.3021L24.4672 23.0493Z" fill="none" opacity="1" stroke="#000000" stroke-linecap="round" stroke-linejoin="round" stroke-width="1.60954" vectornator:layerName="Rectangle 6"/>
<path d="M78.5328 23.0511C78.5328 22.4459 79.0949 21.9552 79.7883 21.9552L112.582 21.9552C113.275 21.9552 113.838 22.4459 113.838 23.0511L113.838 39.3039C113.838 39.9091 113.275 40.3998 112.582 40.3998L79.7883 40.3998C79.0949 40.3998 78.5328 39.9091 78.5328 39.3039L78.5328 23.0511Z" fill="none" opacity="1" stroke="#000000" stroke-linecap="round" stroke-linejoin="round" stroke-width="1.60954" vectornator:layerName="Rectangle 5"/>
<path d="M64.3126 29.0352L73.0777 29.2569" fill="none" opacity="1" stroke="#000000" stroke-linecap="round" stroke-linejoin="round" stroke-width="1.60954" vectornator:layerName="Curve 1"/>
<path d="M64.4793 33.5418C66.6398 33.6919 72.8433 33.7945 72.8433 33.7945" fill="none" opacity="1" stroke="#000000" stroke-linecap="round" stroke-linejoin="round" stroke-width="1.60954" vectornator:layerName="Curve 2"/>
<path d="M17.8755 25.3112C13.0948 22.2622 4.29917 16.8889 3.18474 25.7943C3.04669 26.8975 1.57923 33.5845 6.9442 32.4033C8.68801 32.0194 8.01345 29.5817 8.83058 27.3523C10.1151 23.8477 15.1982 30.1507 17.5085 31.6109" fill="none" opacity="1" stroke="#000000" stroke-linecap="round" stroke-linejoin="round" stroke-width="1.60954" vectornator:layerName="Curve 3"/>
</g>
</g>
</svg>
