<?xml version="1.0" encoding="UTF-8" standalone="no"?>
<!DOCTYPE svg PUBLIC "-//W3C//DTD SVG 1.1//EN" "http://www.w3.org/Graphics/SVG/1.1/DTD/svg11.dtd">
<!-- Created with Vectornator (http://vectornator.io/) -->
<svg height="100%" stroke-miterlimit="10" style="fill-rule:nonzero;clip-rule:evenodd;stroke-linecap:round;stroke-linejoin:round;" version="1.1" viewBox="0 0 115.472 132.985" width="100%" xml:space="preserve" xmlns="http://www.w3.org/2000/svg" xmlns:vectornator="http://vectornator.io" xmlns:xlink="http://www.w3.org/1999/xlink">
<defs/>
<g id="Layer-5" vectornator:layerName="Layer 5"/>
<g id="Layer-3" vectornator:layerName="Layer 3"/>
<g id="Layer-4" vectornator:layerName="Layer 4"/>
<g id="Layer-2" vectornator:layerName="Layer 2"/>
<g id="Glob-Body" vectornator:layerName="Glob Body"/>
<g id="Glob-Body-copy" vectornator:layerName="Glob Body copy"/>
<g id="Glob-Body-copy_2" vectornator:layerName="Glob Body copy"/>
<g id="Glob-Body-copy-copy" vectornator:layerName="Glob Body copy copy"/>
<g id="Layer-1" vectornator:layerName="Layer 1"/>
<g id="Glasses" vectornator:layerName="Glasses"/>
<g id="Glasses-copy" vectornator:layerName="Glasses copy"/>
<g id="Layer-6" vectornator:layerName="Layer 6"/>
<g id="Layer-7" vectornator:layerName="Layer 7">
<g opacity="1" vectornator:layerName="Group 1">
<path d="M54.4865 92.2322C55.3037 98.2561 56.3044 103.202 55.178 109.075C54.3474 113.406 51.8788 119.543 54.0846 123.996C56.3028 128.474 74.6269 128.933 77.4002 125.3C79.6606 122.34 79.2514 113.986 75.4583 112.518C71.6742 111.053 63.7626 116.286 62.8992 115.946C61.8619 115.538 63.5627 110.629 63.8001 109.82C64.7511 106.582 65.1224 92.2399 61.2947 91.3514" fill="#00e874" fill-rule="nonzero" opacity="1" stroke="none" vectornator:layerName="Curve 1"/>
<g opacity="1" vectornator:layerName="Curve 2">
<path d="M71.875 115.031C72.5796 115.127 73.2348 115.235 73.8438 115.625C74.5718 116.092 74.8922 116.761 75.125 117.562C75.772 119.791 74.7174 122.041 72.9375 123.406C71.9136 124.192 70.7708 124.756 69.4688 124.875C68.6403 124.951 67.8263 124.838 67 124.812C65.5393 124.767 64.0759 124.838 62.625 125C64.9333 125.316 67.2114 126.168 69.5625 125.969C71.2914 125.822 72.8195 125.05 74.125 123.938C76.586 121.841 77.8126 116.746 74.0312 115.281C73.3293 115.009 72.6163 115.003 71.875 115.031Z" fill="#87ffef" stroke="none"/>
</g>
<path d="M61.9949 115.967C61.9949 115.967 71.8723 97.4999 58.2693 89.1464" fill="none" opacity="1" stroke="#000000" stroke-linecap="round" stroke-linejoin="miter" stroke-width="3.1469" vectornator:layerName="Curve 2"/>
<path d="M51.0782 87.0363C51.0782 87.0363 58.0516 102.747 54.4367 109.053C50.8218 115.359 47.0503 127.558 57.2939 127.497C67.5376 127.436 64.7256 128.719 68.2856 128.689C72.1237 128.656 77.137 126.524 78.0253 123.731C79.3402 119.597 78.7943 104.157 62.3606 116.965" fill="none" opacity="1" stroke="#000000" stroke-linecap="round" stroke-linejoin="miter" stroke-width="3.1469" vectornator:layerName="Curve 1"/>
<path d="M32.8584 91.1114C33.5924 96.5214 36.772 102.069 36.0036 107.657C35.1354 113.972 29.8269 121.436 32.7484 128.09C33.7234 130.311 39.7096 130.346 41.5842 130.41C48.0616 130.633 63.9597 131.18 59.3985 118.738C57.6828 114.058 50.4626 114.754 46.9449 115.284C45.7611 115.463 44.7211 115.72 43.5894 116.082C43.1326 116.229 42.47 117.183 42.2899 116.717C42.0846 116.186 44.0954 112.184 44.2577 111.307C45.3677 105.307 45.4298 94.4529 39.0753 91.4886" fill="#00e874" fill-rule="nonzero" opacity="1" stroke="none" vectornator:layerName="Curve 1"/>
<g opacity="1" vectornator:layerName="Curve 2">
<path d="M35.6875 93.375C36.3463 95.1473 36.7549 96.9069 37.1562 98.75C37.9075 102.2 38.259 105.627 37.875 109.156C37.6642 111.093 37.2096 112.912 36.6875 114.781C36.1648 116.652 35.5764 118.328 34.625 120.031C35.7777 118.528 36.9282 116.888 37.6562 115.125C38.5605 112.936 38.9687 110.411 39.125 108.062C39.3345 104.914 39.0919 101.508 38.1875 98.4688C37.6442 96.6431 36.6944 94.9764 35.6875 93.375Z" fill="#87ffef" stroke="none"/>
</g>
<path d="M31.5559 89.1259C31.5559 89.1259 38.5293 104.837 34.9144 111.143C31.2995 117.449 27.5279 129.648 37.7716 129.587C48.0153 129.526 45.2033 130.809 48.7632 130.778C52.6013 130.745 57.6146 128.614 58.503 125.821C59.8179 121.687 59.2719 106.247 42.8382 119.055" fill="none" opacity="1" stroke="#000000" stroke-linecap="round" stroke-linejoin="miter" stroke-width="3.1469" vectornator:layerName="Curve 3"/>
<path d="M42.4725 118.056C42.4725 118.056 52.3499 99.5895 38.7469 91.236" fill="none" opacity="1" stroke="#000000" stroke-linecap="round" stroke-linejoin="miter" stroke-width="3.1469" vectornator:layerName="Curve 4"/>
<path d="M15.5699 56.8749C15.5699 35.6295 32.7927 18.4067 54.0381 18.4067C75.2835 18.4067 92.5063 35.6295 92.5063 56.8749C92.5063 78.1203 75.2835 95.3431 54.0381 95.3431C32.7927 95.3431 15.5699 78.1203 15.5699 56.8749Z" fill="#00e874" fill-rule="nonzero" opacity="1" stroke="none" vectornator:layerName="Oval 1"/>
<g opacity="1" vectornator:layerName="Curve 1">
<path d="M87.4062 49C87.3988 49.0157 87.4218 49.0551 87.4375 49.0625C89.0898 49.9132 89.3285 51.8207 89.375 53.5312C89.4366 55.8008 89.1602 58.1766 88.9062 60.4375C88.1508 67.1635 85.9273 73.8476 81.8438 79.3125C80.9764 80.4732 79.9492 81.529 78.9375 82.5625C76.9461 84.5967 74.5794 86.1668 71.9375 87.2188C78.987 85.3619 83.7602 79.9319 86.8438 73.5C88.9908 69.0217 90.1653 64.0954 89.9688 59.125C89.8691 56.606 90.2054 53.9795 89.4688 51.5312C89.1243 50.3864 88.5506 49.4804 87.4375 49C87.4218 48.9926 87.4137 48.9843 87.4062 49Z" fill="#87ffef" stroke="none"/>
</g>
<g opacity="1" vectornator:layerName="Curve 2">
<path d="M19.4375 47.625C18.8077 50.667 17.6803 53.7488 17.625 56.875C17.5719 59.8725 18.3411 63.1455 19.0938 66.0312C21.0592 73.5672 24.9899 81.0656 32.0312 84.9375C32.0461 84.9465 32.0848 84.9211 32.0938 84.9062C32.1027 84.8914 32.0774 84.884 32.0625 84.875C28.3327 82.4277 26.2651 79.356 24.2812 75.4375C22.6931 72.3006 21.4228 69.0326 20.4375 65.6562C19.6162 62.8419 18.8293 59.817 18.75 56.875C18.6666 53.7789 19.221 50.7048 19.4375 47.625Z" fill="#87ffef" stroke="none"/>
</g>
<g opacity="1" vectornator:layerName="Curve 3">
<path d="M48.6562 66.9688C48.4251 66.9796 48.1997 66.9849 47.9688 67C46.8391 67.0737 45.8063 67.1144 44.6562 67.125C44.0584 67.1305 43.4728 67.1665 42.875 67.1562C42.2758 67.1459 41.6615 67.0793 41.0625 67.0625C40.4612 67.0456 39.8516 67.0654 39.25 67.0625C36.1927 67.0475 33.1489 67.1154 30.0938 67.2188C34.9434 67.6244 39.7633 68.1079 44.625 68.3438C45.8826 68.4048 47.062 68.3586 48.2812 68.3125C48.1293 68.5446 47.9681 68.7733 47.8438 69.0312C46.9582 70.8673 46.631 72.999 46.375 75C45.8342 79.2273 46.4866 83.7283 49.75 86.75C51.8606 88.7043 54.5822 89.4954 57.375 89.8438C57.3922 89.8465 57.4035 89.8297 57.4062 89.8125C57.409 89.7953 57.3922 89.784 57.375 89.7812C55.7808 89.4707 54.2138 89.0408 52.7812 88.25C47.5667 85.3714 47.0848 79.4979 48 74.1875C48.2643 72.6539 48.4838 71.0587 49.125 69.625C49.4 69.0101 50.6013 67.8721 49.9062 67.1875C49.6039 66.8897 49.0177 66.9518 48.6562 66.9688Z" fill="#1d9f81" stroke="none"/>
</g>
<path d="M15.5699 56.8749C15.5699 35.6295 32.7927 18.4067 54.0381 18.4067C75.2835 18.4067 92.5063 35.6295 92.5063 56.8749C92.5063 78.1203 75.2835 95.3431 54.0381 95.3431C32.7927 95.3431 15.5699 78.1203 15.5699 56.8749Z" fill="none" opacity="1" stroke="#000000" stroke-linecap="butt" stroke-linejoin="miter" stroke-width="3.15" vectornator:layerName="Oval 1"/>
<path d="M14.6417 22.0901C15.887 10.2981 26.4557 1.74835 38.2477 2.99361C50.0396 4.23886 58.5894 14.8076 57.3441 26.5996C56.0989 38.3915 45.5301 46.9413 33.7382 45.696C21.9462 44.4508 13.3965 33.882 14.6417 22.0901Z" fill="#ffffff" fill-rule="nonzero" opacity="1" stroke="none"/>
<path d="M57.6814 26.6375C58.9267 14.8456 69.4954 6.2958 81.2873 7.54106C93.0793 8.78631 101.629 19.3551 100.384 31.147C99.1386 42.939 88.5698 51.4887 76.7779 50.2435C64.9859 48.9982 56.4362 38.4295 57.6814 26.6375Z" fill="#ffffff" fill-rule="nonzero" opacity="1" stroke="none"/>
<path d="M73.1454 31.0217C74.9887 23.3594 79.0081 17.8006 83.1873 18.4426C87.0345 19.0336 88.6375 24.7914 87.2318 30.4335L80.9435 34.5889L85.504 39.7197C83.4679 47.7811 81.9109 50.9149 78.4196 50.1134C73.3518 48.9501 71.3021 38.6839 73.1454 31.0217Z" fill="#000000" fill-rule="nonzero" opacity="1" stroke="none"/>
<path d="M30.4177 27.3679C31.8993 19.6275 35.6532 13.8861 39.858 14.3312C43.7286 14.7409 45.6003 20.4172 44.4609 26.1191L38.3747 30.5651L43.1711 35.4761C41.5157 43.6242 40.1075 46.8276 36.5825 46.1909C31.4656 45.2668 28.9361 35.1082 30.4177 27.3679Z" fill="#000000" fill-rule="nonzero" opacity="1" stroke="none"/>
<path d="M23.9487 7.53687C43.3723-11.8867 63.3519 25.3275 54.3188 22.8356C45.0949 20.2911 36.8312 21.9617 19.3003 13.0523" fill="#00e874" fill-rule="nonzero" opacity="1" stroke="none" vectornator:layerName="Curve 4"/>
<path d="M15.8096 29.2288C21.3125 59.4117 63.8411 36.3154 54.1226 33.5893C44.1989 30.8058 36.8546 26.8981 15.4633 25.6052" fill="#00e874" fill-rule="nonzero" opacity="1" stroke="none" vectornator:layerName="Curve 2"/>
<path d="M52.1423 66.8506C51.1806 69.7358 48.4294 72.3456 47.8842 75.6173C47.399 78.528 47.08 83.5288 49.4228 85.6722C54.1428 89.9905 62.4374 87.8335 65.1671 82.2729C67.3026 77.9227 65.688 69.7404 61.0163 67.4589C59.6518 66.7925 57.9276 66.9579 56.472 66.9579C55.3709 66.9579 54.4883 66.8714 53.4662 67.3158" fill="#ff686e" fill-rule="nonzero" opacity="1" stroke="none" vectornator:layerName="Curve 5"/>
<path d="M55.014 70.0912C55.014 72.7798 55.3762 74.7398 54.933 77.3991" fill="none" opacity="0.658915" stroke="#ffffff" stroke-linecap="round" stroke-linejoin="miter" stroke-width="0.465365" vectornator:layerName="Curve 8"/>
<path d="M54.4144 79.7C54.5792 79.7412 54.5242 79.7722 54.5927 79.6351" fill="none" opacity="0.658915" stroke="#ffffff" stroke-linecap="round" stroke-linejoin="miter" stroke-width="0.465365" vectornator:layerName="Curve 9"/>
<path d="M58.3984 87.8478C53.8351 86.9025 50.4941 80.0855 51.2078 75.8212C51.5363 73.8583 51.8863 71.6251 53.0069 69.9324C53.5662 69.0875 55.0501 68.8105 55.3679 67.8562C55.7094 66.8301 54.6237 66.1699 53.6627 66.2341C51.9822 66.3463 50.7412 69.4131 50.2048 70.676C48.5406 74.5942 46.6966 80.2393 48.7814 84.3386C50.2376 87.2019 53.0021 86.3142 55.0447 87.9255" fill="#a1494c" fill-rule="nonzero" opacity="0.658915" stroke="none" vectornator:layerName="Curve 10"/>
<g opacity="0.658915" vectornator:layerName="Curve 11">
<path d="M35.5938 5.53125C32.8778 5.38921 30.1611 5.67363 27.6875 6.84375C30.3139 6.06778 32.8227 6.37979 35.5 6.65625C37.7004 6.88346 39.8536 7.05722 41.9375 7.875C45.233 9.16824 47.9723 11.5265 50.4375 14C52.9316 16.5026 54.9361 19.2144 56.3438 22.4688C56.3499 22.485 56.3587 22.4749 56.375 22.4688C56.3912 22.4626 56.3812 22.4537 56.375 22.4375C54.0267 15.3023 48.8399 8.48186 41.4062 6.25C39.5442 5.69095 37.5257 5.63229 35.5938 5.53125Z" fill="#87ffef" stroke="none"/>
</g>
<path d="M29.8398 65.69C29.8398 65.69 52.0185 63.8289 77.3768 72.3592" fill="none" opacity="1" stroke="#000000" stroke-linecap="round" stroke-linejoin="round" stroke-width="3.1" vectornator:layerName="Curve 3"/>
<path d="M14.6417 22.0901C15.887 10.2981 26.4557 1.74835 38.2477 2.99361C50.0396 4.23886 58.5894 14.8076 57.3441 26.5996C56.0989 38.3915 45.5301 46.9413 33.7382 45.696C21.9462 44.4508 13.3965 33.882 14.6417 22.0901Z" fill="none" opacity="1" stroke="#000000" stroke-linecap="butt" stroke-linejoin="miter" stroke-width="3.1469" vectornator:layerName="(oval)"/>
<path d="M57.6814 26.6375C58.9267 14.8456 69.4954 6.2958 81.2873 7.54106C93.0793 8.78631 101.629 19.3551 100.384 31.147C99.1386 42.939 88.5698 51.4887 76.7779 50.2435C64.9859 48.9982 56.4362 38.4295 57.6814 26.6375Z" fill="none" opacity="1" stroke="#000000" stroke-linecap="butt" stroke-linejoin="miter" stroke-width="3.1469"/>
<path d="M52.5309 67.134C52.5309 67.134 43.6783 81.1592 49.8647 85.7977C57.6808 91.658 69.5144 90.1805 63.5246 69.2524" fill="none" opacity="1" stroke="#000000" stroke-linecap="round" stroke-linejoin="miter" stroke-width="3.1469" vectornator:layerName="Curve 5"/>
<g opacity="1" vectornator:layerName="Curve 7">
<path d="M57.0938 66.1562C56.7884 66.2242 56.5883 66.5071 56.6562 66.8125C56.7362 67.2924 56.7394 67.7679 56.7812 68.25C56.865 69.2145 57.0493 70.1501 57.0625 71.125C57.0806 72.4635 56.9971 73.7918 56.9062 75.125C56.8039 76.6256 56.791 78.1229 56.6562 79.625C56.6533 79.6421 56.6704 79.6846 56.6875 79.6875C56.7046 79.6904 56.7158 79.6734 56.7188 79.6562C57.6036 76.1824 58.6885 73.0015 58.4375 69.3438C58.3696 68.3542 58.0124 67.535 57.75 66.5938C57.682 66.2884 57.3991 66.0883 57.0938 66.1562Z" fill="#000000" stroke="none"/>
</g>
<path d="M18.4207 11.9903C32.8326 19.9124 39.5803 22.7615 57.6999 23.4311" fill="none" opacity="1" stroke="#000000" stroke-linecap="round" stroke-linejoin="miter" stroke-width="2.43532" vectornator:layerName="Curve 2"/>
<path d="M14.3605 25.6772C31.3008 25.9638 38.7477 26.8929 54.8116 35.8386" fill="none" opacity="1" stroke="#000000" stroke-linecap="round" stroke-linejoin="miter" stroke-width="2.43532" vectornator:layerName="Curve 1"/>
<path d="M15.9456 26.3387L12.4309 44.314L47.8795 47.9292L51.3942 30.7572L15.9456 26.3387Z" fill="#e0fcff" fill-rule="nonzero" opacity="0.493538" stroke="none" vectornator:layerName="Curve 2"/>
<path d="M65.3527 32.4644L62.7418 49.5359L98.1904 53.1511L101.705 35.9791L65.3527 32.4644Z" fill="#e0fcff" fill-rule="nonzero" opacity="0.497555" stroke="none" vectornator:layerName="Curve 1"/>
<path d="M49.63 39.3471C49.63 39.3471 58.6544 32.9549 64.6706 41.8635" fill="none" opacity="1" stroke="#000000" stroke-linecap="butt" stroke-linejoin="miter" stroke-width="3.1469" vectornator:layerName="Curve 3"/>
<g opacity="1" vectornator:layerName="Curve 4">
<path d="M31.4375 33.0312C30.2962 33.0904 29.1295 33.0762 28 33.25C26.8941 33.4202 25.8273 33.7916 24.75 34.0938C23.6727 34.3959 22.5843 34.6531 21.5312 35.0312C20.455 35.4177 19.4495 36.0057 18.4688 36.5938C19.6123 36.6006 20.7832 36.5902 21.9062 36.375C23.0051 36.1644 24.0752 35.8197 25.1562 35.5312C26.2373 35.2428 27.3365 35.0103 28.375 34.5938C29.4357 34.1683 30.4251 33.5614 31.4375 33.0312Z" fill="#ffffff" stroke="none"/>
</g>
<g opacity="1" vectornator:layerName="Curve 5">
<path d="M43.6562 35.125C42.6452 35.2145 41.5629 35.1571 40.5625 35.3125C40.1233 35.3807 39.7118 35.6304 39.3125 35.8125C38.5666 36.1527 37.8018 36.521 37.0625 36.875C35.48 37.6327 33.831 38.3079 32.2812 39.125C31.2989 39.6429 30.4407 40.4228 29.5625 41.0938C30.6538 40.9103 31.8293 40.7872 32.875 40.4062C35.6268 39.4037 38.1915 37.9421 40.8125 36.6562C41.1448 36.4932 41.4277 36.2461 41.75 36.0625C42.3643 35.7125 43.0158 35.4225 43.6562 35.125Z" fill="#ffffff" stroke="none"/>
</g>
<g opacity="1" vectornator:layerName="Curve 6">
<path d="M91.875 37.9375C90.1434 38.0513 88.3638 38.0456 86.6562 38.375C83.9426 38.8985 81.2084 39.6762 78.5625 40.4688C76.5916 41.0591 74.5165 41.6401 72.6562 42.5312C71.0988 43.2774 69.6373 44.3309 68.1562 45.2188C69.1426 44.8861 70.1167 44.5428 71.125 44.2812C71.7949 44.1075 72.4923 44.0387 73.1562 43.8438C75.4475 43.171 77.669 42.2878 79.9688 41.625C82.2862 40.9571 84.6542 40.4473 86.9688 39.7812C88.6353 39.3017 90.2591 38.562 91.875 37.9375Z" fill="#ffffff" stroke="none"/>
</g>
<path d="M15.9456 26.3387L12.4309 44.314L47.8795 47.9292L51.3942 30.7572L15.9456 26.3387Z" fill="none" opacity="1" stroke="#000000" stroke-linecap="butt" stroke-linejoin="miter" stroke-width="3.1469" vectornator:layerName="Curve 2"/>
<path d="M65.3527 32.4644L62.7418 49.5359L98.1904 53.1511L101.705 35.9791L65.3527 32.4644Z" fill="none" opacity="1" stroke="#000000" stroke-linecap="butt" stroke-linejoin="miter" stroke-width="3.1469" vectornator:layerName="Curve 1"/>
<path d="M49.63 39.3471C49.63 39.3471 58.6544 32.9549 64.6706 41.8635" fill="none" opacity="1" stroke="#000000" stroke-linecap="butt" stroke-linejoin="miter" stroke-width="3.1469" vectornator:layerName="Curve 3"/>
<path d="M14.3339 33.8459L5.59582 26.6219C5.59582 26.6219 1.51102 22.3742 4.86866 36.8146" fill="none" opacity="1" stroke="#000000" stroke-linecap="round" stroke-linejoin="miter" stroke-width="3.1469" vectornator:layerName="Curve 4"/>
<path d="M79.8277 63.1118L80.4598 51.1849C80.4598 51.1849 94.7046 49.3306 101.616 52.365L96.854 62.8589" fill="#a4a4a4" fill-rule="nonzero" opacity="1" stroke="#000000" stroke-linecap="round" stroke-linejoin="miter" stroke-width="3.1469" vectornator:layerName="Curve 2"/>
<path d="M63.3169 110.127L71.2603 63.7127C71.2603 63.7127 84.7899 59.2855 109.367 62.4913L95.0905 105.797L63.3169 110.127Z" fill="#c09a65" fill-rule="nonzero" opacity="1" stroke="#000000" stroke-linecap="round" stroke-linejoin="miter" stroke-width="3.1469" vectornator:layerName="Curve 1"/>
<path d="M106.706 73.1495C103.678 71.4015 87.3292 68.4539 81.1227 75.7934C80.3287 76.7324 78.5891 80.2411 80.4075 84.3798C84.3585 93.3721 99.5868 94.3288 105.808 85.9685C107.275 83.9977 110.847 73.7503 106.383 73.0064" fill="#00e874" fill-rule="nonzero" opacity="1" stroke="#000000" stroke-linecap="round" stroke-linejoin="miter" stroke-width="2.38194" vectornator:layerName="Curve 1"/>
<g opacity="1" vectornator:layerName="Curve 2">
<path d="M104.438 81.5938C104.401 82.5057 104.294 83.3449 103.844 84.1562C103.436 84.891 102.811 85.4234 102.188 85.9688C99.9031 87.9674 96.5738 88.9718 93.5625 88.9062C92.039 88.8731 90.5171 88.5146 89 88.375C87.3723 88.2252 85.903 88.1239 84.4062 87.4062C86.4057 89.0247 88.4898 89.3784 90.9688 89.6875C91.8256 89.7943 92.6667 89.9982 93.5312 90.0312C95.67 90.1129 97.8944 89.6255 99.8438 88.75C102.936 87.3612 104.875 85.1266 104.438 81.5938Z" fill="#87ffef" stroke="none"/>
</g>
</g>
</g>
</svg>
